<?xml version="1.0" encoding="UTF-8"?>
<svg id="Layer_1" data-name="Layer 1" xmlns="http://www.w3.org/2000/svg" viewBox="0 0 500 500">
  <defs>
    <style>
      .cls-1 {
        stroke-width: 0px;
      }

      .cls-2 {
        fill: none;
        stroke: #000;
        stroke-miterlimit: 10;
        stroke-width: 22px;
      }
    </style>
  </defs>
  <path class="cls-1" d="m373.74,320.32c-24.78,0-44.94,20.15-44.94,44.93s20.16,44.94,44.94,44.94,44.93-20.16,44.93-44.94-20.15-44.93-44.93-44.93Zm0,66.05c-11.65,0-21.12-9.47-21.12-21.12s9.47-21.12,21.12-21.12,21.12,9.48,21.12,21.12-9.48,21.12-21.12,21.12Z"/>
  <rect class="cls-2" x="46.83" y="129.81" width="259.18" height="172.8" rx="32.12" ry="32.12"/>
  <path class="cls-1" d="m176.42,320.32c-24.78,0-44.94,20.15-44.94,44.93s20.16,44.94,44.94,44.94,44.93-20.16,44.93-44.94-20.16-44.93-44.93-44.93Zm0,66.05c-11.65,0-21.12-9.47-21.12-21.12s9.47-21.12,21.12-21.12,21.11,9.48,21.11,21.12-9.47,21.12-21.11,21.12Z"/>
  <path class="cls-1" d="m452.76,310.38c-3.53,0-6.4-2.87-6.4-6.41l-2.05-31.39-33.94-86.5h-97.02v72.93c0,28.37-22.99,51.37-51.36,51.37H87.92c-3.53,0-6.4,2.87-6.4,6.4l6.37,31.57c1.16,5.74,6.2,9.87,12.06,9.87h32.97c2.94-21.41,21.28-37.9,43.5-37.9s40.56,16.49,43.49,37.9h110.33c2.94-21.41,21.29-37.9,43.5-37.9s40.56,16.49,43.49,37.9h35.53c3.54,0,6.41-2.87,6.41-6.41v-35.03c0-3.53-2.87-6.4-6.41-6.4Zm-46.16-46.56h-36.24c-2.64,0-5.03-1.54-6.13-3.93l-4.2-9.14c-1.09-2.4-3.49-3.93-6.12-3.93h-9.12c-3.73,0-6.75-3.02-6.75-6.75v-30.07c0-3.73,3.02-6.75,6.75-6.75h42.4c2.73,0,5.19,1.65,6.23,4.18l19.41,47.07c1.83,4.44-1.43,9.32-6.23,9.32Z"/>
</svg>