<?xml version="1.0" encoding="UTF-8"?>
<svg id="Layer_1" data-name="Layer 1" xmlns="http://www.w3.org/2000/svg" viewBox="0 0 500 500">
  <defs>
    <style>
      .cls-1, .cls-2, .cls-3 {
        stroke: #000;
        stroke-linejoin: round;
        stroke-width: 22px;
      }

      .cls-1, .cls-3 {
        fill: none;
      }

      .cls-2 {
        fill: #1d1d1b;
      }

      .cls-3 {
        stroke-linecap: round;
      }
    </style>
  </defs>
  <rect class="cls-2" x="85.78" y="123.13" width="115.58" height="46.7" transform="translate(-60.81 129.23) rotate(-40.75)"/>
  <rect class="cls-2" x="302.24" y="130.61" width="115.58" height="46.7" transform="translate(241.65 -219.29) rotate(49.25)"/>
  <line class="cls-1" x1="177.54" y1="322.59" x2="177" y2="321.97"/>
  <path class="cls-1" d="m235.72,390.88h0s8.72,10.32,8.72,10.32c8.01,9.31,22.04,10.35,31.34,2.34,4.64-4,7.23-9.52,7.65-15.19.43-5.67-1.31-11.51-5.32-16.16l-13.24-15.64s0-.01,0-.02"/>
  <path class="cls-1" d="m120.89,251.9c-8.45-21.71-2.85-47.3,15.8-63.38l49.48-42.63c18.01-15.52,43.01-17.69,62.92-7.42l-50.13,43.2c-10.07,8.67-11.19,23.87-2.52,33.93,4.76,5.53,11.48,8.36,18.24,8.36,5.56,0,11.15-1.92,15.69-5.83l27.09-23.35c14.34-12.35,35.97-10.74,48.33,3.59l39.15,45.44,34.62,40.98c4,4.65,5.74,10.49,5.32,16.15-.42,5.67-3,11.18-7.65,15.19-9.3,8.01-23.33,6.97-31.34-2.33l-41.22-48.82-1.61-.86,42.33,50.11c4,4.65,5.74,10.49,5.32,16.15-.42,5.67-3,11.19-7.65,15.19-8.81,7.58-21.84,7.04-30-.93,3.15,4.37,4.5,9.57,4.12,14.63-.42,5.67-3,11.18-7.65,15.18-9.29,8.01-23.33,6.97-31.34-2.33l-13.31-15.77"/>
  <polyline class="cls-1" points="245.42 333.5 235.78 322.09 236.99 323.32 245.6 333.52"/>
  <line class="cls-1" x1="207.03" y1="356.93" x2="206.51" y2="356.3"/>
  <line class="cls-1" x1="147.99" y1="288.3" x2="147.45" y2="287.68"/>
  <line class="cls-3" x1="316.92" y1="348.16" x2="266.24" y2="289.33"/>
  <path class="cls-1" d="m380.64,230.27c0,13.3-5.57,26.53-16.44,35.89l-19.26-22.35-39.15-45.44c-12.36-14.33-33.99-15.94-48.33-3.59l-27.09,23.35c-4.54,3.91-10.13,5.83-15.69,5.83-6.76,0-13.48-2.83-18.24-8.36-8.67-10.06-7.55-25.26,2.52-33.93l50.13-43.2,2.92-2.51c19.81-17.07,49.7-14.85,66.77,4.96l50.38,58.47c7.71,8.94,11.48,19.94,11.48,30.88Z"/>
  <rect class="cls-1" x="205.89" y="326.66" width="44.45" height="82.89" rx="22.22" ry="22.22" transform="translate(98.17 781.2) rotate(-130.75)"/>
  <rect class="cls-1" x="174.57" y="293.9" width="44.45" height="82.89" rx="22.22" ry="22.22" transform="translate(71.21 703.33) rotate(-130.75)"/>
  <rect class="cls-1" x="143.24" y="261.14" width="44.45" height="82.89" rx="22.22" ry="22.22" transform="translate(44.25 625.45) rotate(-130.75)"/>
  <rect class="cls-1" x="111.91" y="228.38" width="44.45" height="82.89" rx="22.22" ry="22.22" transform="translate(17.29 547.58) rotate(-130.75)"/>
</svg>