<?xml version="1.0" encoding="UTF-8"?>
<svg id="Layer_1" data-name="Layer 1" xmlns="http://www.w3.org/2000/svg" viewBox="0 0 500 500">
  <defs>
    <style>
      .cls-1 {
        stroke-width: 0px;
      }
    </style>
  </defs>
  <path class="cls-1" d="m350.75,122.85l-67.2-26.26c-9.37-3.66-20.08-2.7-28.66,2.58l-49.28,30.37c-9.46,5.82-15.34,16.35-15.34,27.46v46.84c0,10.81,5.37,20.84,14.37,26.83l46.45,30.97c5.37,3.59,11.63,5.4,17.91,5.4,4.86,0,9.75-1.09,14.24-3.3l64.88-31.99c10.01-4.93,16.68-14.51,17.82-25.62l5.16-49.93c1.48-14.38-6.89-28.09-20.35-33.35Zm-6.59,30.57l-5.15,49.93c-.19,1.78-1.26,3.32-2.86,4.11l-64.88,31.98c-1.65.82-3.63.69-5.16-.33l-46.45-30.97c-1.45-.96-2.31-2.57-2.31-4.3v-46.84c0-1.78.95-3.47,2.46-4.41l49.29-30.36c.82-.51,1.77-.77,2.72-.77.64,0,1.27.12,1.88.35l67.19,26.26c2.16.84,3.51,3.04,3.27,5.35Z"/>
  <path class="cls-1" d="m293.85,307.22v27.26c0,5.27,2.22,10.29,6.12,13.84l30.33,27.61c5.77,5.26,14.21,6.37,21.15,2.81l61.62-31.67c6.82-3.5,10.81-10.8,10.07-18.43-1.52-15.71-4.1-40.57-5.31-41.37-1.35-.9-42.41-17.34-61.66-25.03-6.07-2.43-12.97-1.5-18.19,2.43l-36.68,27.61c-4.7,3.54-7.46,9.07-7.46,14.95Z"/>
  <path class="cls-1" d="m253.33,342.96l-1.01-25.14c-.28-6.73-3.58-12.98-8.99-17l-32.28-23.96c-3.64-2.7-8.01-4.23-12.53-4.38l-86.92-2.94c-.25-.01-.5-.01-.75-.01-6.22,0-12.17,2.6-16.4,7.19l-11.79,12.8c-3.79,4.12-5.89,9.51-5.89,15.1v40.3c0,9.07,5.49,17.24,13.89,20.65l61.12,24.87c2.69,1.09,5.55,1.64,8.4,1.64,2.59,0,5.18-.45,7.66-1.36l70.88-25.92c9.1-3.32,15.01-12.15,14.61-21.84Zm-93.06,21.69l-56.42-22.95v-35.21l9.03-9.81,83.23,2.81,29.24,21.71.79,19.37-65.87,24.08Z"/>
  <path class="cls-1" d="m168.82,221.51l-3.91-24.4c-.65-4.07-3.34-7.53-7.12-9.18l-29.67-12.86c-5.25-2.28-11.38-.56-14.68,4.12l-9.62,13.64c-2.07,2.93-2.73,6.62-1.8,10.08,1.98,7.4,5.49,19.68,7.11,20.17,1.83.55,20.01,9.42,27.55,13.12,2.13,1.04,4.5,1.43,6.85,1.13l14.91-1.92c6.76-.87,11.47-7.16,10.39-13.89Z"/>
</svg>