<?xml version="1.0" encoding="UTF-8"?>
<svg id="Layer_1" data-name="Layer 1" xmlns="http://www.w3.org/2000/svg" viewBox="0 0 500 500">
  <defs>
    <style>
      .cls-1 {
        stroke-width: 0px;
      }
    </style>
  </defs>
  <g>
    <polygon class="cls-1" points="386.61 339.1 322.28 417.42 386.61 417.42 386.61 339.1 386.61 339.1"/>
    <path class="cls-1" d="m220.79,280.41c-1.29-6.97.54-14.15,5.01-19.65l107.51-132.36-66.65-63.22c-4.67-4.43-10.66-6.64-16.66-6.64s-11.99,2.21-16.66,6.64l-88.33,83.8-60.96,57.83c-15.87,15.05-5.22,41.77,16.66,41.77h12.68v168.84h141.19l33.98-88.17-56.06-32.29c-6.14-3.53-10.42-9.58-11.71-16.55Zm15.2,109.93h-95.52v-168.84h-32.56l55.74-52.88,86.35-81.92,46.48,44.09-91.7,112.89c-9.48,11.68-13.35,26.86-10.62,41.66,2.74,14.79,11.79,27.58,24.83,35.09l35.96,20.71-18.96,49.2Z"/>
    <path class="cls-1" d="m415.96,206.81l-41.94-39.79-29.49,77.78,42.09,24.24v-20.47h12.68c21.88,0,32.53-26.72,16.66-41.77Z"/>
  </g>
  <path class="cls-1" d="m271.23,441.46l117.63-143.21-59.56-34.3c-8.47-4.88-12.15-15.18-8.68-24.32l40.69-107.34-116.75,143.72,59.22,34.11c8.51,4.9,12.18,15.27,8.65,24.43l-41.2,106.92Z"/>
</svg>