<?xml version="1.0" encoding="UTF-8"?>
<svg id="Layer_1" data-name="Layer 1" xmlns="http://www.w3.org/2000/svg" viewBox="0 0 500 500">
  <defs>
    <style>
      .cls-1, .cls-2 {
        stroke-width: 0px;
      }

      .cls-2 {
        fill: #1d1d1b;
      }
    </style>
  </defs>
  <path class="cls-1" d="m196.09,129.73l-2.04-2.04-45.65-45.64c-2.75-2.76-6.41-4.28-10.3-4.28s-7.56,1.52-10.3,4.27l-47.69,47.69c-7.42,7.42-11.5,17.28-11.5,27.76v264.74h138.98V157.49c0-10.48-4.09-20.34-11.5-27.76Zm-15.58,265.42h-84.82v-237.66c0-3.25,1.27-6.31,3.57-8.61l38.84-38.84,38.84,38.84c2.3,2.3,3.57,5.36,3.57,8.61v237.66Z"/>
  <path class="cls-1" d="m307.99,129.73l-2.04-2.04-45.65-45.64c-2.75-2.76-6.41-4.28-10.3-4.28s-7.56,1.52-10.3,4.27l-45.65,45.65-2.04,2.04c-7.42,7.42-11.5,17.28-11.5,27.76v264.74h138.98V157.49c0-10.48-4.09-20.34-11.5-27.76Zm-15.58,265.42h-84.82v-237.66c0-3.25,1.27-6.31,3.57-8.61l38.84-38.84,38.84,38.84c2.3,2.3,3.57,5.36,3.57,8.61v237.66Z"/>
  <path class="cls-1" d="m419.89,129.73l-47.69-47.68c-2.75-2.76-6.41-4.28-10.3-4.28s-7.56,1.52-10.3,4.27l-47.69,47.69c-7.42,7.42-11.5,17.28-11.5,27.76v264.74h138.98V157.49c0-10.48-4.08-20.34-11.5-27.76Zm-15.58,265.42h-84.82v-237.66c0-3.25,1.27-6.31,3.57-8.61l38.84-38.84,38.84,38.84c2.3,2.3,3.57,5.36,3.57,8.61v237.66Z"/>
  <circle class="cls-2" cx="138.1" cy="192.76" r="17.8"/>
  <circle class="cls-2" cx="138.1" cy="340.26" r="17.8"/>
  <circle class="cls-2" cx="250" cy="192.76" r="17.8"/>
  <circle class="cls-2" cx="250" cy="340.26" r="17.8"/>
  <circle class="cls-2" cx="361.9" cy="192.76" r="17.8"/>
  <circle class="cls-2" cx="361.9" cy="340.26" r="17.8"/>
</svg>