<?xml version="1.0" encoding="UTF-8"?>
<svg id="Layer_1" data-name="Layer 1" xmlns="http://www.w3.org/2000/svg" viewBox="0 0 500 500">
  <defs>
    <style>
      .cls-1 {
        fill: none;
        stroke: #000;
        stroke-linejoin: round;
        stroke-width: 22px;
      }

      .cls-2 {
        fill: #1d1d1b;
        stroke-width: 0px;
      }
    </style>
  </defs>
  <polygon class="cls-1" points="198.64 374.87 216.12 414.68 250.13 364.87 284.13 414.68 301.61 374.87 348.04 382.24 348.04 382.24 318.96 245.11 184.22 245.11 155.13 382.24 155.13 382.24 198.64 374.87"/>
  <path class="cls-2" d="m251.58,85.32c-53.91,0-97.77,43.85-97.77,97.77,0,22.44,7.79,44.37,21.95,61.73,18.67,22.91,46.3,36.04,75.82,36.04,53.91,0,97.77-43.87,97.77-97.77s-43.86-97.77-97.77-97.77Zm29.51,140.32l-29.63-15.7-29.73,15.51,5.77-33.03-23.93-23.48,33.19-4.72,14.94-30.02,14.74,30.12,33.17,4.93-24.09,23.32,5.57,33.07Z"/>
</svg>