<?xml version="1.0" encoding="UTF-8"?>
<svg id="Layer_1" data-name="Layer 1" xmlns="http://www.w3.org/2000/svg" viewBox="0 0 500 500">
  <defs>
    <style>
      .cls-1 {
        stroke-width: 0px;
      }
    </style>
  </defs>
  <path class="cls-1" d="m401.25,287.9c-38.48-4.22-78.44,8.34-107.94,37.84-11.14,11.14-19.87,23.78-26.18,37.26v-93.26h63.27c26.49,0,48.05-21.56,48.05-48.06v-73.89c0-12.75-8.27-23.54-20.59-26.84-12.31-3.3-24.87,1.9-31.25,12.95l-18.21,31.54-33.68-58.34c-5.03-8.7-14.02-13.89-24.06-13.89s-19.04,5.19-24.06,13.89l-33.69,58.34-18.21-31.54c-6.37-11.05-18.94-16.25-31.25-12.95-12.32,3.3-20.59,14.09-20.59,26.84v73.89c0,26.5,21.56,48.06,48.05,48.06h63.27v96.12c-6.4-14.55-15.55-28.19-27.48-40.12-29.5-29.5-69.46-42.06-107.94-37.84-4.22,38.47,8.35,78.44,37.85,107.93,28.4,28.41,66.52,41.11,103.66,38.24h19.47c37.14,2.87,75.25-9.83,103.66-38.24,29.5-29.49,42.06-69.46,37.85-107.93Zm-230.34-42.78c-12.92,0-23.43-10.52-23.43-23.44v-73.89c0-.6,0-2.43,2.34-3.06.38-.1.72-.14,1.03-.14,1.6,0,2.28,1.18,2.53,1.61l28.87,50.01c2.2,3.81,6.26,6.16,10.66,6.16s8.46-2.35,10.66-6.16l44.35-76.8c.75-1.31,1.9-1.59,2.74-1.59s1.98.28,2.73,1.59l44.35,76.8c2.2,3.81,6.26,6.16,10.66,6.16s8.46-2.35,10.66-6.16l28.87-50.01c.3-.52,1.22-2.1,3.56-1.47,2.34.63,2.34,2.46,2.34,3.06v73.89c0,12.92-10.51,23.44-23.43,23.44h-159.49Z"/>
</svg>