<?xml version="1.0" encoding="UTF-8"?>
<svg id="Layer_1" data-name="Layer 1" xmlns="http://www.w3.org/2000/svg" viewBox="0 0 500 500">
  <defs>
    <style>
      .cls-1 {
        fill: none;
      }

      .cls-1, .cls-2 {
        stroke: #000;
        stroke-linejoin: round;
        stroke-width: 22px;
      }

      .cls-2 {
        fill: #1d1d1b;
      }
    </style>
  </defs>
  <rect class="cls-2" x="42.71" y="289.74" width="171.42" height="55.95" transform="translate(-183.56 459.5) rotate(-92.43)"/>
  <path class="cls-1" d="m362.98,363.14c-4.44-4.43-10.57-7.17-17.34-7.16l-6.16-.61,1.89-.13,26.34.62c13.54-.02,24.5-11.01,24.49-24.55,0-6.77-2.76-12.89-7.2-17.32-3.81-3.8-8.87-6.36-14.52-7-.23-.03-23.56-.05-23.79-.07.22-.02,34.56-.04,34.78-.07,12.23-1.4,21.72-11.77,21.71-24.37,0-6.77-2.77-12.9-7.21-17.32-4.44-4.43-10.57-7.17-17.34-7.16l-37.22.63h0l25.32-.38c13.54-.02,24.34-11.99,24.32-25.53,0-6.77-2.77-12.9-7.21-17.32-4.44-4.43-10.57-7.17-17.34-7.16l-60.3-.61v-.12s-32.28.09-32.28.09l9.17-46.27c2.05-10.33,1.91-21.02-.88-31.18-5.6-20.43-20.01-34.91-43.48-35.16h-11.41s-.65,62.23-.65,62.23l-52.49,69.23c-11.04,11.28-17.84,26.71-17.82,43.74l.1,72.06c.05,34.48,28.03,62.39,62.51,62.35l87.48-.16h0s39.25.6,39.25.6c13.55-.01,24.51-11,24.49-24.54,0-6.77-2.76-12.9-7.21-17.34Z"/>
</svg>