<?xml version="1.0" encoding="UTF-8"?>
<svg id="Layer_1" data-name="Layer 1" xmlns="http://www.w3.org/2000/svg" viewBox="0 0 500 500">
  <defs>
    <style>
      .cls-1 {
        stroke-width: 0px;
      }
    </style>
  </defs>
  <path class="cls-1" d="m377.23,380.11l-160.48-168.58,37.68-35.66-20.26-21.5,25.93-27.88-6.06-8.93c-10.18-15-28.97-25.31-50.26-27.6-20.68-2.21-39.85,3.46-52.57,15.58l-91.61,87.2,21.14,21.45c5.09,5.17,5.06,13.55-.05,18.68l-23.78,23.86,53.18,55.73,56.05-53.03,160.62,168.73c10.78,11.32,28.7,11.76,40.02.98l9.47-9.01c11.32-10.78,11.76-28.69.98-40.02Zm-266.16-105.86l-16.33-17.11,5.13-5.15c15.56-15.62,15.63-41.1.16-56.8l-1.8-1.83,71.65-68.21c6.85-6.52,18.44-9.61,31.02-8.26,8.9.95,17.13,4.01,23.3,8.44l-27.13,29.16,19.12,20.29-105.12,99.47Z"/>
  <path class="cls-1" d="m368.6,115.52c-41.73,0-75.57,33.84-75.57,75.57s33.84,75.57,75.57,75.57,75.57-33.83,75.57-75.57-33.84-75.57-75.57-75.57Zm-4.63,94.1c-4.57,0-8.29-3.7-8.29-8.28v-46.2h16.57v34.78c0,1.73,1.4,3.13,3.13,3.13l24.31-.03v16.57s-35.72.03-35.72.03Z"/>
</svg>