<?xml version="1.0" encoding="UTF-8"?>
<svg id="Layer_1" data-name="Layer 1" xmlns="http://www.w3.org/2000/svg" viewBox="0 0 500 500">
  <defs>
    <style>
      .cls-1, .cls-2 {
        stroke-width: 0px;
      }

      .cls-3 {
        fill: none;
        stroke: #000;
        stroke-miterlimit: 10;
        stroke-width: 22px;
      }

      .cls-2 {
        fill: #1d1d1b;
      }
    </style>
  </defs>
  <path class="cls-3" d="m330.19,404.42h-160.37c-7.85,0-13.23-9.46-10.37-18.22l11.27-34.49c1.67-5.12,5.79-8.48,10.37-8.48h137.83c4.58,0,8.7,3.37,10.37,8.48l11.27,34.49c2.86,8.76-2.53,18.22-10.37,18.22Z"/>
  <path class="cls-1" d="m384.55,186.72c-.16-3.75-2.73-6.95-6.35-7.92l-48.69-13.05c-2.96-.79-6.12.05-8.29,2.22-2.17,2.17-3.01,5.33-2.22,8.29l13.05,48.69c.97,3.61,4.17,6.18,7.91,6.35.13,0,.25,0,.38,0,3.59,0,6.82-2.24,8.06-5.64l4.09-11.21,9.56,9.56c4.29,4.29,11.23,4.29,15.52,0h0c4.29-4.29,4.29-11.23,0-15.52l-9.45-9.45,10.78-3.89c3.53-1.27,5.82-4.69,5.66-8.43Z"/>
  <path class="cls-1" d="m294.97,248.41c.34-1.34.54-2.73.54-4.18,0-9.35-7.58-16.94-16.94-16.94-3.88,0-7.45,1.32-10.3,3.52-2.86-2.2-6.42-3.52-10.3-3.52-9.35,0-16.94,7.58-16.94,16.94,0,1.54.22,3.02.61,4.44-6.33,2.45-10.83,8.59-10.83,15.78,0,9.35,7.58,16.94,16.94,16.94,3.95,0,7.57-1.36,10.46-3.63,2.88,2.27,6.51,3.63,10.46,3.63s7.57-1.36,10.46-3.63c2.88,2.27,6.51,3.63,10.46,3.63,9.35,0,16.94-7.58,16.94-16.94,0-7.46-4.83-13.78-11.53-16.04Z"/>
  <path class="cls-1" d="m227.56,200.73l-25.75-25.18-32.96-32.21c-1.32-1.3-3.05-1.95-4.77-1.95s-3.44.65-4.77,1.95l-32.95,32.21-25.75,25.18c-4.38,4.27-1.35,11.7,4.77,11.7h5.47v68.97h106.47v-68.97h5.47c6.12,0,9.14-7.43,4.77-11.7Zm-32.24,58.67h-62.47v-59.43l8.89-8.69,22.34-21.84,22.35,21.84,8.89,8.69v59.43Z"/>
  <path class="cls-2" d="m195.32,199.97v59.43h-18.98v-26.34c0-4.48-3.63-8.11-8.11-8.11h-8.3c-4.47,0-8.1,3.63-8.1,8.11v26.34h-18.98v-59.43l8.89-8.69,22.34-21.84,22.35,21.84,8.89,8.69Z"/>
  <path class="cls-1" d="m389.91,99.57H110.09c-27.47,0-49.81,22.34-49.81,49.8v152.17c0,27.47,22.34,49.81,49.81,49.81h279.82c27.47,0,49.81-22.34,49.81-49.81v-152.17c0-27.46-22.34-49.8-49.81-49.8ZM118.8,339.73c-5.59,0-10.13-4.53-10.13-10.13s4.53-10.13,10.13-10.13,10.13,4.53,10.13,10.13-4.53,10.13-10.13,10.13Zm298.92-38.2c0,1.93-.2,3.81-.57,5.62H82.85c-.37-1.82-.57-3.7-.57-5.62v-152.17c0-15.33,12.47-27.8,27.81-27.8h279.82c15.34,0,27.81,12.47,27.81,27.8v152.17Z"/>
  <rect class="cls-1" x="146.12" y="259.4" width="33.19" height="8.57"/>
</svg>