<?xml version="1.0" encoding="UTF-8"?>
<svg id="Layer_1" data-name="Layer 1" xmlns="http://www.w3.org/2000/svg" viewBox="0 0 500 500">
  <defs>
    <style>
      .cls-1 {
        stroke-width: 0px;
      }
    </style>
  </defs>
  <path class="cls-1" d="m261.01,211.82c-22.73-38.02-45.07-69.3-46.01-70.62-2.55-3.55-6.65-5.65-11.01-5.65s-8.47,2.1-11.01,5.65c-.94,1.32-23.29,32.6-46.02,70.62-31.84,53.26-47.32,90.63-47.32,114.24,0,57.54,46.81,104.35,104.35,104.35s104.35-46.81,104.35-104.35c0-23.61-15.48-60.98-47.33-114.24Zm-57.02,191.51c-42.61,0-77.27-34.66-77.27-77.27,0-32.79,48.6-111.11,77.27-153.27,28.67,42.16,77.27,120.48,77.27,153.27,0,42.61-34.67,77.27-77.27,77.27Z"/>
  <path class="cls-1" d="m386.82,181.19c0,30.44-24.67,55.11-55.11,55.11s-55.11-24.67-55.11-55.11c0-22.1,29.06-68.74,44.98-92.62,4.82-7.24,15.45-7.24,20.27,0,15.92,23.89,44.98,70.52,44.98,92.62Z"/>
</svg>