<?xml version="1.0" encoding="UTF-8"?>
<svg id="Layer_1" data-name="Layer 1" xmlns="http://www.w3.org/2000/svg" viewBox="0 0 500 500">
  <defs>
    <style>
      .cls-1 {
        stroke-width: 0px;
      }
    </style>
  </defs>
  <path class="cls-1" d="m250,113.88c75.04,0,135.87,60.83,135.87,135.87s-60.83,135.87-135.87,135.87c-19.43,0-37.89-4.09-54.61-11.43l-69.87,31.93,21.27-68.02c-20.36-23.76-32.66-54.62-32.66-88.35,0-75.04,60.83-135.87,135.87-135.87m0-22c-21.3,0-41.98,4.18-61.46,12.42-18.8,7.95-35.68,19.33-50.17,33.82-14.49,14.49-25.87,31.37-33.82,50.17-8.24,19.48-12.42,40.15-12.42,61.46,0,33.46,10.65,65.98,30.2,92.86l-17.8,56.95c-2.59,8.29-.06,17.33,6.45,23.07,4.1,3.61,9.3,5.5,14.55,5.5,3.1,0,6.21-.65,9.14-1.99l61.29-28.02c17.28,6.31,35.41,9.5,54.04,9.5,21.3,0,41.98-4.18,61.46-12.42,18.8-7.95,35.68-19.33,50.17-33.82s25.87-31.37,33.82-50.17c8.24-19.48,12.42-40.15,12.42-61.46s-4.18-41.98-12.42-61.46c-7.95-18.8-19.33-35.68-33.82-50.17-14.49-14.49-31.37-25.87-50.17-33.82-19.48-8.24-40.15-12.42-61.46-12.42h0Z"/>
  <path class="cls-1" d="m316.12,280.35l-.02-.02c-1.07-1.51-2.67-2.57-4.48-2.96l-29.2-6.28c-3.11-.67-6.31.72-7.93,3.46-2.23,3.77-3.26,8.13-2.99,12.46.18,2.96-2.65,5.18-5.51,4.4-12.59-3.42-26.22-12.35-37.43-23.56-10.88-10.88-19.62-24.05-23.25-36.33-.84-2.83,1.35-5.58,4.31-5.57.02,0,.04,0,.06,0,4.35,0,8.74-1.3,12.55-4,.02-.01.03-.02.05-.03,2.6-1.86,3.59-5.27,2.56-8.29l-11.28-33.28c-.88-2.61-3.14-4.54-5.86-4.94-5.36-.81-11.03.37-15.79,3.75-1.27.9-2.41,1.92-3.43,3.02-13.79,14.24-18.19,33.95-12.38,55.63,4.68,17.46,15.81,35.64,31.34,51.17,15.53,15.53,33.71,26.67,51.17,31.34,6.24,1.67,12.32,2.5,18.15,2.5,14.73,0,27.89-5.27,38.13-15.51l-.1-.1c6.44-7.4,7.26-18.51,1.35-26.86Z"/>
</svg>