<?xml version="1.0" encoding="UTF-8"?>
<svg id="Layer_1" data-name="Layer 1" xmlns="http://www.w3.org/2000/svg" viewBox="0 0 500 500">
  <defs>
    <style>
      .cls-1, .cls-2 {
        stroke-width: 0px;
      }

      .cls-2 {
        fill: #1d1d1b;
      }
    </style>
  </defs>
  <path class="cls-1" d="m380.6,115.45l-45.92-45.92c-7.01-7.01-18.39-7.01-25.41,0l-34.96,34.96c-7.01,7.02-7.01,18.4,0,25.41l6.15,6.15-21.42,21.42,1.05,18.47-18.47-1.05-2.37,2.37,1.05,18.47-18.47-1.05-7.15,7.16c-9.29,9.28-9.29,24.33,0,33.62,9.28,9.28,24.33,9.28,33.62,0l65.78-65.79,6.15,6.15c7.02,7.02,18.39,7.02,25.41,0l34.96-34.96c7.02-7.02,7.02-18.39,0-25.41Zm-53.14,23.43c-8.95,0-16.2-7.26-16.2-16.2s7.25-16.21,16.2-16.21,16.2,7.26,16.2,16.21-7.25,16.2-16.2,16.2Z"/>
  <path class="cls-2" d="m448.4,346.32c-2.35-11-9.35-20.34-19.2-25.61-24.11-12.91-60.9-16.98-109.46-12.09-10.9-14.21-25.57-21.83-42.61-21.83h-65.25c-8.06-12.04-27.54-32.5-66.91-32.5h-12.62v-5.77c0-11.75-9.56-21.31-21.31-21.31h-39c-11.75,0-21.31,9.56-21.31,21.31v162.65c0,11.76,9.56,21.32,21.31,21.32h39c10.4,0,19.08-7.48,20.94-17.34.31.24.62.48.93.72,28.8,22.17,74.23,33.41,135.01,33.41,103.14,0,152.8-44.43,173.22-70.92,7.03-9.12,9.67-20.8,7.26-32.04Zm-28.71,15.5c-17.38,22.55-60.22,60.38-151.77,60.38-65.71,0-99.42-14.16-116.12-26.03-14.53-10.34-18.54-20.35-19.45-23.28v-91.52h12.62c34.92,0,45.65,22.18,46.49,24.06l3.12,8.44h82.55c19.12,0,27.97,20.11,31.88,34.67h-124.5v27.08h155.61l-1.29-14.73c-.06-.59-1.14-12.42-5.76-26.26,46.45-3.46,70.83,3.24,83.34,9.95,3.86,2.06,5.11,5.53,5.52,7.41.73,3.45-.08,7.03-2.24,9.83Z"/>
</svg>