<?xml version="1.0" encoding="UTF-8"?>
<svg id="Layer_1" data-name="Layer 1" xmlns="http://www.w3.org/2000/svg" viewBox="0 0 500 500">
  <defs>
    <style>
      .cls-1 {
        fill: #1d1d1b;
        stroke-width: 0px;
      }
    </style>
  </defs>
  <path class="cls-1" d="m281.78,252.64c0,26.97-18.64,48.92-41.55,48.92s-41.56-21.95-41.56-48.92,18.64-48.91,41.56-48.91,41.55,21.94,41.55,48.91Z"/>
  <path class="cls-1" d="m250,86.14c-90.49,0-163.86,73.36-163.86,163.86s73.37,163.86,163.86,163.86,163.86-73.36,163.86-163.86-73.36-163.86-163.86-163.86Zm85.81,233.04c-16.16,0-36.05-7.59-46.22-24.75-11.31,16.7-29.23,27.51-49.36,27.51-34.15,0-61.94-31.09-61.94-69.3s27.79-69.29,61.94-69.29c16.06,0,30.71,6.88,41.73,18.14-.11-5.92-.18-9.64-.18-9.71,0-5.6,4.51-10.15,10.11-10.19h.09c5.55,0,10.09,4.45,10.18,10.01.01.56.95,55.97,1.81,81.65.31,9.29,6.43,17.58,16.37,22.16,12.31,5.66,26.68,4.19,36.64-3.76,12.01-9.59,12.56-34.15,12.56-41.65,0-65.91-53.62-119.53-119.54-119.53s-119.53,53.62-119.53,119.53,53.62,119.53,119.53,119.53c21.94,0,43.39-5.99,62.03-17.33,4.81-2.93,11.08-1.4,14,3.41,2.93,4.81,1.4,11.08-3.41,14-21.83,13.28-46.94,20.3-72.62,20.3-77.14,0-139.91-62.76-139.91-139.91s62.77-139.91,139.91-139.91,139.92,62.76,139.92,139.91c0,8.22-.72,16.45-2.14,24.48-.57,3.24-7.15,44.7-51.97,44.7Z"/>
</svg>