<?xml version="1.0" encoding="UTF-8"?>
<svg id="Layer_1" data-name="Layer 1" xmlns="http://www.w3.org/2000/svg" viewBox="0 0 500 500">
  <defs>
    <style>
      .cls-1 {
        stroke-width: 0px;
      }
    </style>
  </defs>
  <path class="cls-1" d="m244.35,306.62c-.85,1.34-1.85,2.59-2.99,3.74l-12.77,12.77-84.42,84.42c-4.13,4.12-9.72,6.44-15.56,6.44s-11.43-2.32-15.56-6.44l-10.27-10.28c-8.6-8.6-8.6-22.53,0-31.12l97.18-97.18c1.01-1.01,2.09-1.9,3.23-2.67,9.19,17.34,23.61,31.49,41.16,40.32Z"/>
  <path class="cls-1" d="m369.47,139.45c-22.05-22.05-51.36-34.19-82.54-34.19s-60.49,12.14-82.54,34.19c-22.05,22.04-34.19,51.36-34.19,82.54,0,21.52,5.78,42.15,16.62,60.12,4.86,8.07,10.74,15.59,17.57,22.42,7.33,7.33,15.46,13.56,24.2,18.6,17.54,10.17,37.52,15.59,58.34,15.59,31.18,0,60.49-12.15,82.54-34.19,22.05-22.05,34.19-51.36,34.19-82.54s-12.14-60.5-34.19-82.54Zm-82.54,177.27c-15.31,0-29.78-3.64-42.58-10.1-17.55-8.83-31.97-22.98-41.16-40.32-7.02-13.22-10.99-28.3-10.99-44.31,0-52.32,42.41-94.73,94.73-94.73s94.73,42.41,94.73,94.73-42.41,94.73-94.73,94.73Z"/>
</svg>