<?xml version="1.0" encoding="UTF-8"?>
<svg id="Layer_1" data-name="Layer 1" xmlns="http://www.w3.org/2000/svg" viewBox="0 0 500 500">
  <defs>
    <style>
      .cls-1 {
        fill: #1d1d1b;
        stroke-width: 0px;
      }
    </style>
  </defs>
  <path class="cls-1" d="m392.41,319.95l-.03-.05c-2.05-2.89-5.11-4.91-8.57-5.65l-55.81-12c-5.94-1.28-12.06,1.37-15.16,6.6-4.26,7.2-6.23,15.53-5.72,23.82.35,5.67-5.06,9.91-10.54,8.42-24.07-6.54-50.12-23.6-71.55-45.03-20.81-20.8-37.5-45.97-44.44-69.44-1.6-5.42,2.59-10.67,8.23-10.65.04,0,.07,0,.11,0,8.31,0,16.7-2.48,23.98-7.64.03-.02.06-.04.09-.06,4.98-3.55,6.86-10.07,4.9-15.85l-21.56-63.6c-1.69-4.98-5.99-8.67-11.2-9.45-10.25-1.54-21.09.72-30.19,7.17-2.43,1.72-4.61,3.66-6.56,5.77-26.35,27.22-34.77,64.9-23.67,106.33,8.94,33.38,30.22,68.12,59.91,97.81,29.69,29.69,64.43,50.97,97.81,59.91,11.93,3.2,23.54,4.78,34.69,4.77,28.16,0,53.32-10.08,72.88-29.64l-.19-.19c12.31-14.14,13.88-35.39,2.57-51.34Z"/>
</svg>