<?xml version="1.0" encoding="UTF-8"?>
<svg id="Layer_1" data-name="Layer 1" xmlns="http://www.w3.org/2000/svg" viewBox="0 0 500 500">
  <defs>
    <style>
      .cls-1 {
        stroke-width: 0px;
      }
    </style>
  </defs>
  <path class="cls-1" d="m249.78,242.92l-48.91-51.38,37.68-35.67-20.26-21.5,25.93-27.88-6.06-8.92c-10.18-15-28.97-25.32-50.26-27.6-20.68-2.22-39.85,3.46-52.58,15.57l-91.6,87.21,21.14,21.45c5.09,5.16,5.06,13.54-.06,18.67l-23.77,23.86,53.18,55.73,56.04-53.03,51.43,54.02,18.69,19.64,48.11-50.53-18.7-19.64Zm-154.59,11.34l-16.34-17.12,5.14-5.15c15.56-15.62,15.63-41.1.16-56.8l-1.8-1.83,71.65-68.21c6.85-6.52,18.44-9.6,31.01-8.26,8.91.96,17.14,4.01,23.31,8.44l-27.13,29.17,19.12,20.28-105.12,99.48Zm266.16,105.86l-63.46-66.67-18.7-19.63-48.1,50.53,18.69,19.63,61.1,64.18c10.78,11.33,28.7,11.77,40.02.99l9.47-9.01c11.32-10.78,11.76-28.7.98-40.02Z"/>
  <path class="cls-1" d="m433.8,142.55c-.02-.06-.1-.07-.15-.03l-44.64,47.05-41.63-39.5,44.79-47.19s.02-.13-.04-.15c-9.65-3.71-20.27-5.5-31.38-4.83-38.38,2.33-69.03,34.06-70.06,72.5-.24,8.96,1.12,17.57,3.78,25.58l-44.69,46.94-48.1,50.53-63.46,66.67c-10.78,11.32-10.34,29.24.98,40.02l9.47,9.01c5.48,5.21,12.5,7.8,19.51,7.8,7.48,0,14.94-2.94,20.51-8.79l61.09-64.18,48.11-50.53,46.83-49.19c7.25,2.08,14.96,3.09,22.94,2.85,38.87-1.16,70.67-32.58,72.32-71.43.5-11.82-1.77-23.05-6.18-33.13Zm-154.61,131.27l-48.1,50.53-62.02,65.14c-.11.12-.36.38-.89.38-.49,0-.73-.23-.84-.34l-9.47-9.01c-.49-.46-.51-1.24-.04-1.73l62.54-65.7,48.11-50.53,39.86-41.88c3.35,3.96,7.11,7.56,11.21,10.75l-40.36,42.39Z"/>
</svg>