<?xml version="1.0" encoding="UTF-8"?>
<!-- Generated by Pixelmator Pro 3.6.18 -->
<svg width="20" height="20" viewBox="0 0 20 20" xmlns="http://www.w3.org/2000/svg">
    <g id="Frame-1966">
        <path id="Telegram" fill="#ffffff" fill-rule="evenodd" stroke="none" d="M 1.3743 8.74917 C 6.74306 6.208691 10.3232 4.53424 12.1144 3.725019 C 17.229 1.41494 18.291599 1.01333 18.9841 1.00013 C 19.1366 0.997332 19.4769 1.03813 19.697901 1.23254 C 19.8843 1.39654 19.935499 1.618549 19.960199 1.77416 C 19.9848 1.92976 20.0154 2.284571 19.9911 2.56138 C 19.7141 5.72388 18.514799 13.3985 17.904499 16.940599 C 17.646299 18.439501 17.138 18.9419 16.645901 18.9911 C 15.5763 19.0979 14.7645 18.223499 13.7284 17.4862 C 12.1074 16.332199 11.1917 15.6142 9.6186 14.4882 C 7.80016 13.1869 8.97918 12.4717 10.0153 11.3029 C 10.2864 10.9968 14.9988 6.3423 15.0898 5.91988 C 15.1012 5.867081 15.1119 5.67028 15.0039 5.56627 C 14.896 5.46227 14.7373 5.497869 14.6227 5.52627 C 14.4603 5.56627 11.8709 7.42513 6.85466 11.1024 C 6.11985 11.6505 5.45391 11.9177 4.85759 11.9037 C 4.20012 11.8881 2.93528 11.5001 1.99494 11.168 C 0.8417 10.7608 -0.07507 10.5456 0.004857 9.85401 C 0.046478 9.494 0.503206 9.12558 1.37504 8.74917 L 1.3743 8.74917 Z"/>
    </g>
</svg>
