<?xml version="1.0" encoding="UTF-8"?>
<svg id="Layer_1" data-name="Layer 1" xmlns="http://www.w3.org/2000/svg" viewBox="0 0 500 500">
  <defs>
    <style>
      .cls-1 {
        fill: #1d1d1b;
        stroke-width: 0px;
      }
    </style>
  </defs>
  <path class="cls-1" d="m250,61.32l-145.47,46.44v191.33c0,44.37,24.65,85.87,71.3,120.02,33.86,24.78,67.38,37.09,68.79,37.6l5.38,1.96,5.38-1.96c1.41-.51,34.93-12.82,68.78-37.6,46.65-34.15,71.31-75.65,71.31-120.02V107.76l-145.47-46.44Zm113.93,237.77c0,73.08-90.66,116-113.93,125.81-23.3-9.82-113.93-52.74-113.93-125.81v-168.3l113.93-36.37,113.93,36.37v168.3Z"/>
  <path class="cls-1" d="m250,162.66c-49.65,0-89.9,40.24-89.9,89.89s40.25,89.9,89.9,89.9,89.9-40.25,89.9-89.9-40.25-89.89-89.9-89.89Zm-1.83,125.07c-3.56,3.84-9.62,3.81-13.15-.03l-33.81-36.84,14.1-12.94,26.35,28.72,45.37-48.78,14.01,13.03-52.87,56.84Z"/>
</svg>