<?xml version="1.0" encoding="UTF-8" standalone="no"?>
<!-- Created with Inkscape (http://www.inkscape.org/) -->

<svg
   width="107.86798mm"
   height="51.143959mm"
   viewBox="0 0 107.86798 51.143959"
   version="1.1"
   id="svg1"
   xmlns="http://www.w3.org/2000/svg"
   xmlns:svg="http://www.w3.org/2000/svg">
  <defs
     id="defs1" />
  <g
     id="layer1"
     transform="translate(-105.83333,-111.65416)">
    <g
       id="g91"
       transform="matrix(0.26458333,0,0,0.26458333,95.787104,3.2649567)">
      <path
         class="cls-1"
         d="m 400.21,457.21 h 41.54 c 1.89,0 3.41,-1.53 3.41,-3.41 v -40.23 c 0,-1.89 -1.53,-3.41 -3.41,-3.41 h -62.53 c -14.1,0 -27.22,4.08 -38.33,11.07 -2.28,1.44 -5.24,-0.16 -5.24,-2.85 v -4.14 c 0,-2.56 -1.53,-4.08 -3.41,-4.08 h -45.21 c -3.45,0 -6.75,1.42 -9.12,3.93 l -52.85,55.86 c -2.12,2.24 -5.89,0.74 -5.89,-2.35 v -54.03 c 0,-1.89 -1.53,-3.41 -3.41,-3.41 h -47.2 c -1.89,0 -3.41,1.53 -3.41,3.41 v 62.02 c 0,3.12 -3.76,4.53 -5.94,2.29 -8.22,-8.44 -19.69,-13.7 -32.41,-13.7 H 95.94 c -1.89,0 -3.41,-1.53 -3.41,-3.41 v -12.93 c 0,-1.89 1.53,-3.41 3.41,-3.41 h 57.66 c 1.89,0 3.41,-1.53 3.41,-3.41 v -27.45 c 0,-1.89 -1.53,-3.41 -3.41,-3.41 H 41.88 c -1.89,0 -3.41,1.53 -3.41,3.41 v 105.18 0 80.3 c 0,1.89 1.53,3.41 3.41,3.41 h 399.86 c 1.89,0 3.41,-1.53 3.41,-3.41 v -87.87 c 0,-1.89 -1.53,-3.41 -3.41,-3.41 H 400.2 c -43.28,0 -42.38,-50.55 0,-50.55 z M 278.2,518.74 h -17.01 c -3,0 -4.54,-3.58 -2.48,-5.76 L 275.72,495 c 2.12,-2.24 5.89,-0.74 5.89,2.35 v 17.98 c 0,1.89 -1.53,3.41 -3.41,3.41 z"
         id="path61"
         style="fill:#fff;stroke:#1d1d1b;stroke-miterlimit:10" />
    </g>
  </g>
</svg>
