<?xml version="1.0" encoding="UTF-8" standalone="no"?>
<!-- Created with Inkscape (http://www.inkscape.org/) -->

<svg
   width="2798.6455mm"
   height="1927.1927mm"
   viewBox="0 0 2798.6454 1927.1928"
   version="1.1"
   id="svg1"
   xmlns:xlink="http://www.w3.org/1999/xlink"
   xmlns="http://www.w3.org/2000/svg"
   xmlns:svg="http://www.w3.org/2000/svg">
  <defs
     id="defs1">
    <linearGradient
       id="linearGradient1">
      <stop
         style="stop-color:#ff6600;stop-opacity:1"
         offset="0"
         id="stop1" />
      <stop
         style="stop-color:#ffb380;stop-opacity:1"
         offset="1"
         id="stop2" />
    </linearGradient>
    <linearGradient
       xlink:href="#linearGradient1"
       id="linearGradient4"
       x1="105.84528"
       y1="173.7654"
       x2="105.84528"
       y2="123.29232"
       gradientUnits="userSpaceOnUse" />
    <linearGradient
       xlink:href="#linearGradient1"
       id="linearGradient5"
       gradientUnits="userSpaceOnUse"
       x1="105.84528"
       y1="173.7654"
       x2="105.84528"
       y2="123.29232" />
    <linearGradient
       xlink:href="#linearGradient1"
       id="linearGradient6"
       gradientUnits="userSpaceOnUse"
       x1="105.84528"
       y1="173.7654"
       x2="105.84528"
       y2="123.29232" />
  </defs>
  <g
     id="layer1"
     transform="matrix(26.005016,-0.00773581,0.00773581,26.005016,-1328.894,-3198.2092)"
     style="fill:url(#linearGradient4);fill-opacity:1">
    <g
       id="g31"
       transform="matrix(0.26458333,0,0,0.26458333,40.886062,93.405854)"
       style="fill:url(#linearGradient6);fill-opacity:1">
      <path
         class="cls-4"
         d="m 400.21,159.02 h 41.54 c 1.89,0 3.41,-1.53 3.41,-3.41 v -40.23 c 0,-1.89 -1.53,-3.41 -3.41,-3.41 h -62.53 c -14.1,0 -27.22,4.08 -38.33,11.07 -2.28,1.44 -5.24,-0.16 -5.24,-2.85 v -4.14 c 0,-2.56 -1.53,-4.08 -3.41,-4.08 h -45.21 c -3.45,0 -6.75,1.42 -9.12,3.93 l -52.85,55.86 c -2.12,2.24 -5.89,0.74 -5.89,-2.35 v -54.03 c 0,-1.89 -1.53,-3.41 -3.41,-3.41 h -47.2 c -1.89,0 -3.41,1.53 -3.41,3.41 v 62.02 c 0,3.12 -3.76,4.53 -5.94,2.29 -8.22,-8.44 -19.69,-13.7 -32.41,-13.7 H 95.94 c -1.89,0 -3.41,-1.53 -3.41,-3.41 v -12.93 c 0,-1.89 1.53,-3.41 3.41,-3.41 h 57.66 c 1.89,0 3.41,-1.53 3.41,-3.41 v -27.45 c 0,-1.89 -1.53,-3.41 -3.41,-3.41 H 41.88 c -1.89,0 -3.41,1.53 -3.41,3.41 v 105.18 0 80.3 c 0,1.89 1.53,3.41 3.41,3.41 h 399.86 c 1.89,0 3.41,-1.53 3.41,-3.41 v -87.87 c 0,-1.89 -1.53,-3.41 -3.41,-3.41 H 400.2 c -43.28,0 -42.38,-50.55 0,-50.55 z M 278.2,220.55 h -17.01 c -3,0 -4.54,-3.58 -2.48,-5.76 l 17.01,-17.98 c 2.12,-2.24 5.89,-0.74 5.89,2.35 v 17.98 c 0,1.89 -1.53,3.41 -3.41,3.41 z"
         id="path1"
         style="fill:url(#linearGradient5);fill-opacity:1;stroke-width:0px" />
    </g>
  </g>
  <rect
     style="fill:#ff6600;stroke:none;stroke-width:0;stroke-dasharray:none;stroke-opacity:1"
     id="rect6"
     width="2798.6455"
     height="637.70129"
     x="0"
     y="1289.4915" />
</svg>
