<svg width="187" height="31" viewBox="0 0 187 31" fill="none" xmlns="http://www.w3.org/2000/svg">
<path d="M0 8.00002C0 3.85788 3.35787 0.5 7.50002 0.5H23.9094V15.5H7.50001C3.35787 15.5 0 12.1422 0 8.00002Z" fill="#FFB306"/>
<path d="M30 23C30 27.1421 26.6421 30.5 22.5 30.5L6.40414 30.5L6.40414 15.5L22.5 15.5C26.6421 15.5 30 18.8578 30 23Z" fill="#0DB25A"/>
<path d="M15 23C15 27.1421 11.6421 30.5 7.49998 30.5L6.00815e-05 30.5L6.07687e-05 22.6386C6.11134e-05 18.696 3.19615 15.5 7.13872 15.5L7.49998 15.5C11.6421 15.5 15 18.8578 15 23Z" fill="#0067A0"/>
<path d="M15 8.00002C15 3.85788 18.3579 0.5 22.5 0.5L29.9999 0.5V8.36138C29.9999 12.304 26.8039 15.5 22.8613 15.5H22.5C18.3579 15.5 15 12.1422 15 8.00002Z" fill="#FF6701"/>
<path d="M174.096 27.6301C173.043 27.6301 172.047 27.4878 171.108 27.2033C170.17 26.9188 169.33 26.5063 168.591 25.9657C167.851 25.3967 167.254 24.6997 166.798 23.8746C166.372 23.0211 166.158 22.0254 166.158 20.8874C166.158 19.4364 166.443 18.2557 167.012 17.3453C167.581 16.4064 168.349 15.6952 169.316 15.2115C170.312 14.7279 171.436 14.4007 172.687 14.23C173.939 14.0308 175.248 13.9313 176.614 13.9313H181.009C181.009 12.9355 180.853 12.082 180.54 11.3707C180.227 10.631 179.729 10.0478 179.046 9.62105C178.392 9.1943 177.538 8.98092 176.485 8.98092C175.803 8.98092 175.163 9.06627 174.565 9.23697C173.996 9.37922 173.498 9.62105 173.072 9.96246C172.673 10.2754 172.389 10.6879 172.218 11.2H166.884C167.083 10.0336 167.481 9.03782 168.079 8.21276C168.704 7.35925 169.458 6.66222 170.34 6.12167C171.251 5.58111 172.246 5.18281 173.328 4.92675C174.409 4.64225 175.504 4.5 176.614 4.5C179.885 4.5 182.261 5.43886 183.74 7.31658C185.248 9.1943 186.002 11.8259 186.002 15.2115V27.3314H181.393L181.265 24.4294C180.611 25.3967 179.828 26.108 178.918 26.5632C178.008 27.0184 177.126 27.3029 176.272 27.4167C175.419 27.559 174.693 27.6301 174.096 27.6301ZM175.12 23.4052C176.258 23.4052 177.268 23.1918 178.15 22.7651C179.032 22.3383 179.729 21.7409 180.241 20.9727C180.781 20.2046 181.052 19.3226 181.052 18.3268V17.6014H176.955C176.272 17.6014 175.589 17.6298 174.907 17.6867C174.252 17.7152 173.655 17.829 173.114 18.0281C172.574 18.1988 172.133 18.4691 171.791 18.8389C171.478 19.2088 171.322 19.7351 171.322 20.4179C171.322 21.1007 171.493 21.6555 171.834 22.0823C172.204 22.509 172.673 22.8362 173.242 23.0638C173.84 23.2914 174.466 23.4052 175.12 23.4052Z" fill="#102938"/>
<path d="M150.893 27.3314V4.8414H155.629L155.928 7.78601C156.497 6.9325 157.137 6.27814 157.849 5.82294C158.588 5.33928 159.371 4.99788 160.196 4.79873C161.049 4.59958 161.903 4.5 162.756 4.5C163.069 4.5 163.354 4.5 163.61 4.5C163.894 4.5 164.122 4.51422 164.292 4.54267V9.49302H162.927C161.447 9.49302 160.196 9.77753 159.171 10.3465C158.147 10.9155 157.379 11.7264 156.867 12.779C156.355 13.8317 156.099 15.1262 156.099 16.6625V27.3314H150.893Z" fill="#102938"/>
<path d="M136.886 27.6301C134.553 27.6301 132.561 27.1464 130.911 26.1791C129.29 25.2118 128.052 23.8746 127.199 22.1676C126.373 20.4322 125.961 18.4264 125.961 16.1504C125.961 13.8744 126.388 11.8686 127.241 10.1332C128.123 8.36924 129.375 6.9894 130.997 5.99364C132.647 4.99788 134.624 4.5 136.928 4.5C138.635 4.5 140.129 4.81295 141.409 5.43886C142.689 6.03632 143.756 6.86137 144.61 7.91403C145.492 8.96669 146.146 10.1616 146.573 11.4988C147 12.8359 147.199 14.2442 147.17 15.7236C147.142 16.065 147.113 16.4064 147.085 16.7479C147.056 17.0608 147.014 17.4022 146.957 17.7721H131.167C131.253 18.7678 131.509 19.6782 131.935 20.5033C132.391 21.3283 133.016 21.9827 133.813 22.4664C134.638 22.95 135.662 23.1918 136.886 23.1918C137.597 23.1918 138.28 23.1065 138.934 22.9358C139.588 22.7366 140.157 22.4521 140.641 22.0823C141.153 21.7124 141.495 21.243 141.665 20.674H146.872C146.502 22.2957 145.819 23.6186 144.823 24.6428C143.827 25.667 142.633 26.4209 141.238 26.9046C139.873 27.3883 138.422 27.6301 136.886 27.6301ZM131.253 13.8886H142.092C142.092 12.9497 141.879 12.0962 141.452 11.3281C141.025 10.5599 140.413 9.96246 139.617 9.5357C138.849 9.0805 137.91 8.85289 136.8 8.85289C135.605 8.85289 134.61 9.09472 133.813 9.57838C133.016 10.062 132.405 10.6879 131.978 11.4561C131.551 12.2243 131.309 13.0351 131.253 13.8886Z" fill="#102938"/>
<path d="M95.305 27.3318L88.2637 4.8418H94.0248L98.5483 21.6132L103.371 4.8418H109.516L114.338 21.6132L118.819 4.8418H124.494L117.453 27.3318H111.223L106.358 11.1151L101.536 27.3318H95.305Z" fill="#102938"/>
<path d="M76.5614 27.6301C74.2286 27.6301 72.2371 27.1464 70.587 26.1791C68.9653 25.2118 67.7278 23.8746 66.8743 22.1676C66.0492 20.4322 65.6367 18.4264 65.6367 16.1504C65.6367 13.8744 66.0635 11.8686 66.917 10.1332C67.7989 8.36924 69.0507 6.9894 70.6723 5.99364C72.3224 4.99788 74.2997 4.5 76.6041 4.5C78.3111 4.5 79.8047 4.81295 81.085 5.43886C82.3652 6.03632 83.4321 6.86137 84.2856 7.91403C85.1675 8.96669 85.8219 10.1616 86.2486 11.4988C86.6753 12.8359 86.8745 14.2442 86.846 15.7236C86.8176 16.065 86.7891 16.4064 86.7607 16.7479C86.7322 17.0608 86.6896 17.4022 86.6327 17.7721H70.843C70.9284 18.7678 71.1844 19.6782 71.6112 20.5033C72.0664 21.3283 72.6923 21.9827 73.4889 22.4664C74.3139 22.95 75.3381 23.1918 76.5614 23.1918C77.2727 23.1918 77.9555 23.1065 78.6098 22.9358C79.2642 22.7366 79.8332 22.4521 80.3168 22.0823C80.8289 21.7124 81.1703 21.243 81.341 20.674H86.5473C86.1775 22.2957 85.4947 23.6186 84.4989 24.6428C83.5032 25.667 82.3083 26.4209 80.9143 26.9046C79.5487 27.3883 78.0977 27.6301 76.5614 27.6301ZM70.9284 13.8886H81.7678C81.7678 12.9497 81.5544 12.0962 81.1276 11.3281C80.7009 10.5599 80.0892 9.96246 79.2926 9.5357C78.5245 9.0805 77.5856 8.85289 76.4761 8.85289C75.2812 8.85289 74.2855 9.09472 73.4889 9.57838C72.6923 10.062 72.0806 10.6879 71.6539 11.4561C71.2271 12.2243 70.9853 13.0351 70.9284 13.8886Z" fill="#102938"/>
<path d="M53.741 27.6301C52.6599 27.6301 51.5788 27.5163 50.4977 27.2887C49.445 27.0611 48.4493 26.6912 47.5105 26.1791C46.5716 25.6386 45.7892 24.9131 45.1633 24.0027C44.5375 23.0923 44.1249 21.9543 43.9258 20.5886H49.1748C49.4024 21.2145 49.758 21.7267 50.2416 22.125C50.7537 22.4948 51.337 22.7793 51.9913 22.9785C52.6741 23.1492 53.3427 23.2345 53.997 23.2345C54.3953 23.2345 54.8221 23.2061 55.2773 23.1492C55.7609 23.0923 56.2019 22.9785 56.6002 22.8078C57.0269 22.6371 57.3683 22.3952 57.6244 22.0823C57.8804 21.7409 58.0084 21.2999 58.0084 20.7593C58.0084 20.2472 57.8662 19.8489 57.5817 19.5644C57.2972 19.2515 56.9131 19.0096 56.4295 18.8389C55.9458 18.6398 55.3626 18.4833 54.6798 18.3695C53.4565 18.1135 52.1478 17.8432 50.7537 17.5587C49.3597 17.2457 48.1506 16.7621 47.1264 16.1077C46.6996 15.8517 46.3298 15.5529 46.0168 15.2115C45.7039 14.8701 45.4336 14.5003 45.206 14.102C45.0069 13.6752 44.8504 13.22 44.7366 12.7364C44.6513 12.2527 44.6086 11.7264 44.6086 11.1574C44.6086 9.96246 44.8504 8.95247 45.334 8.12741C45.8461 7.2739 46.5147 6.5911 47.3398 6.07899C48.1933 5.53844 49.1605 5.14013 50.2416 4.88408C51.3227 4.62803 52.4323 4.5 53.5703 4.5C55.1066 4.5 56.5006 4.74183 57.7524 5.22548C59.0042 5.70914 60.0426 6.44884 60.8676 7.4446C61.7211 8.44036 62.2332 9.7064 62.4039 11.2427H57.4537C57.3114 10.5315 56.8704 9.96246 56.1307 9.5357C55.4195 9.10895 54.5091 8.89557 53.3996 8.89557C53.0013 8.89557 52.5887 8.93824 52.162 9.0236C51.7353 9.0805 51.3227 9.1943 50.9244 9.365C50.5546 9.50725 50.2416 9.73485 49.9856 10.0478C49.758 10.3608 49.6442 10.7448 49.6442 11.2C49.6442 11.6268 49.7438 11.9967 49.9429 12.3096C50.1705 12.6226 50.4977 12.8928 50.9244 13.1204C51.3796 13.3196 51.906 13.4903 52.5034 13.6325C53.4707 13.8317 54.4807 14.0308 55.5333 14.23C56.5859 14.4292 57.4963 14.6283 58.2645 14.8275C59.1749 15.0835 59.9999 15.4534 60.7396 15.937C61.4793 16.3922 62.0483 17.0039 62.4466 17.7721C62.8733 18.5118 63.0867 19.4649 63.0867 20.6313C63.0867 21.9969 62.8022 23.1349 62.2332 24.0453C61.6927 24.9558 60.9672 25.667 60.0568 26.1791C59.1464 26.6912 58.1365 27.0611 57.0269 27.2887C55.9174 27.5163 54.8221 27.6301 53.741 27.6301Z" fill="#102938"/>
</svg>
