<?xml version="1.0" encoding="UTF-8" standalone="no"?>
<!-- Created with Inkscape (http://www.inkscape.org/) -->

<svg
   width="140.30618mm"
   height="66.525429mm"
   viewBox="0 0 140.30618 66.525429"
   version="1.1"
   id="svg1"
   inkscape:version="1.3.2 (091e20e, 2023-11-25, custom)"
   sodipodi:docname="logo-v4.svg"
   xmlns:inkscape="http://www.inkscape.org/namespaces/inkscape"
   xmlns:sodipodi="http://sodipodi.sourceforge.net/DTD/sodipodi-0.dtd"
   xmlns="http://www.w3.org/2000/svg"
   xmlns:svg="http://www.w3.org/2000/svg">
  <sodipodi:namedview
     id="namedview1"
     pagecolor="#ffffff"
     bordercolor="#000000"
     borderopacity="0.25"
     inkscape:showpageshadow="2"
     inkscape:pageopacity="0.0"
     inkscape:pagecheckerboard="0"
     inkscape:deskcolor="#d1d1d1"
     inkscape:document-units="mm"
     inkscape:zoom="1.4778115"
     inkscape:cx="267.62547"
     inkscape:cy="280.48232"
     inkscape:window-width="3440"
     inkscape:window-height="1369"
     inkscape:window-x="-8"
     inkscape:window-y="-8"
     inkscape:window-maximized="1"
     inkscape:current-layer="g61" />
  <defs
     id="defs1" />
  <g
     inkscape:label="Слой 1"
     inkscape:groupmode="layer"
     id="layer1"
     transform="translate(-99.218912,-94.68506)">
    <g
       id="g61"
       transform="matrix(0.26458326,0,0,0.26458338,-37.189779,80.57354)">
      <path
         style="color:#000000;fill:#ea5b0c;stroke-width:1.30075;stroke-miterlimit:10;-inkscape-stroke:none"
         d="m 520.6467,53.335169 c -2.80943,0 -5.08615,2.290187 -5.08615,5.086159 V 195.2343 299.68337 c 0,2.80942 2.29017,5.08616 5.08615,5.08616 h 520.119 c 2.8094,0 5.0861,-2.29017 5.0861,-5.08616 v -114.2962 c 0,-2.8094 -2.2902,-5.08614 -5.0861,-5.08614 h -54.03471 c -27.89509,0 -41.27436,-16.15068 -41.13129,-32.22163 0.14306,-16.07094 13.82691,-32.23178 41.13129,-32.23178 h 2.75648 l -0.0254,-0.013 h 51.27823 c 2.8094,0 5.0861,-2.29017 5.0861,-5.08616 V 58.421029 c 0,-2.809422 -2.2901,-5.086159 -5.0861,-5.086159 h -81.33789 c -18.46608,0 -35.65339,5.344424 -50.20355,14.498849 -2.56693,1.621222 -5.81782,-0.135968 -5.81782,-3.157894 V 59.29243 c 0,-3.589055 -2.29019,-5.95756 -5.08616,-5.95756 h -58.80834 c -4.66606,0 -9.12868,1.919823 -12.3343,5.314806 l -68.74692,72.659354 c -1.1965,1.26277 -2.8034,1.45177 -4.15124,0.91458 -1.34848,-0.53744 -2.38556,-1.77856 -2.38556,-3.52372 V 58.421029 c 0,-2.809422 -2.29019,-5.086159 -5.08616,-5.086159 h -61.39714 c -2.80942,0 -5.08361,2.290187 -5.08361,5.086159 v 80.672191 c 0,1.76791 -1.0316,2.98029 -2.38302,3.49578 -1.35143,0.51549 -2.98755,0.30355 -4.22745,-0.97048 -10.80895,-11.09825 -25.90026,-18.01749 -42.62514,-18.01749 h -40.14047 c -2.10743,0 -3.7854,-1.69054 -3.7854,-3.78539 v -16.81836 c 0,-2.10743 1.69055,-3.785403 3.7854,-3.785403 h 75.00173 c 2.80942,0 5.08614,-2.290174 5.08614,-5.086146 V 58.421029 c 0,-2.809422 -2.29017,-5.086159 -5.08614,-5.086159 z m 0,1.300755 h 145.28059 c 2.09485,0 3.78539,1.677973 3.78539,3.785404 V 94.12603 c 0,2.094852 -1.67798,3.785391 -3.78539,3.785391 h -75.00173 c -2.79597,0 -5.08616,2.276739 -5.08616,5.086159 v 16.81836 c 0,2.79597 2.27674,5.08614 5.08616,5.08614 h 40.14047 c 16.36629,0 31.11732,6.76523 41.69275,17.62371 1.59574,1.63965 3.82184,1.96559 5.62475,1.27788 1.8029,-0.68769 3.21886,-2.41971 3.21886,-4.71015 V 58.421328 c 0,-2.094865 1.67543,-3.785404 3.78286,-3.785404 h 61.39714 c 2.09487,0 3.78541,1.677973 3.78541,3.785404 v 70.278862 c 0,2.27417 1.41332,4.01848 3.20615,4.73302 1.79283,0.71453 4.01556,0.41965 5.57648,-1.22962 l 68.74691,-72.659346 c 2.95996,-3.134793 7.0801,-4.90832 11.38923,-4.90832 h 58.80834 c 2.09487,0 3.78541,1.58601 3.78541,4.656806 v 5.383394 c 0,3.976134 4.44765,6.382881 7.81215,4.257943 14.35258,-9.030113 31.2948,-14.298143 49.50997,-14.298143 h 81.33786 c 2.0948,0 3.7853,1.677973 3.7853,3.785404 v 52.327422 c 0,2.09487 -1.6779,3.78541 -3.7853,3.78541 h -56.78866 l 0.39124,0.19562 c -26.18484,0.97197 -39.89888,17.04557 -40.04393,33.33946 -0.14961,16.80559 14.03053,33.53254 42.43204,33.53254 h 54.03471 c 2.0948,0 3.7854,1.67798 3.7854,3.78539 v 114.2962 c 0,2.09487 -1.678,3.78541 -3.7854,3.78541 h -520.119 c -2.09486,0 -3.7854,-1.67798 -3.7854,-3.78541 V 195.2343 58.421328 c 0,-2.094865 1.67798,-3.785404 3.7854,-3.785404 z M 827.00492,162.39278 c -0.97527,0.19032 -1.92267,0.67683 -2.70313,1.50147 l -22.12554,23.38818 c -1.5174,1.60579 -1.72715,3.77853 -0.98065,5.51296 0.74652,1.73441 2.46984,3.07658 4.67968,3.07658 h 22.12553 c 2.79598,0 5.08615,-2.27673 5.08615,-5.08616 v -23.38816 c 0,-2.27418 -1.41332,-4.01849 -3.20615,-4.73303 -0.89642,-0.35727 -1.90061,-0.46215 -2.87589,-0.27184 z m 0.26167,1.26265 c 0.71977,-0.13773 1.45727,-0.0502 2.13151,0.21848 1.34849,0.53745 2.3881,1.77857 2.3881,3.52374 v 23.38816 c 0,2.10743 -1.69053,3.78541 -3.78539,3.78541 h -22.12553 c -1.69243,0 -2.92233,-0.98873 -3.48307,-2.29157 -0.56076,-1.30283 -0.43303,-2.87565 0.72912,-4.1055 l 22.12554,-23.38564 c 0.59833,-0.6322 1.29995,-0.99535 2.01972,-1.13308 z"
         id="path31" />
      <g
         id="g46">
        <path
           class="cls-5"
           d="m 539.06,279.54 c -0.6,0.57 -1.77,0.97 -3.5,1.21 -0.98,0.14 -1.75,0.56 -2.33,1.26 -0.57,0.71 -0.9,1.67 -0.98,2.88 0.32,-0.58 0.79,-1.04 1.4,-1.39 0.61,-0.35 1.28,-0.52 2,-0.52 1.09,0 2.01,0.4 2.75,1.19 0.74,0.79 1.11,1.77 1.11,2.94 0,1.17 -0.42,2.25 -1.26,3.07 -0.84,0.82 -1.9,1.23 -3.17,1.23 -0.86,0 -1.65,-0.2 -2.36,-0.59 -0.71,-0.39 -1.25,-0.94 -1.63,-1.65 -0.47,-0.9 -0.7,-2.05 -0.7,-3.46 0,-1.97 0.42,-3.5 1.27,-4.61 0.85,-1.11 2.06,-1.77 3.63,-2 1.44,-0.22 2.39,-0.53 2.83,-0.94 l 0.96,1.37 z m -6.64,7.53 c 0,0.68 0.26,1.27 0.79,1.75 0.53,0.48 1.16,0.73 1.9,0.73 0.74,0 1.31,-0.23 1.79,-0.68 0.48,-0.46 0.72,-1.02 0.72,-1.71 0,-0.69 -0.25,-1.25 -0.73,-1.69 -0.49,-0.44 -1.11,-0.67 -1.86,-0.67 -0.75,0 -1.37,0.22 -1.87,0.65 -0.5,0.43 -0.74,0.97 -0.74,1.62 z"
           id="path32"
           style="fill:#1d1d1b;stroke-width:0px" />
        <path
           class="cls-5"
           d="m 542.04,288.87 c 0.23,-0.26 0.35,-0.6 0.35,-1.01 v -5.29 h 6.48 v 8.53 h -1.88 v -6.69 h -2.73 v 3.69 c 0,0.82 -0.28,1.53 -0.84,2.12 -0.56,0.59 -1.29,0.89 -2.19,0.89 h -0.58 v -1.84 h 0.41 c 0.42,0 0.75,-0.13 0.98,-0.39 z"
           id="path33"
           style="fill:#1d1d1b;stroke-width:0px" />
        <path
           class="cls-5"
           d="m 555.74,287.42 -2.1,0.27 c -0.9,0.1 -1.35,0.43 -1.35,0.99 0,0.31 0.12,0.54 0.37,0.71 0.25,0.17 0.58,0.25 1.02,0.25 0.63,0 1.13,-0.17 1.5,-0.52 0.38,-0.35 0.56,-0.8 0.56,-1.36 h 0.6 c 0,1.01 -0.3,1.85 -0.91,2.53 -0.61,0.67 -1.37,1.01 -2.3,1.01 -0.8,0 -1.45,-0.23 -1.95,-0.69 -0.51,-0.46 -0.76,-1.05 -0.76,-1.78 0,-0.73 0.25,-1.34 0.76,-1.83 0.51,-0.49 1.19,-0.79 2.04,-0.89 l 2.53,-0.29 v -0.19 c 0,-0.42 -0.17,-0.78 -0.52,-1.08 -0.35,-0.3 -0.77,-0.44 -1.25,-0.44 -0.44,0 -0.84,0.12 -1.19,0.36 -0.35,0.24 -0.57,0.54 -0.67,0.9 l -1.76,-0.58 c 0.23,-0.72 0.67,-1.3 1.32,-1.74 0.65,-0.44 1.39,-0.67 2.21,-0.67 1.01,0 1.89,0.31 2.63,0.93 0.74,0.62 1.11,1.35 1.11,2.19 v 5.6 h -1.88 v -3.69 z"
           id="path34"
           style="fill:#1d1d1b;stroke-width:0px" />
        <path
           class="cls-5"
           d="m 559.49,282.57 h 6.06 v 1.76 h -4.18 v 6.78 h -1.88 v -8.53 z"
           id="path35"
           style="fill:#1d1d1b;stroke-width:0px" />
        <path
           class="cls-5"
           d="m 568.1,290.12 c -0.9,-0.86 -1.36,-1.96 -1.36,-3.29 0,-1.33 0.45,-2.43 1.36,-3.29 0.9,-0.87 2.01,-1.3 3.32,-1.3 1.31,0 2.42,0.43 3.32,1.3 0.9,0.86 1.36,1.96 1.36,3.29 0,1.33 -0.45,2.43 -1.36,3.29 -0.9,0.87 -2.01,1.3 -3.32,1.3 -1.31,0 -2.42,-0.43 -3.32,-1.3 z m 1.33,-5.31 c -0.54,0.52 -0.81,1.2 -0.81,2.01 0,0.81 0.27,1.49 0.81,2.01 0.54,0.52 1.2,0.79 1.99,0.79 0.79,0 1.45,-0.26 1.99,-0.79 0.54,-0.52 0.81,-1.2 0.81,-2.01 0,-0.81 -0.27,-1.49 -0.81,-2.01 -0.54,-0.52 -1.2,-0.79 -1.99,-0.79 -0.79,0 -1.45,0.26 -1.99,0.79 z"
           id="path36"
           style="fill:#1d1d1b;stroke-width:0px" />
        <path
           class="cls-5"
           d="m 586.08,282.57 -4.88,11.95 h -2.05 l 1.4,-3.67 -3.34,-8.28 h 2.01 l 2.42,6.23 2.39,-6.23 z"
           id="path37"
           style="fill:#1d1d1b;stroke-width:0px" />
        <path
           class="cls-5"
           d="m 589.83,284.81 c -0.52,0.52 -0.79,1.2 -0.79,2.01 0,0.81 0.26,1.49 0.79,2.01 0.52,0.52 1.17,0.79 1.93,0.79 0.55,0 1.04,-0.14 1.49,-0.41 0.45,-0.27 0.79,-0.64 1.02,-1.11 l 1.72,0.79 c -0.39,0.77 -0.96,1.39 -1.71,1.84 -0.76,0.45 -1.6,0.68 -2.52,0.68 -1.27,0 -2.36,-0.43 -3.25,-1.3 -0.89,-0.86 -1.34,-1.96 -1.34,-3.29 0,-1.33 0.45,-2.43 1.34,-3.29 0.89,-0.87 1.98,-1.3 3.25,-1.3 0.94,0 1.8,0.23 2.56,0.7 0.76,0.47 1.33,1.1 1.71,1.91 l -1.72,0.8 c -0.22,-0.51 -0.55,-0.91 -1.01,-1.2 -0.46,-0.28 -0.97,-0.43 -1.54,-0.43 -0.76,0 -1.41,0.26 -1.93,0.79 z"
           id="path38"
           style="fill:#1d1d1b;stroke-width:0px" />
        <path
           class="cls-5"
           d="m 604.48,282.57 v 1.76 h -2.73 v 6.78 h -1.88 v -6.78 h -2.73 v -1.76 z"
           id="path39"
           style="fill:#1d1d1b;stroke-width:0px" />
        <path
           class="cls-5"
           d="m 605.93,282.57 h 1.88 v 11.95 h -1.88 z m 2.3,7.55 c -0.77,-0.87 -1.16,-1.96 -1.16,-3.29 0,-1.33 0.39,-2.42 1.16,-3.29 0.77,-0.87 1.73,-1.31 2.87,-1.31 1.14,0 2.18,0.44 2.98,1.31 0.8,0.87 1.2,1.97 1.2,3.28 0,1.31 -0.4,2.4 -1.2,3.28 -0.8,0.88 -1.79,1.31 -2.98,1.31 -1.19,0 -2.09,-0.44 -2.87,-1.31 z m 0.38,-5.29 c -0.54,0.53 -0.81,1.2 -0.81,2 0,0.8 0.27,1.48 0.81,2 0.54,0.53 1.2,0.79 1.99,0.79 0.79,0 1.45,-0.26 1.99,-0.79 0.54,-0.53 0.81,-1.2 0.81,-2 0,-0.8 -0.27,-1.48 -0.81,-2 -0.54,-0.53 -1.2,-0.79 -1.99,-0.79 -0.79,0 -1.45,0.26 -1.99,0.79 z"
           id="path40"
           style="fill:#1d1d1b;stroke-width:0px" />
        <path
           class="cls-5"
           d="m 617.83,290.12 c -0.9,-0.86 -1.36,-1.96 -1.36,-3.29 0,-1.33 0.45,-2.43 1.36,-3.29 0.9,-0.87 2.01,-1.3 3.32,-1.3 1.31,0 2.42,0.43 3.32,1.3 0.9,0.86 1.36,1.96 1.36,3.29 0,1.33 -0.45,2.43 -1.36,3.29 -0.9,0.87 -2.01,1.3 -3.32,1.3 -1.31,0 -2.42,-0.43 -3.32,-1.3 z m 1.33,-5.31 c -0.54,0.52 -0.81,1.2 -0.81,2.01 0,0.81 0.27,1.49 0.81,2.01 0.54,0.52 1.2,0.79 1.99,0.79 0.79,0 1.45,-0.26 1.99,-0.79 0.54,-0.52 0.81,-1.2 0.81,-2.01 0,-0.81 -0.27,-1.49 -0.81,-2.01 -0.54,-0.52 -1.2,-0.79 -1.99,-0.79 -0.79,0 -1.45,0.26 -1.99,0.79 z"
           id="path41"
           style="fill:#1d1d1b;stroke-width:0px" />
        <path
           class="cls-5"
           d="m 635.55,291.11 h -1.88 v -6.18 l -4.13,6.18 h -2.18 v -8.53 h 1.88 v 6.01 l 4.13,-6.01 h 2.18 z m -4.06,-9.8 c -0.85,0 -1.58,-0.28 -2.18,-0.83 -0.6,-0.55 -0.9,-1.23 -0.9,-2.02 h 1.48 c 0,0.43 0.15,0.79 0.45,1.07 0.3,0.28 0.69,0.42 1.15,0.42 0.46,0 0.88,-0.15 1.21,-0.44 0.33,-0.29 0.5,-0.64 0.5,-1.05 h 1.48 c 0,0.76 -0.32,1.43 -0.96,2 -0.64,0.57 -1.39,0.85 -2.25,0.85 z"
           id="path42"
           style="fill:#1d1d1b;stroke-width:0px" />
        <path
           class="cls-5"
           d="m 639.75,284.81 c -0.52,0.52 -0.79,1.2 -0.79,2.01 0,0.81 0.26,1.49 0.79,2.01 0.52,0.52 1.17,0.79 1.93,0.79 0.55,0 1.04,-0.14 1.49,-0.41 0.45,-0.27 0.79,-0.64 1.02,-1.11 l 1.72,0.79 c -0.39,0.77 -0.96,1.39 -1.71,1.84 -0.76,0.45 -1.6,0.68 -2.52,0.68 -1.27,0 -2.36,-0.43 -3.25,-1.3 -0.89,-0.86 -1.34,-1.96 -1.34,-3.29 0,-1.33 0.45,-2.43 1.34,-3.29 0.89,-0.87 1.98,-1.3 3.25,-1.3 0.94,0 1.8,0.23 2.56,0.7 0.76,0.47 1.33,1.1 1.71,1.91 l -1.72,0.8 c -0.22,-0.51 -0.55,-0.91 -1.01,-1.2 -0.46,-0.28 -0.97,-0.43 -1.54,-0.43 -0.76,0 -1.41,0.26 -1.93,0.79 z"
           id="path43"
           style="fill:#1d1d1b;stroke-width:0px" />
        <path
           class="cls-5"
           d="m 654.4,282.57 v 1.76 h -2.73 v 6.78 h -1.88 v -6.78 h -2.73 v -1.76 z"
           id="path44"
           style="fill:#1d1d1b;stroke-width:0px" />
        <path
           class="cls-5"
           d="m 661.2,291.11 h -5.36 v -8.53 h 5.19 c 0.83,0 1.52,0.22 2.06,0.67 0.55,0.44 0.82,1 0.82,1.66 0,0.39 -0.1,0.73 -0.3,1.04 -0.2,0.31 -0.48,0.55 -0.83,0.72 0.4,0.2 0.71,0.49 0.95,0.86 0.23,0.37 0.35,0.78 0.35,1.24 0,0.67 -0.27,1.23 -0.82,1.68 -0.55,0.45 -1.23,0.67 -2.06,0.67 z m -0.34,-6.86 h -3.14 v 1.84 H 661 c 0.3,0 0.54,-0.08 0.74,-0.25 0.2,-0.17 0.3,-0.37 0.3,-0.61 0,-0.28 -0.11,-0.52 -0.33,-0.71 -0.22,-0.19 -0.5,-0.28 -0.84,-0.28 z m 0.17,3.29 h -3.31 v 1.89 h 3.31 c 0.33,0 0.61,-0.09 0.84,-0.27 0.23,-0.18 0.34,-0.4 0.34,-0.67 0,-0.27 -0.11,-0.5 -0.33,-0.68 -0.22,-0.18 -0.5,-0.27 -0.84,-0.27 z"
           id="path45"
           style="fill:#1d1d1b;stroke-width:0px" />
        <path
           class="cls-5"
           d="m 666.64,290.12 c -0.9,-0.86 -1.36,-1.96 -1.36,-3.29 0,-1.33 0.45,-2.43 1.36,-3.29 0.9,-0.87 2.01,-1.3 3.32,-1.3 1.31,0 2.42,0.43 3.32,1.3 0.9,0.86 1.36,1.96 1.36,3.29 0,1.33 -0.45,2.43 -1.36,3.29 -0.9,0.87 -2.01,1.3 -3.32,1.3 -1.31,0 -2.42,-0.43 -3.32,-1.3 z m 1.33,-5.31 c -0.54,0.52 -0.81,1.2 -0.81,2.01 0,0.81 0.27,1.49 0.81,2.01 0.54,0.52 1.2,0.79 1.99,0.79 0.79,0 1.45,-0.26 1.99,-0.79 0.54,-0.52 0.81,-1.2 0.81,-2.01 0,-0.81 -0.27,-1.49 -0.81,-2.01 -0.54,-0.52 -1.2,-0.79 -1.99,-0.79 -0.79,0 -1.45,0.26 -1.99,0.79 z"
           id="path46"
           style="fill:#1d1d1b;stroke-width:0px" />
      </g>
      <g
         id="g60"
         transform="translate(118.00005)">
        <path
           class="cls-5"
           d="m 766.11,291.11 h -1.88 v -6.18 l -4.13,6.18 h -2.18 v -8.53 h 1.88 v 6.01 l 4.13,-6.01 h 2.18 z"
           id="path47"
           style="fill:#1d1d1b;stroke-width:0px" />
        <path
           class="cls-5"
           d="m 767.99,291.11 v -8.53 h 1.88 v 3.38 h 4.52 v -3.38 h 1.88 v 8.53 h -1.88 v -3.41 h -4.52 v 3.41 z"
           id="path48"
           style="fill:#1d1d1b;stroke-width:0px" />
        <path
           class="cls-5"
           d="m 783.21,282.57 h 1.88 v 3.38 h 0.68 l 2.7,-3.38 h 2.12 l -3.41,4.27 3.41,4.27 h -2.12 l -2.7,-3.31 h -0.68 v 3.31 h -1.88 v -3.38 h -0.68 l -2.7,3.38 h -2.12 l 3.41,-4.27 -3.41,-4.27 h 2.12 l 2.7,3.31 h 0.68 z"
           id="path49"
           style="fill:#1d1d1b;stroke-width:0px" />
        <path
           class="cls-5"
           d="m 793.67,287.66 c 0.11,0.63 0.4,1.12 0.87,1.48 0.47,0.36 1.03,0.54 1.69,0.54 0.5,0 0.96,-0.11 1.37,-0.34 0.42,-0.23 0.73,-0.54 0.93,-0.94 l 1.72,0.67 c -0.36,0.72 -0.91,1.29 -1.63,1.71 -0.72,0.42 -1.52,0.64 -2.38,0.64 -1.29,0 -2.37,-0.44 -3.24,-1.31 -0.88,-0.87 -1.31,-1.97 -1.31,-3.3 0,-1.33 0.43,-2.4 1.28,-3.27 0.85,-0.87 1.91,-1.31 3.16,-1.31 1.25,0 2.33,0.43 3.21,1.3 0.88,0.86 1.31,1.95 1.31,3.24 0,0.25 -0.04,0.55 -0.12,0.89 z m 5.07,-1.69 c -0.09,-0.61 -0.37,-1.1 -0.84,-1.46 -0.47,-0.36 -1.04,-0.54 -1.71,-0.54 -0.67,0 -1.2,0.18 -1.66,0.53 -0.46,0.35 -0.74,0.84 -0.85,1.47 h 5.07 z"
           id="path50"
           style="fill:#1d1d1b;stroke-width:0px" />
        <path
           class="cls-5"
           d="m 802.19,291.11 v -8.53 h 1.88 v 3.38 h 4.52 v -3.38 h 1.88 v 8.53 h -1.88 v -3.41 h -4.52 v 3.41 z"
           id="path51"
           style="fill:#1d1d1b;stroke-width:0px" />
        <path
           class="cls-5"
           d="m 813.98,287.66 c 0.11,0.63 0.4,1.12 0.87,1.48 0.47,0.36 1.03,0.54 1.69,0.54 0.5,0 0.96,-0.11 1.37,-0.34 0.42,-0.23 0.73,-0.54 0.93,-0.94 l 1.72,0.67 c -0.36,0.72 -0.91,1.29 -1.63,1.71 -0.72,0.42 -1.52,0.64 -2.38,0.64 -1.29,0 -2.37,-0.44 -3.24,-1.31 -0.88,-0.87 -1.31,-1.97 -1.31,-3.3 0,-1.33 0.43,-2.4 1.28,-3.27 0.85,-0.87 1.91,-1.31 3.16,-1.31 1.25,0 2.33,0.43 3.21,1.3 0.88,0.86 1.31,1.95 1.31,3.24 0,0.25 -0.04,0.55 -0.12,0.89 z m 5.07,-1.69 c -0.09,-0.61 -0.37,-1.1 -0.84,-1.46 -0.47,-0.36 -1.04,-0.54 -1.71,-0.54 -0.67,0 -1.2,0.18 -1.66,0.53 -0.46,0.35 -0.74,0.84 -0.85,1.47 h 5.07 z"
           id="path52"
           style="fill:#1d1d1b;stroke-width:0px" />
        <path
           class="cls-5"
           d="m 822.5,282.57 h 1.88 v 11.95 h -1.88 z m 2.3,7.55 c -0.77,-0.87 -1.16,-1.96 -1.16,-3.29 0,-1.33 0.39,-2.42 1.16,-3.29 0.77,-0.87 1.73,-1.31 2.87,-1.31 1.14,0 2.18,0.44 2.98,1.31 0.8,0.87 1.2,1.97 1.2,3.28 0,1.31 -0.4,2.4 -1.2,3.28 -0.8,0.88 -1.79,1.31 -2.98,1.31 -1.19,0 -2.09,-0.44 -2.87,-1.31 z m 0.38,-5.29 c -0.54,0.53 -0.81,1.2 -0.81,2 0,0.8 0.27,1.48 0.81,2 0.54,0.53 1.2,0.79 1.99,0.79 0.79,0 1.45,-0.26 1.99,-0.79 0.54,-0.53 0.81,-1.2 0.81,-2 0,-0.8 -0.27,-1.48 -0.81,-2 -0.54,-0.53 -1.2,-0.79 -1.99,-0.79 -0.79,0 -1.45,0.26 -1.99,0.79 z"
           id="path53"
           style="fill:#1d1d1b;stroke-width:0px" />
        <path
           class="cls-5"
           d="m 833.38,291.11 v -8.53 h 1.88 v 3.38 h 4.52 v -3.38 h 1.88 v 8.53 h -1.88 v -3.41 h -4.52 v 3.41 z"
           id="path54"
           style="fill:#1d1d1b;stroke-width:0px" />
        <path
           class="cls-5"
           d="m 848.64,285.61 c 0.82,0 1.5,0.27 2.06,0.8 0.55,0.54 0.83,1.19 0.83,1.96 0,0.77 -0.28,1.42 -0.83,1.95 -0.55,0.52 -1.24,0.79 -2.06,0.79 h -5.19 v -8.53 h 1.88 v 3.04 h 3.31 z m -0.17,1.76 h -3.14 v 1.89 h 3.14 c 0.34,0 0.62,-0.09 0.85,-0.26 0.22,-0.18 0.33,-0.4 0.33,-0.66 0,-0.26 -0.11,-0.5 -0.34,-0.69 -0.23,-0.19 -0.51,-0.28 -0.84,-0.28 z m 4.33,3.74 v -8.53 h 1.88 v 8.53 z"
           id="path55"
           style="fill:#1d1d1b;stroke-width:0px" />
        <path
           class="cls-5"
           d="m 858.2,287.66 c 0.11,0.63 0.4,1.12 0.87,1.48 0.47,0.36 1.03,0.54 1.69,0.54 0.5,0 0.96,-0.11 1.37,-0.34 0.42,-0.23 0.73,-0.54 0.93,-0.94 l 1.72,0.67 c -0.36,0.72 -0.91,1.29 -1.63,1.71 -0.72,0.42 -1.52,0.64 -2.38,0.64 -1.29,0 -2.37,-0.44 -3.24,-1.31 -0.88,-0.87 -1.31,-1.97 -1.31,-3.3 0,-1.33 0.43,-2.4 1.28,-3.27 0.85,-0.87 1.91,-1.31 3.16,-1.31 1.25,0 2.33,0.43 3.21,1.3 0.88,0.86 1.31,1.95 1.31,3.24 0,0.25 -0.04,0.55 -0.12,0.89 z m 5.07,-1.69 c -0.09,-0.61 -0.37,-1.1 -0.84,-1.46 -0.47,-0.36 -1.04,-0.54 -1.71,-0.54 -0.67,0 -1.2,0.18 -1.66,0.53 -0.46,0.35 -0.74,0.84 -0.85,1.47 h 5.07 z"
           id="path56"
           style="fill:#1d1d1b;stroke-width:0px" />
        <path
           class="cls-5"
           d="m 873.64,284.81 c -0.52,0.52 -0.79,1.2 -0.79,2.01 0,0.81 0.26,1.49 0.79,2.01 0.52,0.52 1.17,0.79 1.93,0.79 0.55,0 1.04,-0.14 1.49,-0.41 0.45,-0.27 0.79,-0.64 1.02,-1.11 l 1.72,0.79 c -0.39,0.77 -0.96,1.39 -1.71,1.84 -0.76,0.45 -1.6,0.68 -2.52,0.68 -1.27,0 -2.36,-0.43 -3.25,-1.3 -0.89,-0.86 -1.34,-1.96 -1.34,-3.29 0,-1.33 0.45,-2.43 1.34,-3.29 0.89,-0.87 1.98,-1.3 3.25,-1.3 0.94,0 1.8,0.23 2.56,0.7 0.76,0.47 1.33,1.1 1.71,1.91 l -1.72,0.8 c -0.22,-0.51 -0.55,-0.91 -1.01,-1.2 -0.46,-0.28 -0.97,-0.43 -1.54,-0.43 -0.76,0 -1.41,0.26 -1.93,0.79 z"
           id="path57"
           style="fill:#1d1d1b;stroke-width:0px" />
        <path
           class="cls-5"
           d="m 883.01,287.66 c 0.11,0.63 0.4,1.12 0.87,1.48 0.47,0.36 1.03,0.54 1.69,0.54 0.5,0 0.96,-0.11 1.37,-0.34 0.42,-0.23 0.73,-0.54 0.93,-0.94 l 1.72,0.67 c -0.36,0.72 -0.91,1.29 -1.63,1.71 -0.72,0.42 -1.52,0.64 -2.38,0.64 -1.29,0 -2.37,-0.44 -3.24,-1.31 -0.88,-0.87 -1.31,-1.97 -1.31,-3.3 0,-1.33 0.43,-2.4 1.28,-3.27 0.85,-0.87 1.91,-1.31 3.16,-1.31 1.25,0 2.33,0.43 3.21,1.3 0.88,0.86 1.31,1.95 1.31,3.24 0,0.25 -0.04,0.55 -0.12,0.89 z m 5.07,-1.69 c -0.09,-0.61 -0.37,-1.1 -0.84,-1.46 -0.47,-0.36 -1.04,-0.54 -1.71,-0.54 -0.67,0 -1.2,0.18 -1.66,0.53 -0.46,0.35 -0.74,0.84 -0.85,1.47 h 5.07 z"
           id="path58"
           style="fill:#1d1d1b;stroke-width:0px" />
        <path
           class="cls-5"
           d="m 898.44,282.57 v 1.76 h -2.73 v 6.78 h -1.88 v -6.78 h -2.73 v -1.76 z"
           id="path59"
           style="fill:#1d1d1b;stroke-width:0px" />
        <path
           class="cls-5"
           d="m 908.08,291.11 h -1.88 v -6.18 l -4.13,6.18 h -2.18 v -8.53 h 1.88 v 6.01 l 4.13,-6.01 h 2.18 z"
           id="path60"
           style="fill:#1d1d1b;stroke-width:0px" />
      </g>
    </g>
  </g>
</svg>
