<?xml version="1.0" encoding="UTF-8" standalone="no"?>
<!-- Created with Inkscape (http://www.inkscape.org/) -->

<svg
   width="57.232895mm"
   height="27.136641mm"
   viewBox="0 0 57.232894 27.136641"
   version="1.1"
   id="svg1"
   xmlns="http://www.w3.org/2000/svg"
   xmlns:svg="http://www.w3.org/2000/svg">
  <defs
     id="defs1" />
  <g
     id="layer1"
     transform="translate(-99.218912,-134.07385)">
    <g
       id="g61"
       transform="matrix(0.26458326,0,0,0.26458338,-37.189779,80.57354)">
      <path
         style="color:#000000;fill:#ea5b0c;stroke-width:0.530594;stroke-miterlimit:10;-inkscape-stroke:none"
         d="m 517.63526,202.20587 c -1.146,0 -2.07471,0.9342 -2.07471,2.07471 v 55.80797 42.60626 c 0,1.14601 0.93419,2.07472 2.07471,2.07472 h 212.16396 c 1.146,0 2.0747,-0.93419 2.0747,-2.07472 v -46.62305 c 0,-1.14599 -0.93421,-2.07471 -2.0747,-2.07471 H 707.7577 c -11.37881,0 -16.83641,-6.58809 -16.77804,-13.14366 0.0584,-6.55557 5.64019,-13.1478 16.77804,-13.1478 h 1.1244 l -0.0104,-0.005 h 20.91712 c 1.146,0 2.0747,-0.93419 2.0747,-2.07471 v -21.34511 c 0,-1.146 -0.93417,-2.07472 -2.0747,-2.07472 h -33.17888 c -7.53258,0 -14.54353,2.18007 -20.47875,5.91429 -1.04708,0.66132 -2.37317,-0.0555 -2.37317,-1.28815 v -2.19596 c 0,-1.46403 -0.9342,-2.43018 -2.07472,-2.43018 h -23.98876 c -1.90335,0 -3.72372,0.78313 -5.03133,2.16799 l -28.04285,29.63879 c -0.48807,0.5151 -1.14355,0.59219 -1.69335,0.37307 -0.55007,-0.21923 -0.97311,-0.7255 -0.97311,-1.43738 v -28.66775 c 0,-1.146 -0.9342,-2.07472 -2.07471,-2.07472 h -25.04477 c -1.14601,0 -2.07368,0.9342 -2.07368,2.07472 v 32.90734 c 0,0.72116 -0.42081,1.2157 -0.97207,1.42598 -0.55127,0.21027 -1.21866,0.12382 -1.72444,-0.39587 -4.40912,-4.52714 -10.56508,-7.3496 -17.3874,-7.3496 H 546.303 c -0.85965,0 -1.54412,-0.68959 -1.54412,-1.54411 v -6.86045 c 0,-0.85965 0.6896,-1.54412 1.54412,-1.54412 h 30.59428 c 1.146,0 2.07471,-0.93419 2.07471,-2.07471 v -14.56446 c 0,-1.146 -0.9342,-2.07472 -2.07471,-2.07472 z m 0,0.53059 h 59.26203 c 0.85452,0 1.54411,0.68447 1.54411,1.54412 v 14.56446 c 0,0.85452 -0.68447,1.54412 -1.54411,1.54412 h -30.59428 c -1.14051,0 -2.07471,0.92871 -2.07471,2.07471 v 6.86045 c 0,1.14052 0.92871,2.07471 2.07471,2.07471 h 16.37387 c 6.67605,0 12.6932,2.75963 17.00707,7.18896 0.65093,0.66884 1.55898,0.8018 2.29442,0.52127 0.73543,-0.28052 1.31302,-0.98704 1.31302,-1.92134 v -32.90734 c 0,-0.85452 0.68343,-1.54412 1.54308,-1.54412 h 25.04477 c 0.85452,0 1.54412,0.68447 1.54412,1.54412 v 28.66775 c 0,0.92767 0.57651,1.6392 1.30783,1.93067 0.73133,0.29147 1.63801,0.17118 2.27473,-0.50158 l 28.04285,-29.63878 c 1.20741,-1.27873 2.88807,-2.00218 4.64583,-2.00218 h 23.98876 c 0.85452,0 1.54412,0.64696 1.54412,1.89958 v 2.19596 c 0,1.62193 1.81426,2.60367 3.18669,1.73688 5.85462,-3.68351 12.76559,-5.83242 20.19582,-5.83242 h 33.17887 c 0.8545,0 1.54408,0.68447 1.54408,1.54412 v 21.34511 c 0,0.85452 -0.68444,1.54412 -1.54408,1.54412 h -23.1649 l 0.15959,0.0798 c -10.68117,0.39648 -16.27532,6.95314 -16.33449,13.59965 -0.061,6.85524 5.72325,13.6784 17.30864,13.6784 h 22.04152 c 0.8545,0 1.54412,0.68447 1.54412,1.54411 v 46.62305 c 0,0.85453 -0.68448,1.54413 -1.54412,1.54413 H 517.63526 c -0.85452,0 -1.54412,-0.68448 -1.54412,-1.54413 v -42.60626 -55.80797 c 0,-0.85452 0.68448,-1.54412 1.54412,-1.54412 z m 124.96789,43.95556 c -0.39782,0.0776 -0.78428,0.27609 -1.10264,0.61247 l -9.02533,9.54038 c -0.61897,0.65502 -0.70453,1.54131 -0.40002,2.24881 0.30452,0.70749 1.00749,1.25498 1.90891,1.25498 h 9.02532 c 1.14052,0 2.07471,-0.92871 2.07471,-2.07472 v -9.54036 c 0,-0.92767 -0.57651,-1.6392 -1.30783,-1.93067 -0.36566,-0.14574 -0.77529,-0.18852 -1.17312,-0.11089 z m 0.10674,0.51506 c 0.29361,-0.0562 0.59444,-0.0205 0.86947,0.0891 0.55007,0.21923 0.97414,0.7255 0.97414,1.43738 v 9.54036 c 0,0.85966 -0.68959,1.54413 -1.54411,1.54413 h -9.02532 c -0.69037,0 -1.19206,-0.40332 -1.42079,-0.93477 -0.22875,-0.53144 -0.17664,-1.17302 0.29742,-1.67469 l 9.02532,-9.53934 c 0.24407,-0.25788 0.53027,-0.40601 0.82387,-0.46219 z"
         id="path31" />
      <g
         id="g46"
         transform="matrix(0.40791427,0,0,0.40791427,305.25605,180.44969)">
        <path
           class="cls-5"
           d="m 539.06,279.54 c -0.6,0.57 -1.77,0.97 -3.5,1.21 -0.98,0.14 -1.75,0.56 -2.33,1.26 -0.57,0.71 -0.9,1.67 -0.98,2.88 0.32,-0.58 0.79,-1.04 1.4,-1.39 0.61,-0.35 1.28,-0.52 2,-0.52 1.09,0 2.01,0.4 2.75,1.19 0.74,0.79 1.11,1.77 1.11,2.94 0,1.17 -0.42,2.25 -1.26,3.07 -0.84,0.82 -1.9,1.23 -3.17,1.23 -0.86,0 -1.65,-0.2 -2.36,-0.59 -0.71,-0.39 -1.25,-0.94 -1.63,-1.65 -0.47,-0.9 -0.7,-2.05 -0.7,-3.46 0,-1.97 0.42,-3.5 1.27,-4.61 0.85,-1.11 2.06,-1.77 3.63,-2 1.44,-0.22 2.39,-0.53 2.83,-0.94 l 0.96,1.37 z m -6.64,7.53 c 0,0.68 0.26,1.27 0.79,1.75 0.53,0.48 1.16,0.73 1.9,0.73 0.74,0 1.31,-0.23 1.79,-0.68 0.48,-0.46 0.72,-1.02 0.72,-1.71 0,-0.69 -0.25,-1.25 -0.73,-1.69 -0.49,-0.44 -1.11,-0.67 -1.86,-0.67 -0.75,0 -1.37,0.22 -1.87,0.65 -0.5,0.43 -0.74,0.97 -0.74,1.62 z"
           id="path32"
           style="fill:#1d1d1b;stroke-width:0px" />
        <path
           class="cls-5"
           d="m 542.04,288.87 c 0.23,-0.26 0.35,-0.6 0.35,-1.01 v -5.29 h 6.48 v 8.53 h -1.88 v -6.69 h -2.73 v 3.69 c 0,0.82 -0.28,1.53 -0.84,2.12 -0.56,0.59 -1.29,0.89 -2.19,0.89 h -0.58 v -1.84 h 0.41 c 0.42,0 0.75,-0.13 0.98,-0.39 z"
           id="path33"
           style="fill:#1d1d1b;stroke-width:0px" />
        <path
           class="cls-5"
           d="m 555.74,287.42 -2.1,0.27 c -0.9,0.1 -1.35,0.43 -1.35,0.99 0,0.31 0.12,0.54 0.37,0.71 0.25,0.17 0.58,0.25 1.02,0.25 0.63,0 1.13,-0.17 1.5,-0.52 0.38,-0.35 0.56,-0.8 0.56,-1.36 h 0.6 c 0,1.01 -0.3,1.85 -0.91,2.53 -0.61,0.67 -1.37,1.01 -2.3,1.01 -0.8,0 -1.45,-0.23 -1.95,-0.69 -0.51,-0.46 -0.76,-1.05 -0.76,-1.78 0,-0.73 0.25,-1.34 0.76,-1.83 0.51,-0.49 1.19,-0.79 2.04,-0.89 l 2.53,-0.29 v -0.19 c 0,-0.42 -0.17,-0.78 -0.52,-1.08 -0.35,-0.3 -0.77,-0.44 -1.25,-0.44 -0.44,0 -0.84,0.12 -1.19,0.36 -0.35,0.24 -0.57,0.54 -0.67,0.9 l -1.76,-0.58 c 0.23,-0.72 0.67,-1.3 1.32,-1.74 0.65,-0.44 1.39,-0.67 2.21,-0.67 1.01,0 1.89,0.31 2.63,0.93 0.74,0.62 1.11,1.35 1.11,2.19 v 5.6 h -1.88 v -3.69 z"
           id="path34"
           style="fill:#1d1d1b;stroke-width:0px" />
        <path
           class="cls-5"
           d="m 559.49,282.57 h 6.06 v 1.76 h -4.18 v 6.78 h -1.88 v -8.53 z"
           id="path35"
           style="fill:#1d1d1b;stroke-width:0px" />
        <path
           class="cls-5"
           d="m 568.1,290.12 c -0.9,-0.86 -1.36,-1.96 -1.36,-3.29 0,-1.33 0.45,-2.43 1.36,-3.29 0.9,-0.87 2.01,-1.3 3.32,-1.3 1.31,0 2.42,0.43 3.32,1.3 0.9,0.86 1.36,1.96 1.36,3.29 0,1.33 -0.45,2.43 -1.36,3.29 -0.9,0.87 -2.01,1.3 -3.32,1.3 -1.31,0 -2.42,-0.43 -3.32,-1.3 z m 1.33,-5.31 c -0.54,0.52 -0.81,1.2 -0.81,2.01 0,0.81 0.27,1.49 0.81,2.01 0.54,0.52 1.2,0.79 1.99,0.79 0.79,0 1.45,-0.26 1.99,-0.79 0.54,-0.52 0.81,-1.2 0.81,-2.01 0,-0.81 -0.27,-1.49 -0.81,-2.01 -0.54,-0.52 -1.2,-0.79 -1.99,-0.79 -0.79,0 -1.45,0.26 -1.99,0.79 z"
           id="path36"
           style="fill:#1d1d1b;stroke-width:0px" />
        <path
           class="cls-5"
           d="m 586.08,282.57 -4.88,11.95 h -2.05 l 1.4,-3.67 -3.34,-8.28 h 2.01 l 2.42,6.23 2.39,-6.23 z"
           id="path37"
           style="fill:#1d1d1b;stroke-width:0px" />
        <path
           class="cls-5"
           d="m 589.83,284.81 c -0.52,0.52 -0.79,1.2 -0.79,2.01 0,0.81 0.26,1.49 0.79,2.01 0.52,0.52 1.17,0.79 1.93,0.79 0.55,0 1.04,-0.14 1.49,-0.41 0.45,-0.27 0.79,-0.64 1.02,-1.11 l 1.72,0.79 c -0.39,0.77 -0.96,1.39 -1.71,1.84 -0.76,0.45 -1.6,0.68 -2.52,0.68 -1.27,0 -2.36,-0.43 -3.25,-1.3 -0.89,-0.86 -1.34,-1.96 -1.34,-3.29 0,-1.33 0.45,-2.43 1.34,-3.29 0.89,-0.87 1.98,-1.3 3.25,-1.3 0.94,0 1.8,0.23 2.56,0.7 0.76,0.47 1.33,1.1 1.71,1.91 l -1.72,0.8 c -0.22,-0.51 -0.55,-0.91 -1.01,-1.2 -0.46,-0.28 -0.97,-0.43 -1.54,-0.43 -0.76,0 -1.41,0.26 -1.93,0.79 z"
           id="path38"
           style="fill:#1d1d1b;stroke-width:0px" />
        <path
           class="cls-5"
           d="m 604.48,282.57 v 1.76 h -2.73 v 6.78 h -1.88 v -6.78 h -2.73 v -1.76 z"
           id="path39"
           style="fill:#1d1d1b;stroke-width:0px" />
        <path
           class="cls-5"
           d="m 605.93,282.57 h 1.88 v 11.95 h -1.88 z m 2.3,7.55 c -0.77,-0.87 -1.16,-1.96 -1.16,-3.29 0,-1.33 0.39,-2.42 1.16,-3.29 0.77,-0.87 1.73,-1.31 2.87,-1.31 1.14,0 2.18,0.44 2.98,1.31 0.8,0.87 1.2,1.97 1.2,3.28 0,1.31 -0.4,2.4 -1.2,3.28 -0.8,0.88 -1.79,1.31 -2.98,1.31 -1.19,0 -2.09,-0.44 -2.87,-1.31 z m 0.38,-5.29 c -0.54,0.53 -0.81,1.2 -0.81,2 0,0.8 0.27,1.48 0.81,2 0.54,0.53 1.2,0.79 1.99,0.79 0.79,0 1.45,-0.26 1.99,-0.79 0.54,-0.53 0.81,-1.2 0.81,-2 0,-0.8 -0.27,-1.48 -0.81,-2 -0.54,-0.53 -1.2,-0.79 -1.99,-0.79 -0.79,0 -1.45,0.26 -1.99,0.79 z"
           id="path40"
           style="fill:#1d1d1b;stroke-width:0px" />
        <path
           class="cls-5"
           d="m 617.83,290.12 c -0.9,-0.86 -1.36,-1.96 -1.36,-3.29 0,-1.33 0.45,-2.43 1.36,-3.29 0.9,-0.87 2.01,-1.3 3.32,-1.3 1.31,0 2.42,0.43 3.32,1.3 0.9,0.86 1.36,1.96 1.36,3.29 0,1.33 -0.45,2.43 -1.36,3.29 -0.9,0.87 -2.01,1.3 -3.32,1.3 -1.31,0 -2.42,-0.43 -3.32,-1.3 z m 1.33,-5.31 c -0.54,0.52 -0.81,1.2 -0.81,2.01 0,0.81 0.27,1.49 0.81,2.01 0.54,0.52 1.2,0.79 1.99,0.79 0.79,0 1.45,-0.26 1.99,-0.79 0.54,-0.52 0.81,-1.2 0.81,-2.01 0,-0.81 -0.27,-1.49 -0.81,-2.01 -0.54,-0.52 -1.2,-0.79 -1.99,-0.79 -0.79,0 -1.45,0.26 -1.99,0.79 z"
           id="path41"
           style="fill:#1d1d1b;stroke-width:0px" />
        <path
           class="cls-5"
           d="m 635.55,291.11 h -1.88 v -6.18 l -4.13,6.18 h -2.18 v -8.53 h 1.88 v 6.01 l 4.13,-6.01 h 2.18 z m -4.06,-9.8 c -0.85,0 -1.58,-0.28 -2.18,-0.83 -0.6,-0.55 -0.9,-1.23 -0.9,-2.02 h 1.48 c 0,0.43 0.15,0.79 0.45,1.07 0.3,0.28 0.69,0.42 1.15,0.42 0.46,0 0.88,-0.15 1.21,-0.44 0.33,-0.29 0.5,-0.64 0.5,-1.05 h 1.48 c 0,0.76 -0.32,1.43 -0.96,2 -0.64,0.57 -1.39,0.85 -2.25,0.85 z"
           id="path42"
           style="fill:#1d1d1b;stroke-width:0px" />
        <path
           class="cls-5"
           d="m 639.75,284.81 c -0.52,0.52 -0.79,1.2 -0.79,2.01 0,0.81 0.26,1.49 0.79,2.01 0.52,0.52 1.17,0.79 1.93,0.79 0.55,0 1.04,-0.14 1.49,-0.41 0.45,-0.27 0.79,-0.64 1.02,-1.11 l 1.72,0.79 c -0.39,0.77 -0.96,1.39 -1.71,1.84 -0.76,0.45 -1.6,0.68 -2.52,0.68 -1.27,0 -2.36,-0.43 -3.25,-1.3 -0.89,-0.86 -1.34,-1.96 -1.34,-3.29 0,-1.33 0.45,-2.43 1.34,-3.29 0.89,-0.87 1.98,-1.3 3.25,-1.3 0.94,0 1.8,0.23 2.56,0.7 0.76,0.47 1.33,1.1 1.71,1.91 l -1.72,0.8 c -0.22,-0.51 -0.55,-0.91 -1.01,-1.2 -0.46,-0.28 -0.97,-0.43 -1.54,-0.43 -0.76,0 -1.41,0.26 -1.93,0.79 z"
           id="path43"
           style="fill:#1d1d1b;stroke-width:0px" />
        <path
           class="cls-5"
           d="m 654.4,282.57 v 1.76 h -2.73 v 6.78 h -1.88 v -6.78 h -2.73 v -1.76 z"
           id="path44"
           style="fill:#1d1d1b;stroke-width:0px" />
        <path
           class="cls-5"
           d="m 661.2,291.11 h -5.36 v -8.53 h 5.19 c 0.83,0 1.52,0.22 2.06,0.67 0.55,0.44 0.82,1 0.82,1.66 0,0.39 -0.1,0.73 -0.3,1.04 -0.2,0.31 -0.48,0.55 -0.83,0.72 0.4,0.2 0.71,0.49 0.95,0.86 0.23,0.37 0.35,0.78 0.35,1.24 0,0.67 -0.27,1.23 -0.82,1.68 -0.55,0.45 -1.23,0.67 -2.06,0.67 z m -0.34,-6.86 h -3.14 v 1.84 H 661 c 0.3,0 0.54,-0.08 0.74,-0.25 0.2,-0.17 0.3,-0.37 0.3,-0.61 0,-0.28 -0.11,-0.52 -0.33,-0.71 -0.22,-0.19 -0.5,-0.28 -0.84,-0.28 z m 0.17,3.29 h -3.31 v 1.89 h 3.31 c 0.33,0 0.61,-0.09 0.84,-0.27 0.23,-0.18 0.34,-0.4 0.34,-0.67 0,-0.27 -0.11,-0.5 -0.33,-0.68 -0.22,-0.18 -0.5,-0.27 -0.84,-0.27 z"
           id="path45"
           style="fill:#1d1d1b;stroke-width:0px" />
        <path
           class="cls-5"
           d="m 666.64,290.12 c -0.9,-0.86 -1.36,-1.96 -1.36,-3.29 0,-1.33 0.45,-2.43 1.36,-3.29 0.9,-0.87 2.01,-1.3 3.32,-1.3 1.31,0 2.42,0.43 3.32,1.3 0.9,0.86 1.36,1.96 1.36,3.29 0,1.33 -0.45,2.43 -1.36,3.29 -0.9,0.87 -2.01,1.3 -3.32,1.3 -1.31,0 -2.42,-0.43 -3.32,-1.3 z m 1.33,-5.31 c -0.54,0.52 -0.81,1.2 -0.81,2.01 0,0.81 0.27,1.49 0.81,2.01 0.54,0.52 1.2,0.79 1.99,0.79 0.79,0 1.45,-0.26 1.99,-0.79 0.54,-0.52 0.81,-1.2 0.81,-2.01 0,-0.81 -0.27,-1.49 -0.81,-2.01 -0.54,-0.52 -1.2,-0.79 -1.99,-0.79 -0.79,0 -1.45,0.26 -1.99,0.79 z"
           id="path46"
           style="fill:#1d1d1b;stroke-width:0px" />
      </g>
      <g
         id="g60"
         transform="matrix(0.40791427,0,0,0.40791427,353.38995,180.44969)">
        <path
           class="cls-5"
           d="m 766.11,291.11 h -1.88 v -6.18 l -4.13,6.18 h -2.18 v -8.53 h 1.88 v 6.01 l 4.13,-6.01 h 2.18 z"
           id="path47"
           style="fill:#1d1d1b;stroke-width:0px" />
        <path
           class="cls-5"
           d="m 767.99,291.11 v -8.53 h 1.88 v 3.38 h 4.52 v -3.38 h 1.88 v 8.53 h -1.88 v -3.41 h -4.52 v 3.41 z"
           id="path48"
           style="fill:#1d1d1b;stroke-width:0px" />
        <path
           class="cls-5"
           d="m 783.21,282.57 h 1.88 v 3.38 h 0.68 l 2.7,-3.38 h 2.12 l -3.41,4.27 3.41,4.27 h -2.12 l -2.7,-3.31 h -0.68 v 3.31 h -1.88 v -3.38 h -0.68 l -2.7,3.38 h -2.12 l 3.41,-4.27 -3.41,-4.27 h 2.12 l 2.7,3.31 h 0.68 z"
           id="path49"
           style="fill:#1d1d1b;stroke-width:0px" />
        <path
           class="cls-5"
           d="m 793.67,287.66 c 0.11,0.63 0.4,1.12 0.87,1.48 0.47,0.36 1.03,0.54 1.69,0.54 0.5,0 0.96,-0.11 1.37,-0.34 0.42,-0.23 0.73,-0.54 0.93,-0.94 l 1.72,0.67 c -0.36,0.72 -0.91,1.29 -1.63,1.71 -0.72,0.42 -1.52,0.64 -2.38,0.64 -1.29,0 -2.37,-0.44 -3.24,-1.31 -0.88,-0.87 -1.31,-1.97 -1.31,-3.3 0,-1.33 0.43,-2.4 1.28,-3.27 0.85,-0.87 1.91,-1.31 3.16,-1.31 1.25,0 2.33,0.43 3.21,1.3 0.88,0.86 1.31,1.95 1.31,3.24 0,0.25 -0.04,0.55 -0.12,0.89 z m 5.07,-1.69 c -0.09,-0.61 -0.37,-1.1 -0.84,-1.46 -0.47,-0.36 -1.04,-0.54 -1.71,-0.54 -0.67,0 -1.2,0.18 -1.66,0.53 -0.46,0.35 -0.74,0.84 -0.85,1.47 h 5.07 z"
           id="path50"
           style="fill:#1d1d1b;stroke-width:0px" />
        <path
           class="cls-5"
           d="m 802.19,291.11 v -8.53 h 1.88 v 3.38 h 4.52 v -3.38 h 1.88 v 8.53 h -1.88 v -3.41 h -4.52 v 3.41 z"
           id="path51"
           style="fill:#1d1d1b;stroke-width:0px" />
        <path
           class="cls-5"
           d="m 813.98,287.66 c 0.11,0.63 0.4,1.12 0.87,1.48 0.47,0.36 1.03,0.54 1.69,0.54 0.5,0 0.96,-0.11 1.37,-0.34 0.42,-0.23 0.73,-0.54 0.93,-0.94 l 1.72,0.67 c -0.36,0.72 -0.91,1.29 -1.63,1.71 -0.72,0.42 -1.52,0.64 -2.38,0.64 -1.29,0 -2.37,-0.44 -3.24,-1.31 -0.88,-0.87 -1.31,-1.97 -1.31,-3.3 0,-1.33 0.43,-2.4 1.28,-3.27 0.85,-0.87 1.91,-1.31 3.16,-1.31 1.25,0 2.33,0.43 3.21,1.3 0.88,0.86 1.31,1.95 1.31,3.24 0,0.25 -0.04,0.55 -0.12,0.89 z m 5.07,-1.69 c -0.09,-0.61 -0.37,-1.1 -0.84,-1.46 -0.47,-0.36 -1.04,-0.54 -1.71,-0.54 -0.67,0 -1.2,0.18 -1.66,0.53 -0.46,0.35 -0.74,0.84 -0.85,1.47 h 5.07 z"
           id="path52"
           style="fill:#1d1d1b;stroke-width:0px" />
        <path
           class="cls-5"
           d="m 822.5,282.57 h 1.88 v 11.95 h -1.88 z m 2.3,7.55 c -0.77,-0.87 -1.16,-1.96 -1.16,-3.29 0,-1.33 0.39,-2.42 1.16,-3.29 0.77,-0.87 1.73,-1.31 2.87,-1.31 1.14,0 2.18,0.44 2.98,1.31 0.8,0.87 1.2,1.97 1.2,3.28 0,1.31 -0.4,2.4 -1.2,3.28 -0.8,0.88 -1.79,1.31 -2.98,1.31 -1.19,0 -2.09,-0.44 -2.87,-1.31 z m 0.38,-5.29 c -0.54,0.53 -0.81,1.2 -0.81,2 0,0.8 0.27,1.48 0.81,2 0.54,0.53 1.2,0.79 1.99,0.79 0.79,0 1.45,-0.26 1.99,-0.79 0.54,-0.53 0.81,-1.2 0.81,-2 0,-0.8 -0.27,-1.48 -0.81,-2 -0.54,-0.53 -1.2,-0.79 -1.99,-0.79 -0.79,0 -1.45,0.26 -1.99,0.79 z"
           id="path53"
           style="fill:#1d1d1b;stroke-width:0px" />
        <path
           class="cls-5"
           d="m 833.38,291.11 v -8.53 h 1.88 v 3.38 h 4.52 v -3.38 h 1.88 v 8.53 h -1.88 v -3.41 h -4.52 v 3.41 z"
           id="path54"
           style="fill:#1d1d1b;stroke-width:0px" />
        <path
           class="cls-5"
           d="m 848.64,285.61 c 0.82,0 1.5,0.27 2.06,0.8 0.55,0.54 0.83,1.19 0.83,1.96 0,0.77 -0.28,1.42 -0.83,1.95 -0.55,0.52 -1.24,0.79 -2.06,0.79 h -5.19 v -8.53 h 1.88 v 3.04 h 3.31 z m -0.17,1.76 h -3.14 v 1.89 h 3.14 c 0.34,0 0.62,-0.09 0.85,-0.26 0.22,-0.18 0.33,-0.4 0.33,-0.66 0,-0.26 -0.11,-0.5 -0.34,-0.69 -0.23,-0.19 -0.51,-0.28 -0.84,-0.28 z m 4.33,3.74 v -8.53 h 1.88 v 8.53 z"
           id="path55"
           style="fill:#1d1d1b;stroke-width:0px" />
        <path
           class="cls-5"
           d="m 858.2,287.66 c 0.11,0.63 0.4,1.12 0.87,1.48 0.47,0.36 1.03,0.54 1.69,0.54 0.5,0 0.96,-0.11 1.37,-0.34 0.42,-0.23 0.73,-0.54 0.93,-0.94 l 1.72,0.67 c -0.36,0.72 -0.91,1.29 -1.63,1.71 -0.72,0.42 -1.52,0.64 -2.38,0.64 -1.29,0 -2.37,-0.44 -3.24,-1.31 -0.88,-0.87 -1.31,-1.97 -1.31,-3.3 0,-1.33 0.43,-2.4 1.28,-3.27 0.85,-0.87 1.91,-1.31 3.16,-1.31 1.25,0 2.33,0.43 3.21,1.3 0.88,0.86 1.31,1.95 1.31,3.24 0,0.25 -0.04,0.55 -0.12,0.89 z m 5.07,-1.69 c -0.09,-0.61 -0.37,-1.1 -0.84,-1.46 -0.47,-0.36 -1.04,-0.54 -1.71,-0.54 -0.67,0 -1.2,0.18 -1.66,0.53 -0.46,0.35 -0.74,0.84 -0.85,1.47 h 5.07 z"
           id="path56"
           style="fill:#1d1d1b;stroke-width:0px" />
        <path
           class="cls-5"
           d="m 873.64,284.81 c -0.52,0.52 -0.79,1.2 -0.79,2.01 0,0.81 0.26,1.49 0.79,2.01 0.52,0.52 1.17,0.79 1.93,0.79 0.55,0 1.04,-0.14 1.49,-0.41 0.45,-0.27 0.79,-0.64 1.02,-1.11 l 1.72,0.79 c -0.39,0.77 -0.96,1.39 -1.71,1.84 -0.76,0.45 -1.6,0.68 -2.52,0.68 -1.27,0 -2.36,-0.43 -3.25,-1.3 -0.89,-0.86 -1.34,-1.96 -1.34,-3.29 0,-1.33 0.45,-2.43 1.34,-3.29 0.89,-0.87 1.98,-1.3 3.25,-1.3 0.94,0 1.8,0.23 2.56,0.7 0.76,0.47 1.33,1.1 1.71,1.91 l -1.72,0.8 c -0.22,-0.51 -0.55,-0.91 -1.01,-1.2 -0.46,-0.28 -0.97,-0.43 -1.54,-0.43 -0.76,0 -1.41,0.26 -1.93,0.79 z"
           id="path57"
           style="fill:#1d1d1b;stroke-width:0px" />
        <path
           class="cls-5"
           d="m 883.01,287.66 c 0.11,0.63 0.4,1.12 0.87,1.48 0.47,0.36 1.03,0.54 1.69,0.54 0.5,0 0.96,-0.11 1.37,-0.34 0.42,-0.23 0.73,-0.54 0.93,-0.94 l 1.72,0.67 c -0.36,0.72 -0.91,1.29 -1.63,1.71 -0.72,0.42 -1.52,0.64 -2.38,0.64 -1.29,0 -2.37,-0.44 -3.24,-1.31 -0.88,-0.87 -1.31,-1.97 -1.31,-3.3 0,-1.33 0.43,-2.4 1.28,-3.27 0.85,-0.87 1.91,-1.31 3.16,-1.31 1.25,0 2.33,0.43 3.21,1.3 0.88,0.86 1.31,1.95 1.31,3.24 0,0.25 -0.04,0.55 -0.12,0.89 z m 5.07,-1.69 c -0.09,-0.61 -0.37,-1.1 -0.84,-1.46 -0.47,-0.36 -1.04,-0.54 -1.71,-0.54 -0.67,0 -1.2,0.18 -1.66,0.53 -0.46,0.35 -0.74,0.84 -0.85,1.47 h 5.07 z"
           id="path58"
           style="fill:#1d1d1b;stroke-width:0px" />
        <path
           class="cls-5"
           d="m 898.44,282.57 v 1.76 h -2.73 v 6.78 h -1.88 v -6.78 h -2.73 v -1.76 z"
           id="path59"
           style="fill:#1d1d1b;stroke-width:0px" />
        <path
           class="cls-5"
           d="m 908.08,291.11 h -1.88 v -6.18 l -4.13,6.18 h -2.18 v -8.53 h 1.88 v 6.01 l 4.13,-6.01 h 2.18 z"
           id="path60"
           style="fill:#1d1d1b;stroke-width:0px" />
      </g>
    </g>
  </g>
</svg>
