<?xml version="1.0" encoding="UTF-8" standalone="no"?>
<svg
   width="133.37616"
   height="32.145859"
   viewBox="0 0 133.37616 32.145858"
   fill="none"
   version="1.1"
   id="svg10"
   sodipodi:docname="logo-bis2.svg"
   inkscape:version="1.3.2 (091e20e, 2023-11-25, custom)"
   xmlns:inkscape="http://www.inkscape.org/namespaces/inkscape"
   xmlns:sodipodi="http://sodipodi.sourceforge.net/DTD/sodipodi-0.dtd"
   xmlns="http://www.w3.org/2000/svg"
   xmlns:svg="http://www.w3.org/2000/svg">
  <path
     style="font-size:42.6667px;font-family:'Arial Rounded MT Bold';-inkscape-font-specification:'Arial Rounded MT Bold, ';fill:#333333"
     d="m 71.563605,21.979183 q 0,2.250002 -0.895834,4.083336 -0.875,1.833335 -2.354168,2.979169 -1.750002,1.375001 -3.750003,1.958335 -2.000002,0.583334 -5.166671,0.583334 H 48.146921 V 0.56250041 H 68.91777 V 4.2291698 H 52.271924 v 8.5000062 h 7.250006 q 3.166669,0 5.16667,0.375 2.000002,0.354167 3.770836,1.729168 1.583335,1.229168 2.333335,3.041669 0.770834,1.812502 0.770834,4.10417 z m -4.312503,0.08333 q 0,-1.562501 -0.520834,-2.750002 -0.520833,-1.187501 -1.625001,-1.916668 -1.145834,-0.770834 -2.645835,-0.9375 -1.500001,-0.166667 -4.22917,-0.166667 h -5.958338 v 11.770842 h 5.854171 q 2.770836,0 4.250003,-0.270834 1.500001,-0.270833 2.625002,-1.041667 1.166668,-0.812501 1.708335,-1.895835 0.541667,-1.104167 0.541667,-2.791669 z m 33.833358,9.520841 H 96.98029 V 6.7291717 L 81.563612,31.583357 h -4.16667 V 0.56250041 h 4.10417 V 25.041685 L 96.73029,0.56250041 h 4.35417 z m 32.29169,-2.250002 q -1.14583,0.500001 -2.08333,0.937501 -0.91667,0.4375 -2.41667,0.916667 -1.27083,0.395834 -2.77083,0.666667 -1.47917,0.291667 -3.27084,0.291667 -3.375,0 -6.14584,-0.9375 -2.75,-0.958334 -4.79167,-2.979169 -2,-1.979168 -3.125,-5.020837 -1.125,-3.062503 -1.125,-7.104172 0,-3.833337 1.08333,-6.8541721 1.08334,-3.0208356 3.125,-5.1041705 1.97917,-2.0208348 4.77084,-3.0833356 Q 119.43864,0 122.85531,0 q 2.5,0 4.97917,0.60416711 2.5,0.60416709 5.54167,2.12500159 v 4.895837 h -0.3125 q -2.5625,-2.145835 -5.08333,-3.1250024 -2.52084,-0.9791674 -5.39584,-0.9791674 -2.35417,0 -4.25,0.770834 -1.87501,0.7500005 -3.35417,2.3541684 -1.4375,1.5625011 -2.25,3.9583367 -0.79167,2.375001 -0.79167,5.500004 0,3.270835 0.875,5.625004 0.89583,2.354168 2.29167,3.833336 1.45833,1.541668 3.39583,2.291668 1.95834,0.729168 4.12501,0.729168 2.97916,0 5.58333,-1.020834 2.60417,-1.020835 4.87501,-3.062503 h 0.29166 z"
     id="text1"
     aria-label="БИС" />
  <defs
     id="defs10" />
  <sodipodi:namedview
     id="namedview10"
     pagecolor="#ffffff"
     bordercolor="#000000"
     borderopacity="0.25"
     inkscape:showpageshadow="2"
     inkscape:pageopacity="0.0"
     inkscape:pagecheckerboard="0"
     inkscape:deskcolor="#d1d1d1"
     showguides="true"
     inkscape:zoom="2.9786096"
     inkscape:cx="152.9237"
     inkscape:cy="25.850988"
     inkscape:window-width="1718"
     inkscape:window-height="1360"
     inkscape:window-x="0"
     inkscape:window-y="0"
     inkscape:window-maximized="0"
     inkscape:current-layer="svg10">
    <sodipodi:guide
       position="-1.208184,5.0736359"
       orientation="1,0"
       id="guide11"
       inkscape:locked="false" />
    <sodipodi:guide
       position="88.835067,6.5167443"
       orientation="0,-1"
       id="guide12"
       inkscape:locked="false" />
  </sodipodi:namedview>
  <path
     d="M 0,9.5914128 C 0,5.4492727 3.35787,2.0913927 7.50002,2.0913927 H 23.9094 V 17.091393 H 7.50001 C 3.35787,17.091393 0,13.733593 0,9.5914128 Z"
     fill="#ffb306"
     id="path1"
     style="fill:#ffee36;fill-opacity:1" />
  <path
     d="m 30,24.591393 c 0,4.1421 -3.3579,7.5 -7.5,7.5 H 6.40414 v -15 H 22.5 c 4.1421,0 7.5,3.3578 7.5,7.5 z"
     fill="#0DB25A"
     id="path2"
     style="fill:#10e472;fill-opacity:1" />
  <path
     d="m 15,24.591393 c 0,4.1421 -3.3579,7.5 -7.50002,7.5 H 6e-5 l 10e-7,-7.8614 c 0,-3.9426 3.196089,-7.1386 7.138659,-7.1386 h 0.36126 c 4.14212,0 7.50002,3.3578 7.50002,7.5 z"
     fill="#0067A0"
     id="path3"
     style="fill:#2c59e1;fill-opacity:1" />
  <path
     d="m 15,9.5914128 c 0,-4.1421401 3.3579,-7.5000201 7.5,-7.5000201 h 7.4999 v 7.8613801 c 0,3.9426202 -3.196,7.1386202 -7.1386,7.1386202 H 22.5 c -4.1421,0 -7.5,-3.3578 -7.5,-7.4999802 z"
     fill="#FF6701"
     id="path4"
     style="fill:#9276b8;fill-opacity:1" />
  <text
     xml:space="preserve"
     style="font-style:normal;font-variant:normal;font-weight:normal;font-stretch:normal;font-size:38.9099px;font-family:'Arial Rounded MT Bold';-inkscape-font-specification:'Arial Rounded MT Bold, ';fill:#102938;fill-opacity:1;stroke-width:3.24249"
     x="57.04282"
     y="36.59412"
     id="text11"
     transform="scale(1.2806789,0.78083586)"><tspan
       id="tspan11"
       x="57.04282"
       y="36.59412"
       style="font-style:normal;font-variant:normal;font-weight:normal;font-stretch:normal;font-family:'Arial Rounded MT Bold';-inkscape-font-specification:'Arial Rounded MT Bold, ';stroke-width:3.24249"
       sodipodi:role="line" /></text>
</svg>
