<?xml version="1.0" encoding="UTF-8" standalone="no"?>
<!-- Created with Inkscape (http://www.inkscape.org/) -->

<svg
   width="107.86533mm"
   height="51.143959mm"
   viewBox="0 0 107.86533 51.143959"
   version="1.1"
   id="svg1"
   inkscape:version="1.3.2 (091e20e, 2023-11-25, custom)"
   sodipodi:docname="logo-foot-6+.svg"
   xmlns:inkscape="http://www.inkscape.org/namespaces/inkscape"
   xmlns:sodipodi="http://sodipodi.sourceforge.net/DTD/sodipodi-0.dtd"
   xmlns="http://www.w3.org/2000/svg"
   xmlns:svg="http://www.w3.org/2000/svg">
  <sodipodi:namedview
     id="namedview1"
     pagecolor="#ffffff"
     bordercolor="#000000"
     borderopacity="0.25"
     inkscape:showpageshadow="2"
     inkscape:pageopacity="0.0"
     inkscape:pagecheckerboard="0"
     inkscape:deskcolor="#d1d1d1"
     inkscape:document-units="mm"
     inkscape:zoom="2.955623"
     inkscape:cx="257.98283"
     inkscape:cy="100.31726"
     inkscape:window-width="3440"
     inkscape:window-height="1369"
     inkscape:window-x="-8"
     inkscape:window-y="-8"
     inkscape:window-maximized="1"
     inkscape:current-layer="g61" />
  <defs
     id="defs1" />
  <g
     inkscape:label="Слой 1"
     inkscape:groupmode="layer"
     id="layer1"
     transform="translate(-51.064585,-123.03125)">
    <g
       id="g61"
       transform="matrix(0.26458333,0,0,0.26458333,-85.343997,93.538146)">
      <path
         class="cls-2"
         d="m 877.77,159.02 h 41.54 c 1.89,0 3.41,-1.53 3.41,-3.41 v -40.23 c 0,-1.89 -1.53,-3.41 -3.41,-3.41 h -62.53 c -14.1,0 -27.22,4.08 -38.33,11.07 -2.28,1.44 -5.24,-0.16 -5.24,-2.85 v -4.14 c 0,-2.56 -1.53,-4.08 -3.41,-4.08 h -45.21 c -3.45,0 -6.75,1.42 -9.12,3.93 l -52.85,55.86 c -2.12,2.24 -5.89,0.74 -5.89,-2.35 v -54.03 c 0,-1.89 -1.53,-3.41 -3.41,-3.41 h -47.2 c -1.89,0 -3.41,1.53 -3.41,3.41 v 62.02 c 0,3.12 -3.76,4.53 -5.94,2.29 -8.22,-8.44 -19.69,-13.7 -32.41,-13.7 H 573.5 c -1.89,0 -3.41,-1.53 -3.41,-3.41 v -12.93 c 0,-1.89 1.53,-3.41 3.41,-3.41 h 57.66 c 1.89,0 3.41,-1.53 3.41,-3.41 v -27.45 c 0,-1.89 -1.53,-3.41 -3.41,-3.41 H 519.47 c -1.89,0 -3.41,1.53 -3.41,3.41 v 105.18 0 80.3 c 0,1.89 1.53,3.41 3.41,3.41 h 399.86 c 1.89,0 3.41,-1.53 3.41,-3.41 v -87.87 c 0,-1.89 -1.53,-3.41 -3.41,-3.41 h -41.54 c -43.28,0 -42.38,-50.55 0,-50.55 z m -122.01,61.53 h -17.01 c -3,0 -4.54,-3.58 -2.48,-5.76 l 17.01,-17.98 c 2.12,-2.24 5.89,-0.74 5.89,2.35 v 17.98 c 0,1.89 -1.53,3.41 -3.41,3.41 z"
         id="path31"
         style="fill:none;stroke:#ea5b0c;stroke-miterlimit:10" />
      <text
         xml:space="preserve"
         style="font-size:10.6667px;font-family:'Arial Rounded MT Bold';-inkscape-font-specification:'Arial Rounded MT Bold, ';fill:#9276b8"
         x="539.00562"
         y="273.19705"
         id="text1"><tspan
           sodipodi:role="line"
           id="tspan1"
           x="539.00562"
           y="273.19705" /></text>
      <path
         d="m 534.33783,269.21887 h -3.91992 v 2.10938 h 3.60937 q 0.39844,0 0.5918,0.18164 0.19922,0.17578 0.19922,0.46875 0,0.29297 -0.19336,0.48047 -0.19336,0.18164 -0.59766,0.18164 h -3.60937 v 2.44336 h 4.05469 q 0.41015,0 0.61523,0.19336 0.21094,0.1875 0.21094,0.5039 0,0.30469 -0.21094,0.49805 -0.20508,0.1875 -0.61523,0.1875 h -4.72852 q -0.56836,0 -0.82031,-0.25195 -0.2461,-0.25196 -0.2461,-0.81446 v -6.45703 q 0,-0.375 0.11133,-0.60937 0.11133,-0.24024 0.3457,-0.34571 0.24024,-0.11132 0.60938,-0.11132 h 4.59375 q 0.41602,0 0.61523,0.1875 0.20508,0.18164 0.20508,0.48046 0,0.30469 -0.20508,0.49219 -0.19921,0.18164 -0.61523,0.18164 z m 7.55273,4.25977 v 2.12695 q 0,0.50391 -0.22851,0.75586 -0.22852,0.25195 -0.60352,0.25195 -0.36328,0 -0.59179,-0.25195 -0.22266,-0.25195 -0.22266,-0.75586 v -2.54883 q 0,-0.60351 -0.041,-0.9375 -0.041,-0.33398 -0.22265,-0.54492 -0.18164,-0.2168 -0.57422,-0.2168 -0.78516,0 -1.03711,0.53907 -0.24609,0.53906 -0.24609,1.54687 v 2.16211 q 0,0.49805 -0.22852,0.75586 -0.22266,0.25195 -0.5918,0.25195 -0.36328,0 -0.59765,-0.25195 -0.22852,-0.25781 -0.22852,-0.75586 v -4.57617 q 0,-0.45117 0.20508,-0.68555 0.21094,-0.23437 0.55078,-0.23437 0.32813,0 0.54492,0.22265 0.22266,0.2168 0.22266,0.60352 v 0.15234 q 0.41601,-0.49804 0.89062,-0.73242 0.47461,-0.23437 1.05469,-0.23437 0.60352,0 1.03711,0.24023 0.43359,0.24023 0.71484,0.72656 0.4043,-0.49218 0.86719,-0.72656 0.46289,-0.24023 1.02539,-0.24023 0.65625,0 1.13086,0.25781 0.47461,0.25781 0.70899,0.73828 0.20507,0.43359 0.20507,1.36523 v 3.12305 q 0,0.50391 -0.22851,0.75586 -0.22852,0.25195 -0.60352,0.25195 -0.36328,0 -0.59765,-0.25195 -0.22852,-0.25781 -0.22852,-0.75586 v -2.68945 q 0,-0.51563 -0.0469,-0.82617 -0.041,-0.31055 -0.23438,-0.52149 -0.19336,-0.21094 -0.58594,-0.21094 -0.3164,0 -0.60351,0.1875 -0.28125,0.1875 -0.43945,0.50391 -0.17579,0.4043 -0.17579,1.42969 z m 9.33985,2.23242 q -0.58008,0.45117 -1.125,0.67969 -0.53906,0.22265 -1.21289,0.22265 -0.61524,0 -1.08399,-0.24023 -0.46289,-0.24609 -0.71484,-0.66211 -0.25195,-0.41602 -0.25195,-0.90234 0,-0.65625 0.41601,-1.11914 0.41602,-0.4629 1.14258,-0.6211 0.15234,-0.0352 0.75586,-0.1582 0.60351,-0.12305 1.03125,-0.22266 0.43359,-0.10547 0.9375,-0.25195 -0.0293,-0.63281 -0.25781,-0.92578 -0.22266,-0.29883 -0.93164,-0.29883 -0.60938,0 -0.91993,0.16992 -0.30468,0.16992 -0.52734,0.50977 -0.2168,0.33984 -0.31055,0.45117 -0.0879,0.10547 -0.38672,0.10547 -0.26953,0 -0.46875,-0.16992 -0.19335,-0.17579 -0.19335,-0.44532 0,-0.42187 0.29882,-0.82031 0.29883,-0.39844 0.93164,-0.65625 0.63282,-0.25781 1.57618,-0.25781 1.05468,0 1.6582,0.25195 0.60351,0.2461 0.84961,0.78516 0.25195,0.53906 0.25195,1.42969 0,0.5625 -0.006,0.95507 0,0.39258 -0.006,0.87305 0,0.45117 0.14649,0.94336 0.15234,0.48633 0.15234,0.62695 0,0.2461 -0.23437,0.45117 -0.22852,0.19922 -0.52149,0.19922 -0.24609,0 -0.48633,-0.22851 -0.24023,-0.23438 -0.50976,-0.67383 z m -0.10547,-2.31445 q -0.35156,0.1289 -1.02539,0.27539 -0.66797,0.14062 -0.92578,0.21093 -0.25782,0.0645 -0.49219,0.26368 -0.23438,0.19336 -0.23438,0.54492 0,0.36328 0.2754,0.62109 0.27539,0.25196 0.7207,0.25196 0.47461,0 0.87305,-0.20508 0.40429,-0.21094 0.59179,-0.53907 0.2168,-0.36328 0.2168,-1.19531 z m 4.79297,-2.37891 v 4.62305 q 0,0.48047 -0.22852,0.72656 -0.22851,0.24609 -0.58008,0.24609 -0.35156,0 -0.57421,-0.25195 -0.2168,-0.25195 -0.2168,-0.7207 v -4.57617 q 0,-0.47461 0.2168,-0.71485 0.22265,-0.24023 0.57421,-0.24023 0.35157,0 0.58008,0.24023 0.22852,0.24024 0.22852,0.66797 z m -0.79102,-1.65234 q -0.33398,0 -0.57422,-0.20508 -0.23437,-0.20508 -0.23437,-0.58008 0,-0.33984 0.24023,-0.55664 0.2461,-0.22266 0.56836,-0.22266 0.31055,0 0.55078,0.19922 0.24024,0.19922 0.24024,0.58008 0,0.36914 -0.23438,0.58008 -0.23437,0.20508 -0.55664,0.20508 z m 2.44336,6.27539 v -6.9375 q 0,-0.48047 0.21094,-0.72657 0.2168,-0.24609 0.58008,-0.24609 0.36328,0 0.58593,0.24609 0.22266,0.24024 0.22266,0.72657 v 6.9375 q 0,0.48633 -0.22851,0.73242 -0.22266,0.24023 -0.58008,0.24023 -0.35157,0 -0.57422,-0.25195 -0.2168,-0.25195 -0.2168,-0.7207 z m 4.3125,0.97265 q -0.36328,0 -0.62695,-0.23437 -0.26367,-0.23438 -0.26367,-0.65625 0,-0.35742 0.25195,-0.61524 0.25195,-0.25781 0.62109,-0.25781 0.36914,0 0.62696,0.25781 0.26367,0.25196 0.26367,0.61524 0,0.41601 -0.26367,0.65625 -0.25782,0.23437 -0.60938,0.23437 z m -0.89062,-5.63086 q 0,-0.41601 0.25781,-0.64453 0.26367,-0.22851 0.63281,-0.22851 0.35742,0 0.61524,0.23437 0.25781,0.22852 0.25781,0.63867 0,0.32813 -0.28125,0.60352 -0.28125,0.27539 -0.60938,0.27539 -0.35742,0 -0.61523,-0.26367 -0.25781,-0.26367 -0.25781,-0.61524 z m 10.57031,4.89844 -1.41211,-2.32031 -0.86719,0.82031 v 1.27149 q 0,0.46289 -0.24609,0.71484 -0.24024,0.24609 -0.55664,0.24609 -0.36914,0 -0.58008,-0.24609 -0.21094,-0.24609 -0.21094,-0.72656 v -6.82032 q 0,-0.5332 0.20508,-0.80859 0.20508,-0.28125 0.58594,-0.28125 0.36914,0 0.58594,0.25195 0.21679,0.25196 0.21679,0.74414 v 3.87891 l 1.79883,-1.88672 q 0.33398,-0.35156 0.50977,-0.48047 0.17578,-0.1289 0.42773,-0.1289 0.29883,0 0.49805,0.19336 0.19922,0.1875 0.19922,0.47461 0,0.35156 -0.65039,0.9375 l -0.84961,0.77929 1.64062,2.57813 q 0.18164,0.28711 0.25781,0.43945 0.082,0.14649 0.082,0.28125 0,0.38086 -0.21093,0.60352 -0.20508,0.21679 -0.54492,0.21679 -0.29297,0 -0.45118,-0.1582 -0.1582,-0.1582 -0.42773,-0.57422 z m 6.48047,-0.16992 q -0.58008,0.45117 -1.125,0.67969 -0.53906,0.22265 -1.21289,0.22265 -0.61524,0 -1.08399,-0.24023 -0.46289,-0.24609 -0.71484,-0.66211 -0.25195,-0.41602 -0.25195,-0.90234 0,-0.65625 0.41601,-1.11914 0.41602,-0.4629 1.14258,-0.6211 0.15234,-0.0352 0.75586,-0.1582 0.60351,-0.12305 1.03125,-0.22266 0.43359,-0.10547 0.9375,-0.25195 -0.0293,-0.63281 -0.25781,-0.92578 -0.22266,-0.29883 -0.93164,-0.29883 -0.60938,0 -0.91993,0.16992 -0.30468,0.16992 -0.52734,0.50977 -0.2168,0.33984 -0.31055,0.45117 -0.0879,0.10547 -0.38672,0.10547 -0.26953,0 -0.46875,-0.16992 -0.19335,-0.17579 -0.19335,-0.44532 0,-0.42187 0.29882,-0.82031 0.29883,-0.39844 0.93164,-0.65625 0.63282,-0.25781 1.57618,-0.25781 1.05468,0 1.6582,0.25195 0.60351,0.2461 0.84961,0.78516 0.25195,0.53906 0.25195,1.42969 0,0.5625 -0.006,0.95507 0,0.39258 -0.006,0.87305 0,0.45117 0.14649,0.94336 0.15234,0.48633 0.15234,0.62695 0,0.2461 -0.23437,0.45117 -0.22852,0.19922 -0.52149,0.19922 -0.24609,0 -0.48633,-0.22851 -0.24023,-0.23438 -0.50976,-0.67383 z m -0.10547,-2.31445 q -0.35156,0.1289 -1.02539,0.27539 -0.66797,0.14062 -0.92578,0.21093 -0.25782,0.0645 -0.49219,0.26368 -0.23438,0.19336 -0.23438,0.54492 0,0.36328 0.2754,0.62109 0.27539,0.25196 0.7207,0.25196 0.47461,0 0.87305,-0.20508 0.40429,-0.21094 0.59179,-0.53907 0.2168,-0.36328 0.2168,-1.19531 z m 8.92969,1.23632 q 0,0.29883 -0.18164,0.63868 -0.17579,0.33984 -0.54493,0.65039 -0.36328,0.30468 -0.91992,0.49218 -0.55664,0.1875 -1.2539,0.1875 -1.48243,0 -2.31446,-0.86132 -0.83203,-0.86719 -0.83203,-2.32032 0,-0.98437 0.38086,-1.74023 0.38086,-0.75586 1.10156,-1.16602 0.72071,-0.41601 1.72266,-0.41601 0.62109,0 1.13672,0.18164 0.52148,0.18164 0.8789,0.46875 0.36329,0.28711 0.55079,0.61523 0.19336,0.32227 0.19336,0.60352 0,0.28711 -0.2168,0.48633 -0.21094,0.19922 -0.51563,0.19922 -0.19922,0 -0.33398,-0.0996 -0.12891,-0.10547 -0.29297,-0.33399 -0.29297,-0.44531 -0.61523,-0.66797 -0.31641,-0.22265 -0.8086,-0.22265 -0.70898,0 -1.14258,0.55664 -0.43359,0.55078 -0.43359,1.51172 0,0.45117 0.11133,0.83203 0.11133,0.375 0.32226,0.64453 0.21094,0.26367 0.50977,0.4043 0.29883,0.13476 0.65625,0.13476 0.48047,0 0.82031,-0.22265 0.34571,-0.22266 0.60938,-0.67969 0.14648,-0.26953 0.3164,-0.42188 0.16993,-0.15234 0.41602,-0.15234 0.29297,0 0.48633,0.22266 0.19336,0.22265 0.19336,0.4746 z m 5.85937,-0.8789 h -3.1289 q 0.006,0.54492 0.21679,0.96094 0.2168,0.41601 0.56836,0.62695 0.35742,0.21094 0.78516,0.21094 0.28711,0 0.52148,-0.0645 0.24024,-0.0703 0.46289,-0.21093 0.22266,-0.14649 0.41016,-0.31055 0.1875,-0.16406 0.48633,-0.44531 0.12304,-0.10547 0.35156,-0.10547 0.24609,0 0.39844,0.13476 0.15234,0.13477 0.15234,0.38086 0,0.2168 -0.16992,0.50977 -0.16992,0.28711 -0.51563,0.55664 -0.33984,0.26367 -0.86132,0.43945 -0.51563,0.17578 -1.18946,0.17578 -1.54101,0 -2.39648,-0.8789 -0.85547,-0.87891 -0.85547,-2.38477 0,-0.70898 0.21094,-1.3125 0.21093,-0.60937 0.61523,-1.04297 0.4043,-0.43359 0.9961,-0.66211 0.59179,-0.23437 1.3125,-0.23437 0.9375,0 1.60546,0.39844 0.67383,0.39257 1.00782,1.01953 0.33398,0.62695 0.33398,1.27734 0,0.60352 -0.3457,0.78516 -0.34571,0.17578 -0.97266,0.17578 z m -3.1289,-0.9082 h 2.90039 q -0.0586,-0.82032 -0.44532,-1.22461 -0.38086,-0.41016 -1.00781,-0.41016 -0.59766,0 -0.98437,0.41602 -0.38086,0.41015 -0.46289,1.21875 z m 7.38281,1.45898 v 1.33594 q 0,0.48633 -0.22852,0.73242 -0.22851,0.24023 -0.58008,0.24023 -0.3457,0 -0.56836,-0.24609 -0.22265,-0.24609 -0.22265,-0.72656 v -4.45313 q 0,-1.07812 0.7793,-1.07812 0.39843,0 0.57421,0.25195 0.17579,0.25195 0.19336,0.74414 0.28711,-0.49219 0.58594,-0.74414 0.30469,-0.25195 0.80859,-0.25195 0.50391,0 0.97852,0.25195 0.47461,0.25195 0.47461,0.66797 0,0.29297 -0.20508,0.48633 -0.19922,0.1875 -0.43359,0.1875 -0.0879,0 -0.42774,-0.10547 -0.33398,-0.11133 -0.59179,-0.11133 -0.35157,0 -0.57422,0.1875 -0.22266,0.18164 -0.34571,0.54492 -0.12304,0.36328 -0.16992,0.86719 -0.0469,0.49805 -0.0469,1.21875 z m 7.52344,1.40625 v -0.20508 q -0.28711,0.36328 -0.60352,0.60938 -0.31641,0.24609 -0.69141,0.36328 -0.375,0.12304 -0.85547,0.12304 -0.58007,0 -1.04296,-0.24023 -0.45704,-0.24023 -0.70899,-0.66211 -0.29883,-0.50976 -0.29883,-1.46484 v -3.16992 q 0,-0.48047 0.2168,-0.71485 0.2168,-0.24023 0.57422,-0.24023 0.36328,0 0.58594,0.24023 0.22265,0.24024 0.22265,0.71485 v 2.56054 q 0,0.55664 0.0937,0.9375 0.0937,0.375 0.33399,0.5918 0.24609,0.21094 0.66211,0.21094 0.40429,0 0.76172,-0.24024 0.35742,-0.24023 0.52148,-0.62695 0.13477,-0.33984 0.13477,-1.48828 v -1.94531 q 0,-0.47461 0.22265,-0.71485 0.22266,-0.24023 0.58008,-0.24023 0.35742,0 0.57422,0.24023 0.2168,0.23438 0.2168,0.71485 v 4.63476 q 0,0.45703 -0.21094,0.68555 -0.20508,0.22851 -0.53321,0.22851 -0.32812,0 -0.54492,-0.23437 -0.21093,-0.24024 -0.21093,-0.66797 z m 7.07812,0.16992 -1.41211,-2.32031 -0.86719,0.82031 v 1.27149 q 0,0.46289 -0.24609,0.71484 -0.24023,0.24609 -0.55664,0.24609 -0.36914,0 -0.58008,-0.24609 -0.21094,-0.24609 -0.21094,-0.72656 v -6.82032 q 0,-0.5332 0.20508,-0.80859 0.20508,-0.28125 0.58594,-0.28125 0.36914,0 0.58594,0.25195 0.21679,0.25196 0.21679,0.74414 v 3.87891 l 1.79883,-1.88672 q 0.33399,-0.35156 0.50977,-0.48047 0.17578,-0.1289 0.42773,-0.1289 0.29883,0 0.49805,0.19336 0.19922,0.1875 0.19922,0.47461 0,0.35156 -0.65039,0.9375 l -0.84961,0.77929 1.64062,2.57813 q 0.18164,0.28711 0.25781,0.43945 0.082,0.14649 0.082,0.28125 0,0.38086 -0.21094,0.60352 -0.20508,0.21679 -0.54492,0.21679 -0.29297,0 -0.45118,-0.1582 -0.1582,-0.1582 -0.42773,-0.57422 z m 4.74609,-0.79687 h 3.0586 q 0.45703,0 0.69726,0.1875 0.24024,0.1875 0.24024,0.50976 0,0.28711 -0.19336,0.48633 -0.1875,0.19922 -0.57422,0.19922 h -4.3125 q -0.43945,0 -0.68555,-0.24024 -0.24609,-0.24609 -0.24609,-0.57421 0,-0.21094 0.1582,-0.55664 0.15821,-0.35157 0.34571,-0.55079 0.77929,-0.80859 1.40625,-1.38281 0.62695,-0.58008 0.89648,-0.76172 0.48047,-0.33984 0.79687,-0.67968 0.32227,-0.34571 0.48633,-0.70313 0.16992,-0.36328 0.16992,-0.70898 0,-0.375 -0.18164,-0.66797 -0.17578,-0.29883 -0.48632,-0.46289 -0.30469,-0.16407 -0.66797,-0.16407 -0.76758,0 -1.20703,0.67383 -0.0586,0.0879 -0.19922,0.48047 -0.13477,0.39258 -0.31055,0.60352 -0.16992,0.21093 -0.50391,0.21093 -0.29296,0 -0.48632,-0.19336 -0.19336,-0.19335 -0.19336,-0.52734 0,-0.4043 0.18164,-0.84375 0.18164,-0.43945 0.53906,-0.79687 0.36328,-0.35743 0.91406,-0.57422 0.55664,-0.22266 1.30078,-0.22266 0.89649,0 1.5293,0.28125 0.41016,0.1875 0.7207,0.51563 0.31055,0.32812 0.48047,0.76171 0.17578,0.42774 0.17578,0.89063 0,0.72656 -0.36328,1.32422 -0.35742,0.5918 -0.73242,0.93164 -0.375,0.33398 -1.25977,1.05469 -0.8789,0.7207 -1.20703,1.11914 -0.14062,0.1582 -0.28711,0.38086 z m 11.01563,-2.83008 q 0,0.96094 -0.11719,1.65234 -0.11719,0.69141 -0.43359,1.25391 -0.39844,0.6914 -1.03125,1.0664 -0.63281,0.375 -1.40625,0.375 -0.89063,0 -1.59961,-0.5039 -0.70313,-0.50391 -1.06055,-1.39453 -0.18164,-0.48633 -0.26953,-1.07227 -0.082,-0.5918 -0.082,-1.27734 0,-0.88477 0.0937,-1.59375 0.0937,-0.70899 0.29297,-1.21875 0.3457,-0.84375 1.00195,-1.28321 0.66211,-0.44531 1.57617,-0.44531 0.60352,0 1.09571,0.19922 0.49218,0.19336 0.86132,0.57422 0.375,0.375 0.63282,0.93164 0.44531,0.9668 0.44531,2.73633 z m -1.60547,-0.11719 q 0,-1.07226 -0.12891,-1.75195 -0.1289,-0.68555 -0.43359,-1.03125 -0.30469,-0.35156 -0.84375,-0.35156 -0.77344,0 -1.07812,0.77929 -0.29883,0.7793 -0.29883,2.40235 0,1.10156 0.1289,1.80468 0.12891,0.70313 0.4336,1.06641 0.30468,0.35742 0.82617,0.35742 0.53906,0 0.84375,-0.375 0.30469,-0.375 0.42773,-1.07226 0.12305,-0.69727 0.12305,-1.82813 z m 4.85156,2.94727 h 3.0586 q 0.45703,0 0.69726,0.1875 0.24024,0.1875 0.24024,0.50976 0,0.28711 -0.19336,0.48633 -0.1875,0.19922 -0.57422,0.19922 h -4.3125 q -0.43945,0 -0.68555,-0.24024 -0.24609,-0.24609 -0.24609,-0.57421 0,-0.21094 0.1582,-0.55664 0.1582,-0.35157 0.3457,-0.55079 0.7793,-0.80859 1.40625,-1.38281 0.62696,-0.58008 0.89649,-0.76172 0.48047,-0.33984 0.79687,-0.67968 0.32227,-0.34571 0.48633,-0.70313 0.16992,-0.36328 0.16992,-0.70898 0,-0.375 -0.18164,-0.66797 -0.17578,-0.29883 -0.48633,-0.46289 -0.30468,-0.16407 -0.66796,-0.16407 -0.76758,0 -1.20704,0.67383 -0.0586,0.0879 -0.19921,0.48047 -0.13477,0.39258 -0.31055,0.60352 -0.16992,0.21093 -0.50391,0.21093 -0.29297,0 -0.48633,-0.19336 -0.19335,-0.19335 -0.19335,-0.52734 0,-0.4043 0.18164,-0.84375 0.18164,-0.43945 0.53906,-0.79687 0.36328,-0.35743 0.91406,-0.57422 0.55664,-0.22266 1.30078,-0.22266 0.89649,0 1.5293,0.28125 0.41016,0.1875 0.7207,0.51563 0.31055,0.32812 0.48047,0.76171 0.17578,0.42774 0.17578,0.89063 0,0.72656 -0.36328,1.32422 -0.35742,0.5918 -0.73242,0.93164 -0.375,0.33398 -1.25977,1.05469 -0.8789,0.7207 -1.20703,1.11914 -0.14062,0.1582 -0.28711,0.38086 z m 7.74024,-3.80274 q 0.53906,0 0.92578,-0.3164 0.39258,-0.31641 0.39258,-0.90821 0,-0.45117 -0.31055,-0.77343 -0.31055,-0.32813 -0.83789,-0.32813 -0.35742,0 -0.5918,0.0996 -0.22851,0.0996 -0.36328,0.26367 -0.13476,0.16406 -0.25781,0.42188 -0.11719,0.25781 -0.2168,0.48632 -0.0586,0.12305 -0.21094,0.19336 -0.15234,0.0703 -0.35156,0.0703 -0.23437,0 -0.43359,-0.1875 -0.19336,-0.19336 -0.19336,-0.50977 0,-0.30469 0.18164,-0.63867 0.1875,-0.33984 0.53906,-0.64453 0.35742,-0.30469 0.88477,-0.48633 0.52734,-0.1875 1.17773,-0.1875 0.56836,0 1.03711,0.1582 0.46875,0.15235 0.81445,0.44532 0.34571,0.29296 0.52149,0.67968 0.17578,0.38672 0.17578,0.83203 0,0.58594 -0.25781,1.00782 -0.25196,0.41601 -0.72657,0.81445 0.45704,0.24609 0.76758,0.5625 0.31641,0.31641 0.47461,0.70312 0.15821,0.38086 0.15821,0.82618 0,0.5332 -0.2168,1.03125 -0.21094,0.49804 -0.62695,0.89062 -0.41602,0.38672 -0.99024,0.60938 -0.56836,0.21679 -1.25976,0.21679 -0.70313,0 -1.25977,-0.25195 -0.55664,-0.25195 -0.91992,-0.62695 -0.35742,-0.38086 -0.54492,-0.78516 -0.18164,-0.4043 -0.18164,-0.66797 0,-0.33984 0.21679,-0.54492 0.22266,-0.21094 0.55078,-0.21094 0.16407,0 0.31641,0.0996 0.15234,0.0937 0.19922,0.22852 0.30469,0.81445 0.65039,1.21289 0.35156,0.39258 0.98437,0.39258 0.36329,0 0.69727,-0.17578 0.33984,-0.18165 0.55664,-0.53321 0.22266,-0.35156 0.22266,-0.81445 0,-0.68555 -0.375,-1.07227 -0.375,-0.39257 -1.04297,-0.39257 -0.11719,0 -0.36328,0.0234 -0.2461,0.0234 -0.31641,0.0234 -0.32227,0 -0.49805,-0.1582 -0.17578,-0.16407 -0.17578,-0.45117 0,-0.28125 0.21094,-0.45118 0.21094,-0.17578 0.62695,-0.17578 z m 11.12695,-0.36914 0.14648,-0.65039 h 1.54688 l -0.89063,4.20117 q -0.082,0.39844 -0.082,0.52735 0,0.13476 0.0645,0.21093 0.0703,0.0762 0.16406,0.0762 0.31641,0 0.81445,-0.41016 0.50391,-0.41602 0.87305,-1.125 0.375,-0.71484 0.375,-1.55859 0,-0.70313 -0.26953,-1.32422 -0.26367,-0.6211 -0.76758,-1.07813 -0.50391,-0.45703 -1.24805,-0.71484 -0.73828,-0.25781 -1.67578,-0.25781 -0.95508,0 -1.75195,0.25195 -0.79688,0.24609 -1.40039,0.71484 -0.60352,0.46289 -1.00781,1.14844 -0.35743,0.59766 -0.54493,1.32422 -0.1875,0.72656 -0.1875,1.48242 0,1.00781 0.39844,1.8457 0.4043,0.83204 1.16602,1.39454 0.76757,0.56835 1.85156,0.80273 1.08398,0.24023 2.44922,0.0996 1.08398,-0.12891 1.83398,-0.49219 0.75586,-0.36328 1.27735,-1.01953 h 1.24804 q -0.30468,0.62695 -0.79687,1.11914 -0.48633,0.49219 -1.14258,0.82617 -0.65625,0.33985 -1.4707,0.51563 -0.81446,0.17578 -1.77539,0.17578 -1.44141,0 -2.59571,-0.38086 -1.15429,-0.375 -1.94531,-1.08984 -0.78516,-0.70899 -1.18945,-1.69336 -0.4043,-0.99024 -0.4043,-2.18555 0,-1.24805 0.41602,-2.33203 0.41601,-1.08399 1.19531,-1.88086 0.78515,-0.80274 1.91015,-1.25391 1.13086,-0.45117 2.49024,-0.45117 1.11328,0 2.03906,0.32813 0.93164,0.32226 1.59375,0.93164 0.66211,0.60937 1.00781,1.44726 0.35157,0.83203 0.35157,1.83985 0,0.78515 -0.28125,1.54101 -0.28125,0.75 -0.8086,1.35352 -0.52148,0.59765 -1.23047,0.94922 -0.70898,0.3457 -1.52929,0.3457 -0.47461,0 -0.73828,-0.1582 -0.26368,-0.16407 -0.35157,-0.51563 -0.50976,0.50391 -1.17187,0.63867 -0.66211,0.12891 -1.2832,-0.12304 -0.6211,-0.25782 -1.00782,-0.86133 -0.38086,-0.60352 -0.38086,-1.48828 0,-0.91993 0.39258,-1.81055 0.39844,-0.89063 1.125,-1.45898 0.73242,-0.56836 1.65235,-0.56836 1.05468,0 1.54687,0.79101 z m -3.20508,3.03516 q 0,0.70312 0.29297,1.07812 0.29297,0.375 0.76758,0.375 0.55078,0 0.9668,-0.43945 0.42187,-0.43945 0.63867,-1.10742 0.21679,-0.67383 0.21679,-1.30078 0,-0.31055 -0.0762,-0.55664 -0.0703,-0.25196 -0.21679,-0.43946 -0.14063,-0.1875 -0.34571,-0.28125 -0.19922,-0.0996 -0.45703,-0.0996 -0.51562,0 -0.93164,0.4043 -0.41016,0.39844 -0.63281,1.04297 -0.22266,0.63867 -0.22266,1.32422 z m 14.37891,-2.66602 v 4.64649 q 0,0.79687 -0.16992,1.37109 -0.16993,0.57422 -0.54493,0.94922 -0.375,0.375 -0.98437,0.55664 -0.60352,0.18164 -1.50586,0.18164 -0.82617,0 -1.47656,-0.23437 -0.65039,-0.22852 -1.00196,-0.59766 -0.35156,-0.36328 -0.35156,-0.75 0,-0.29297 0.19922,-0.48047 0.19922,-0.18164 0.48047,-0.18164 0.35156,0 0.61523,0.31055 0.12891,0.1582 0.26368,0.3164 0.14062,0.16407 0.30468,0.27539 0.16993,0.11719 0.4043,0.16993 0.23438,0.0586 0.53906,0.0586 0.6211,0 0.96094,-0.17578 0.3457,-0.16992 0.48047,-0.48047 0.14062,-0.31055 0.16406,-0.66797 0.0234,-0.35156 0.0352,-1.13672 -0.36914,0.51563 -0.85547,0.78516 -0.48047,0.26953 -1.14844,0.26953 -0.80273,0 -1.40625,-0.41016 -0.59765,-0.41015 -0.91992,-1.14843 -0.32227,-0.73829 -0.32227,-1.70508 0,-0.72071 0.19336,-1.30078 0.19922,-0.58008 0.5625,-0.97852 0.36328,-0.39844 0.83789,-0.59766 0.47461,-0.20507 1.04297,-0.20507 0.67969,0 1.17774,0.26367 0.49804,0.25781 0.92578,0.81445 v -0.2168 q 0,-0.41601 0.20508,-0.64453 0.20507,-0.22851 0.52734,-0.22851 0.46289,0 0.61523,0.30468 0.15235,0.29883 0.15235,0.86719 z m -4.63477,2.02735 q 0,0.97265 0.42188,1.4707 0.42773,0.49805 1.10156,0.49805 0.39844,0 0.75,-0.21094 0.35742,-0.2168 0.58008,-0.64453 0.22265,-0.4336 0.22265,-1.04883 0,-0.97852 -0.43359,-1.52344 -0.42773,-0.54492 -1.13086,-0.54492 -0.68555,0 -1.10156,0.52148 -0.41016,0.52149 -0.41016,1.48243 z m 11.57227,0.16992 v 2.12695 q 0,0.50391 -0.22852,0.75586 -0.22851,0.25195 -0.60351,0.25195 -0.36328,0 -0.5918,-0.25195 -0.22266,-0.25195 -0.22266,-0.75586 v -2.54883 q 0,-0.60351 -0.041,-0.9375 -0.041,-0.33398 -0.22266,-0.54492 -0.18164,-0.2168 -0.57422,-0.2168 -0.78515,0 -1.03711,0.53907 -0.24609,0.53906 -0.24609,1.54687 v 2.16211 q 0,0.49805 -0.22852,0.75586 -0.22265,0.25195 -0.59179,0.25195 -0.36328,0 -0.59766,-0.25195 -0.22851,-0.25781 -0.22851,-0.75586 v -4.57617 q 0,-0.45117 0.20507,-0.68555 0.21094,-0.23437 0.55079,-0.23437 0.32812,0 0.54492,0.22265 0.22265,0.2168 0.22265,0.60352 v 0.15234 q 0.41602,-0.49804 0.89063,-0.73242 0.47461,-0.23437 1.05469,-0.23437 0.60351,0 1.03711,0.24023 0.43359,0.24023 0.71484,0.72656 0.4043,-0.49218 0.86719,-0.72656 0.46289,-0.24023 1.02539,-0.24023 0.65625,0 1.13086,0.25781 0.47461,0.25781 0.70898,0.73828 0.20508,0.43359 0.20508,1.36523 v 3.12305 q 0,0.50391 -0.22852,0.75586 -0.22851,0.25195 -0.60351,0.25195 -0.36328,0 -0.59766,-0.25195 -0.22851,-0.25781 -0.22851,-0.75586 v -2.68945 q 0,-0.51563 -0.0469,-0.82617 -0.041,-0.31055 -0.23437,-0.52149 -0.19336,-0.21094 -0.58594,-0.21094 -0.31641,0 -0.60352,0.1875 -0.28125,0.1875 -0.43945,0.50391 -0.17578,0.4043 -0.17578,1.42969 z m 9.33984,2.23242 q -0.58008,0.45117 -1.125,0.67969 -0.53906,0.22265 -1.21289,0.22265 -0.61523,0 -1.08398,-0.24023 -0.46289,-0.24609 -0.71485,-0.66211 -0.25195,-0.41602 -0.25195,-0.90234 0,-0.65625 0.41602,-1.11914 0.41601,-0.4629 1.14257,-0.6211 0.15235,-0.0352 0.75586,-0.1582 0.60352,-0.12305 1.03125,-0.22266 0.4336,-0.10547 0.9375,-0.25195 -0.0293,-0.63281 -0.25781,-0.92578 -0.22266,-0.29883 -0.93164,-0.29883 -0.60937,0 -0.91992,0.16992 -0.30469,0.16992 -0.52735,0.50977 -0.21679,0.33984 -0.31054,0.45117 -0.0879,0.10547 -0.38672,0.10547 -0.26953,0 -0.46875,-0.16992 -0.19336,-0.17579 -0.19336,-0.44532 0,-0.42187 0.29883,-0.82031 0.29883,-0.39844 0.93164,-0.65625 0.63281,-0.25781 1.57617,-0.25781 1.05469,0 1.6582,0.25195 0.60352,0.2461 0.84961,0.78516 0.25196,0.53906 0.25196,1.42969 0,0.5625 -0.006,0.95507 0,0.39258 -0.006,0.87305 0,0.45117 0.14648,0.94336 0.15235,0.48633 0.15235,0.62695 0,0.2461 -0.23438,0.45117 -0.22852,0.19922 -0.52148,0.19922 -0.2461,0 -0.48633,-0.22851 -0.24024,-0.23438 -0.50977,-0.67383 z m -0.10547,-2.31445 q -0.35156,0.1289 -1.02539,0.27539 -0.66797,0.14062 -0.92578,0.21093 -0.25781,0.0645 -0.49219,0.26368 -0.23437,0.19336 -0.23437,0.54492 0,0.36328 0.27539,0.62109 0.27539,0.25196 0.7207,0.25196 0.47461,0 0.87305,-0.20508 0.4043,-0.21094 0.5918,-0.53907 0.21679,-0.36328 0.21679,-1.19531 z m 4.79297,-2.37891 v 4.62305 q 0,0.48047 -0.22851,0.72656 -0.22852,0.24609 -0.58008,0.24609 -0.35156,0 -0.57422,-0.25195 -0.2168,-0.25195 -0.2168,-0.7207 v -4.57617 q 0,-0.47461 0.2168,-0.71485 0.22266,-0.24023 0.57422,-0.24023 0.35156,0 0.58008,0.24023 0.22851,0.24024 0.22851,0.66797 z m -0.79101,-1.65234 q -0.33399,0 -0.57422,-0.20508 -0.23438,-0.20508 -0.23438,-0.58008 0,-0.33984 0.24024,-0.55664 0.24609,-0.22266 0.56836,-0.22266 0.31054,0 0.55078,0.19922 0.24023,0.19922 0.24023,0.58008 0,0.36914 -0.23437,0.58008 -0.23438,0.20508 -0.55664,0.20508 z m 2.44336,6.27539 v -6.9375 q 0,-0.48047 0.21093,-0.72657 0.2168,-0.24609 0.58008,-0.24609 0.36328,0 0.58594,0.24609 0.22266,0.24024 0.22266,0.72657 v 6.9375 q 0,0.48633 -0.22852,0.73242 -0.22266,0.24023 -0.58008,0.24023 -0.35156,0 -0.57422,-0.25195 -0.21679,-0.25195 -0.21679,-0.7207 z m 4.3125,0.97265 q -0.36329,0 -0.62696,-0.23437 -0.26367,-0.23438 -0.26367,-0.65625 0,-0.35742 0.25195,-0.61524 0.25196,-0.25781 0.6211,-0.25781 0.36914,0 0.62695,0.25781 0.26367,0.25196 0.26367,0.61524 0,0.41601 -0.26367,0.65625 -0.25781,0.23437 -0.60937,0.23437 z m 8.43164,-1.98047 q 0,0.29883 -0.18164,0.63868 -0.17579,0.33984 -0.54493,0.65039 -0.36328,0.30468 -0.91992,0.49218 -0.55664,0.1875 -1.2539,0.1875 -1.48243,0 -2.31446,-0.86132 -0.83203,-0.86719 -0.83203,-2.32032 0,-0.98437 0.38086,-1.74023 0.38086,-0.75586 1.10156,-1.16602 0.72071,-0.41601 1.72266,-0.41601 0.62109,0 1.13672,0.18164 0.52148,0.18164 0.8789,0.46875 0.36329,0.28711 0.55079,0.61523 0.19336,0.32227 0.19336,0.60352 0,0.28711 -0.2168,0.48633 -0.21094,0.19922 -0.51563,0.19922 -0.19922,0 -0.33398,-0.0996 -0.12891,-0.10547 -0.29297,-0.33399 -0.29297,-0.44531 -0.61523,-0.66797 -0.31641,-0.22265 -0.8086,-0.22265 -0.70898,0 -1.14258,0.55664 -0.43359,0.55078 -0.43359,1.51172 0,0.45117 0.11133,0.83203 0.11133,0.375 0.32226,0.64453 0.21094,0.26367 0.50977,0.4043 0.29883,0.13476 0.65625,0.13476 0.48047,0 0.82031,-0.22265 0.34571,-0.22266 0.60938,-0.67969 0.14648,-0.26953 0.3164,-0.42188 0.16993,-0.15234 0.41602,-0.15234 0.29297,0 0.48633,0.22266 0.19336,0.22265 0.19336,0.4746 z m 7.38281,-1.27148 q 0,0.71484 -0.22266,1.31836 -0.22265,0.60352 -0.64453,1.03711 -0.42187,0.43359 -1.00781,0.66797 -0.58594,0.22851 -1.31836,0.22851 -0.72656,0 -1.30664,-0.23437 -0.58008,-0.23438 -1.00781,-0.66797 -0.42188,-0.43945 -0.64453,-1.03125 -0.2168,-0.59766 -0.2168,-1.31836 0,-0.72656 0.22265,-1.33008 0.22266,-0.60351 0.63868,-1.03125 0.41601,-0.42773 1.00781,-0.65625 0.5918,-0.23437 1.30664,-0.23437 0.72656,0 1.31836,0.23437 0.5918,0.23438 1.01367,0.66797 0.42188,0.43359 0.63867,1.03125 0.22266,0.59766 0.22266,1.31836 z m -1.60547,0 q 0,-0.97852 -0.43359,-1.52344 -0.42774,-0.54492 -1.1543,-0.54492 -0.46875,0 -0.82617,0.24609 -0.35742,0.24024 -0.55078,0.71485 -0.19336,0.47461 -0.19336,1.10742 0,0.62695 0.1875,1.0957 0.19336,0.46875 0.54492,0.72071 0.35742,0.24609 0.83789,0.24609 0.72656,0 1.1543,-0.54492 0.43359,-0.55078 0.43359,-1.51758 z m 8.18555,0.11719 v 2.12695 q 0,0.50391 -0.22852,0.75586 -0.22851,0.25195 -0.60351,0.25195 -0.36329,0 -0.5918,-0.25195 -0.22266,-0.25195 -0.22266,-0.75586 v -2.54883 q 0,-0.60351 -0.041,-0.9375 -0.041,-0.33398 -0.22266,-0.54492 -0.18164,-0.2168 -0.57422,-0.2168 -0.78515,0 -1.03711,0.53907 -0.24609,0.53906 -0.24609,1.54687 v 2.16211 q 0,0.49805 -0.22852,0.75586 -0.22265,0.25195 -0.59179,0.25195 -0.36328,0 -0.59766,-0.25195 -0.22852,-0.25781 -0.22852,-0.75586 v -4.57617 q 0,-0.45117 0.20508,-0.68555 0.21094,-0.23437 0.55078,-0.23437 0.32813,0 0.54493,0.22265 0.22265,0.2168 0.22265,0.60352 v 0.15234 q 0.41602,-0.49804 0.89063,-0.73242 0.47461,-0.23437 1.05468,-0.23437 0.60352,0 1.03711,0.24023 0.4336,0.24023 0.71485,0.72656 0.40429,-0.49218 0.86719,-0.72656 0.46289,-0.24023 1.02539,-0.24023 0.65625,0 1.13086,0.25781 0.4746,0.25781 0.70898,0.73828 0.20508,0.43359 0.20508,1.36523 v 3.12305 q 0,0.50391 -0.22852,0.75586 -0.22851,0.25195 -0.60351,0.25195 -0.36328,0 -0.59766,-0.25195 -0.22852,-0.25781 -0.22852,-0.75586 v -2.68945 q 0,-0.51563 -0.0469,-0.82617 -0.041,-0.31055 -0.23438,-0.52149 -0.19335,-0.21094 -0.58593,-0.21094 -0.31641,0 -0.60352,0.1875 -0.28125,0.1875 -0.43945,0.50391 -0.17578,0.4043 -0.17578,1.42969 z"
         id="text4"
         style="font-size:12px;font-family:'Arial Rounded MT Bold';-inkscape-font-specification:'Arial Rounded MT Bold, '"
         aria-label="Email: kaceruk2023@gmail.com" />
      <path
         d="m 535.23437,292.75919 h -1.23632 l -0.85547,-2.43164 h -3.77344 l -0.85547,2.43164 h -1.17773 l 3.17578,-8.72461 h 1.54687 z m -2.44921,-3.42774 -1.5293,-4.2832 -1.53516,4.2832 z m 9.62695,4.99805 h -1.02539 v -1.58789 h -4.92188 v 1.58789 h -1.02539 v -2.50781 h 0.70899 q 0.68554,-1.13086 1.01953,-2.60743 0.33984,-1.48242 0.33984,-3 h 4.11328 v 5.60743 h 0.79102 z m -1.89258,-2.50781 v -4.68164 h -1.97461 q -0.0762,1.4707 -0.45117,2.68359 -0.375,1.21289 -0.86133,1.99805 z m 9.16992,-2.41407 q 0,0.79688 -0.22851,1.45899 -0.22852,0.65625 -0.64453,1.11328 -0.38672,0.43359 -0.91407,0.67383 -0.52148,0.23437 -1.10742,0.23437 -0.50976,0 -0.92578,-0.11133 -0.41016,-0.11132 -0.83789,-0.3457 v 2.74219 h -1.10156 v -8.95899 h 1.10156 v 0.68555 q 0.43945,-0.36914 0.98437,-0.61523 0.55079,-0.25196 1.17188,-0.25196 1.18359,0 1.83984,0.89649 0.66211,0.89062 0.66211,2.47851 z m -1.13672,0.0293 q 0,-1.18359 -0.40429,-1.76953 -0.4043,-0.58594 -1.24219,-0.58594 -0.47461,0 -0.95508,0.20508 -0.48047,0.20508 -0.91992,0.53906 v 3.70899 q 0.46875,0.21093 0.80273,0.28711 0.33985,0.0762 0.76758,0.0762 0.91992,0 1.43555,-0.6211 0.51562,-0.62109 0.51562,-1.83984 z m 8.33204,0.16406 h -4.82227 q 0,0.60352 0.18164,1.05469 0.18164,0.44531 0.49805,0.73242 0.30468,0.28125 0.7207,0.42188 0.42188,0.14062 0.92578,0.14062 0.66797,0 1.3418,-0.26367 0.67969,-0.26953 0.9668,-0.52734 h 0.0586 v 1.20117 q -0.55664,0.23437 -1.13672,0.39258 -0.58008,0.1582 -1.21875,0.1582 -1.62891,0 -2.54297,-0.87891 -0.91406,-0.88476 -0.91406,-2.50781 0,-1.60547 0.87305,-2.54883 0.8789,-0.94336 2.30859,-0.94336 1.32422,0 2.03906,0.77344 0.72071,0.77344 0.72071,2.19727 z m -1.07227,-0.84375 q -0.006,-0.86718 -0.43945,-1.34179 -0.42774,-0.47461 -1.30664,-0.47461 -0.88477,0 -1.41211,0.52148 -0.52149,0.52149 -0.5918,1.29492 z m 7.64062,3.5918 q -0.67382,0.31641 -1.16015,0.43359 -0.48047,0.12305 -0.96094,0.12305 -0.71484,0 -1.3125,-0.20508 -0.59766,-0.21094 -1.02539,-0.63281 -0.42773,-0.42188 -0.66797,-1.06641 -0.23437,-0.64453 -0.23437,-1.50586 0,-1.56445 0.86718,-2.49609 0.86719,-0.9375 2.37305,-0.9375 0.56836,0 1.11328,0.1582 0.55078,0.15821 1.00781,0.38672 v 1.22461 h -0.0644 q -0.54492,-0.41601 -1.07812,-0.61523 -0.52735,-0.19922 -1.02539,-0.19922 -0.97852,0 -1.51758,0.65625 -0.53321,0.65625 -0.53321,1.82226 0,1.16602 0.53321,1.81055 0.5332,0.64453 1.51758,0.64453 0.3457,0 0.68554,-0.0879 0.34571,-0.0879 0.62696,-0.22851 0.22265,-0.11133 0.45703,-0.26368 0.24023,-0.1582 0.33398,-0.23437 h 0.0644 z m 2.31446,0.55664 q -0.36328,0 -0.62696,-0.23437 -0.26367,-0.23438 -0.26367,-0.65625 0,-0.35743 0.25196,-0.61524 0.25195,-0.25781 0.62109,-0.25781 0.36914,0 0.62695,0.25781 0.26367,0.25195 0.26367,0.61524 0,0.41601 -0.26367,0.65625 -0.25781,0.23437 -0.60937,0.23437 z m -0.89063,-5.63086 q 0,-0.41601 0.25782,-0.64453 0.26367,-0.22852 0.63281,-0.22852 0.35742,0 0.61523,0.23438 0.25781,0.22851 0.25781,0.63867 0,0.32813 -0.28125,0.60352 -0.28125,0.27539 -0.60937,0.27539 -0.35742,0 -0.61523,-0.26367 -0.25782,-0.26368 -0.25782,-0.61524 z m 11.35547,-0.0937 h -3.41015 v 5.57813 h -1.10157 v -6.54493 h 4.51172 z m 1.94531,5.72461 q -0.36328,0 -0.62695,-0.23437 -0.26367,-0.23438 -0.26367,-0.65625 0,-0.35743 0.25195,-0.61524 0.25196,-0.25781 0.6211,-0.25781 0.36914,0 0.62695,0.25781 0.26367,0.25195 0.26367,0.61524 0,0.41601 -0.26367,0.65625 -0.25781,0.23437 -0.60938,0.23437 z m 12.7793,-0.7793 q -0.32226,0.14063 -0.58594,0.26368 -0.25781,0.12304 -0.67968,0.25781 -0.35743,0.11133 -0.7793,0.1875 -0.41602,0.082 -0.91992,0.082 -0.94922,0 -1.72852,-0.26367 -0.77344,-0.26953 -1.34765,-0.83789 -0.5625,-0.55664 -0.87891,-1.41211 -0.31641,-0.86133 -0.31641,-1.99805 0,-1.07812 0.30469,-1.92773 0.30469,-0.84961 0.87891,-1.43555 0.55664,-0.56836 1.34179,-0.86719 0.79102,-0.29883 1.75196,-0.29883 0.70312,0 1.40039,0.16993 0.70312,0.16992 1.55859,0.59765 v 1.37695 h -0.0879 q -0.7207,-0.60351 -1.42969,-0.8789 -0.70898,-0.27539 -1.51758,-0.27539 -0.6621,0 -1.19531,0.21679 -0.52734,0.21094 -0.94336,0.66211 -0.40429,0.43946 -0.63281,1.11329 -0.22266,0.66796 -0.22266,1.54687 0,0.91992 0.2461,1.58203 0.25195,0.66211 0.64453,1.07813 0.41016,0.43359 0.95508,0.64453 0.55078,0.20508 1.16015,0.20508 0.83789,0 1.57032,-0.28711 0.73242,-0.28711 1.37109,-0.86133 h 0.082 z m 6.63867,0.63282 H 596.5 v -0.69727 q -0.14648,0.0996 -0.39844,0.28125 -0.24609,0.17578 -0.48047,0.28125 -0.27539,0.13477 -0.63281,0.22266 -0.35742,0.0937 -0.83789,0.0937 -0.88477,0 -1.5,-0.58594 -0.61523,-0.58594 -0.61523,-1.49414 0,-0.74414 0.3164,-1.20117 0.32227,-0.46289 0.91406,-0.72657 0.59766,-0.26367 1.43555,-0.35742 0.83789,-0.0937 1.79883,-0.14062 v -0.16992 q 0,-0.375 -0.13477,-0.6211 -0.1289,-0.24609 -0.375,-0.38672 -0.23437,-0.13476 -0.5625,-0.18164 -0.32812,-0.0469 -0.68554,-0.0469 -0.4336,0 -0.9668,0.11718 -0.5332,0.11133 -1.10156,0.32813 h -0.0586 v -1.11914 q 0.32227,-0.0879 0.93164,-0.19336 0.60938,-0.10547 1.20118,-0.10547 0.6914,0 1.20117,0.11719 0.51562,0.11133 0.89062,0.38672 0.36914,0.26953 0.5625,0.69726 0.19336,0.42774 0.19336,1.06055 z M 596.5,291.14786 v -1.82227 q -0.50391,0.0293 -1.18945,0.0879 -0.67969,0.0586 -1.07813,0.16992 -0.47461,0.13477 -0.76758,0.42188 -0.29297,0.28125 -0.29297,0.7793 0,0.5625 0.33985,0.84961 0.33984,0.28125 1.03711,0.28125 0.58008,0 1.06054,-0.22266 0.48047,-0.22852 0.89063,-0.54492 z m 8.69531,1.61133 h -1.10156 v -2.94727 h -3.27539 v 2.94727 h -1.10156 v -6.54493 h 1.10156 v 2.64844 h 3.27539 v -2.64844 h 1.10156 z m 8.07422,0 h -1.44141 l -2.71875,-3 h -0.59765 v 3 h -1.10156 v -6.54493 h 1.10156 v 2.82422 q 0.54492,0 0.8789,-0.19336 0.33399,-0.19922 0.56836,-0.63281 0.082,-0.1582 0.15821,-0.33398 0.082,-0.18164 0.1582,-0.34571 0.30469,-0.66211 0.76172,-0.99023 0.45703,-0.32813 1.3125,-0.32813 h 0.50391 v 0.94922 h -0.48633 q -0.46289,0 -0.72657,0.19922 -0.25781,0.19336 -0.46875,0.68555 -0.23437,0.55078 -0.49804,0.82617 -0.25781,0.26953 -0.55078,0.41016 z m 6.00586,-5.57813 h -2.36719 v 5.57813 h -1.10156 v -5.57813 h -2.36719 v -0.9668 h 5.83594 z m 2.98828,3.16406 h -1.85156 q -0.42188,0 -0.64453,-0.19336 -0.2168,-0.19921 -0.2168,-0.50976 0,-0.31641 0.21094,-0.50977 0.2168,-0.19922 0.65039,-0.19922 h 1.85156 q 0.4336,0 0.64453,0.19922 0.2168,0.19336 0.2168,0.50977 0,0.31055 -0.21094,0.50976 -0.21094,0.19336 -0.65039,0.19336 z m 8.91211,2.41407 h -1.16016 v -7.69336 h -4.35351 v 7.69336 h -1.16016 v -8.72461 h 6.67383 z m 7.73438,-3.15821 h -4.82227 q 0,0.60352 0.18164,1.05469 0.18164,0.44531 0.49805,0.73242 0.30469,0.28125 0.7207,0.42188 0.42188,0.14062 0.92578,0.14062 0.66797,0 1.3418,-0.26367 0.67969,-0.26953 0.9668,-0.52734 h 0.0586 v 1.20117 q -0.55664,0.23437 -1.13672,0.39258 -0.58008,0.1582 -1.21875,0.1582 -1.62891,0 -2.54297,-0.87891 -0.91406,-0.88476 -0.91406,-2.50781 0,-1.60547 0.87305,-2.54883 0.8789,-0.94336 2.30859,-0.94336 1.32422,0 2.03906,0.77344 0.72071,0.77344 0.72071,2.19727 z m -1.07227,-0.84375 q -0.006,-0.86718 -0.43945,-1.34179 -0.42774,-0.47461 -1.30664,-0.47461 -0.88477,0 -1.41211,0.52148 -0.52149,0.52149 -0.5918,1.29492 z m 7.55273,-1.57617 h -2.36718 v 5.57813 h -1.10157 v -5.57813 h -2.36718 v -0.9668 h 5.83593 z m 6.6211,2.41992 h -4.82227 q 0,0.60352 0.18164,1.05469 0.18164,0.44531 0.49805,0.73242 0.30469,0.28125 0.7207,0.42188 0.42188,0.14062 0.92578,0.14062 0.66797,0 1.3418,-0.26367 0.67969,-0.26953 0.9668,-0.52734 h 0.0586 v 1.20117 q -0.55664,0.23437 -1.13672,0.39258 -0.58007,0.1582 -1.21875,0.1582 -1.6289,0 -2.54297,-0.87891 -0.91406,-0.88476 -0.91406,-2.50781 0,-1.60547 0.87305,-2.54883 0.87891,-0.94336 2.30859,-0.94336 1.32422,0 2.03907,0.77344 0.7207,0.77344 0.7207,2.19727 z m -1.07227,-0.84375 q -0.006,-0.86718 -0.43945,-1.34179 -0.42773,-0.47461 -1.30664,-0.47461 -0.88477,0 -1.41211,0.52148 -0.52148,0.52149 -0.5918,1.29492 z m 8.50196,0.65039 q 0,0.79688 -0.22852,1.45899 -0.22852,0.65625 -0.64453,1.11328 -0.38672,0.43359 -0.91406,0.67383 -0.52149,0.23437 -1.10743,0.23437 -0.50976,0 -0.92578,-0.11133 -0.41015,-0.11132 -0.83789,-0.3457 v 2.74219 h -1.10156 v -8.95899 h 1.10156 v 0.68555 q 0.43946,-0.36914 0.98438,-0.61523 0.55078,-0.25196 1.17187,-0.25196 1.1836,0 1.83985,0.89649 0.66211,0.89062 0.66211,2.47851 z m -1.13672,0.0293 q 0,-1.18359 -0.4043,-1.76953 -0.4043,-0.58594 -1.24219,-0.58594 -0.47461,0 -0.95508,0.20508 -0.48046,0.20508 -0.91992,0.53906 v 3.70899 q 0.46875,0.21093 0.80274,0.28711 0.33984,0.0762 0.76758,0.0762 0.91992,0 1.43554,-0.6211 0.51563,-0.62109 0.51563,-1.83984 z m 7.66406,-2.25586 q 0.41016,0.41016 0.62109,0.99609 0.21094,0.58008 0.21094,1.36524 0,1.46484 -0.87891,2.43164 -0.8789,0.9668 -2.1621,0.9668 -0.63282,0 -1.16602,-0.21094 -0.5332,-0.2168 -0.9082,-0.66211 -0.46875,-0.55664 -0.70313,-1.40039 -0.22851,-0.84961 -0.22851,-2.06836 0,-0.43945 0.041,-0.89063 0.041,-0.45703 0.1875,-1.08984 0.11719,-0.54492 0.33985,-1.04883 0.22851,-0.5039 0.53906,-0.81445 0.42187,-0.42773 1.10742,-0.68555 0.69141,-0.26367 1.82812,-0.36328 0.4629,-0.041 0.86133,-0.0645 0.39844,-0.0293 0.71485,-0.0527 v 1.01368 q -0.38672,0.0234 -0.76758,0.0469 -0.375,0.0234 -0.75,0.0586 -0.75,0.0645 -1.35938,0.2461 -0.60351,0.18164 -0.88476,0.46875 -0.31055,0.31055 -0.46875,0.81445 -0.15235,0.49805 -0.19922,0.94922 0.43945,-0.31641 0.96094,-0.52734 0.52734,-0.2168 1.11914,-0.2168 0.55078,0 1.06054,0.18164 0.50977,0.18164 0.88477,0.55664 z m -0.28711,2.42578 q 0,-1.08398 -0.52148,-1.61719 -0.52149,-0.53906 -1.37696,-0.53906 -0.50976,0 -0.97851,0.16406 -0.46875,0.15821 -0.89063,0.42774 -0.0117,0.14648 -0.0234,0.3457 -0.006,0.19336 -0.006,0.35742 0,1.01954 0.16992,1.65235 0.16992,0.63281 0.48047,1.00781 0.26953,0.31641 0.58593,0.45117 0.31641,0.12891 0.67969,0.12891 0.88477,0 1.38281,-0.63867 0.49805,-0.63868 0.49805,-1.74024 z m 8.50781,-3.39258 -3.82031,8.95899 h -1.17773 l 1.21875,-2.73047 -2.60743,-6.22852 h 1.19532 l 2.00976,4.85157 2.02735,-4.85157 z m 7.20117,3.19336 q 0,0.79688 -0.22851,1.45899 -0.22852,0.65625 -0.64453,1.11328 -0.38672,0.43359 -0.91406,0.67383 -0.52149,0.23437 -1.10743,0.23437 -0.50976,0 -0.92578,-0.11133 -0.41015,-0.11132 -0.83789,-0.3457 v 2.74219 h -1.10156 v -8.95899 h 1.10156 v 0.68555 q 0.43945,-0.36914 0.98438,-0.61523 0.55078,-0.25196 1.17187,-0.25196 1.1836,0 1.83985,0.89649 0.6621,0.89062 0.6621,2.47851 z m -1.13671,0.0293 q 0,-1.18359 -0.4043,-1.76953 -0.4043,-0.58594 -1.24219,-0.58594 -0.47461,0 -0.95508,0.20508 -0.48047,0.20508 -0.91992,0.53906 v 3.70899 q 0.46875,0.21093 0.80274,0.28711 0.33984,0.0762 0.76757,0.0762 0.91993,0 1.43555,-0.6211 0.51563,-0.62109 0.51563,-1.83984 z m 7.36523,-2.25586 h -3.41016 v 5.57813 h -1.10156 v -6.54493 h 4.51172 z"
         id="text7"
         style="font-size:12px;font-family:'Arial Rounded MT Bold';-inkscape-font-specification:'Arial Rounded MT Bold, '"
         aria-label="Адрес: г. Санкт-Петербург" />
      <path
         d="m 760.73804,293.0975 h -5.74805 v -8.72461 h 5.74805 v 1.03125 h -4.58789 v 2.39063 h 4.58789 v 1.03125 h -4.58789 v 3.24023 h 4.58789 z m 9.96093,0 h -1.33007 l -2.09766,-2.98828 h -0.5332 v 2.98828 h -1.08985 v -2.98828 h -0.47461 l -2.1914,2.98828 h -1.27149 l 2.52539,-3.42773 q -0.28711,-0.15234 -0.50976,-0.43359 -0.2168,-0.28125 -0.39844,-0.84961 -0.1582,-0.49805 -0.375,-0.69141 -0.2168,-0.19336 -0.70898,-0.19336 h -0.31055 v -0.94922 h 0.4043 q 0.72656,0 1.16601,0.29297 0.43946,0.29297 0.70313,1.02539 0.0527,0.15234 0.1289,0.35156 0.082,0.19336 0.14063,0.32813 0.19336,0.44531 0.49219,0.63281 0.30468,0.18164 0.67968,0.20508 v -2.83594 h 1.08985 v 2.83594 q 0.375,-0.0234 0.67968,-0.21094 0.31055,-0.1875 0.50391,-0.62695 0.0644,-0.14649 0.14063,-0.33985 0.082,-0.19335 0.1289,-0.33984 0.25781,-0.7207 0.69141,-1.01953 0.43359,-0.29883 1.16601,-0.29883 h 0.4043 v 0.94922 h -0.31055 q -0.49804,0 -0.7207,0.20508 -0.2168,0.20508 -0.36328,0.67969 -0.16406,0.52148 -0.39258,0.81445 -0.22265,0.28711 -0.48633,0.43359 z m 6.84375,-3.1582 h -4.82226 q 0,0.60352 0.18164,1.05469 0.18164,0.44531 0.49805,0.73242 0.30468,0.28125 0.7207,0.42187 0.42187,0.14063 0.92578,0.14063 0.66797,0 1.3418,-0.26367 0.67969,-0.26953 0.96679,-0.52735 h 0.0586 v 1.20118 q -0.55664,0.23437 -1.13672,0.39257 -0.58008,0.15821 -1.21875,0.15821 -1.62891,0 -2.54297,-0.87891 -0.91406,-0.88476 -0.91406,-2.50781 0,-1.60547 0.87305,-2.54883 0.8789,-0.94336 2.30859,-0.94336 1.32422,0 2.03906,0.77344 0.7207,0.77344 0.7207,2.19726 z m -1.07226,-0.84375 q -0.006,-0.86719 -0.43945,-1.3418 -0.42774,-0.47461 -1.30664,-0.47461 -0.88477,0 -1.41211,0.52149 -0.52149,0.52148 -0.5918,1.29492 z m 8.68359,5.57227 h -1.02539 v -1.58789 h -4.92187 v 1.58789 H 778.1814 V 292.16 h 0.70898 q 0.68555,-1.13086 1.01953,-2.60742 0.33985,-1.48242 0.33985,-3 h 4.11328 V 292.16 h 0.79101 z M 783.26147,292.16 v -4.68164 h -1.9746 q -0.0762,1.47071 -0.45118,2.6836 -0.375,1.21289 -0.86132,1.99804 z m 8.88868,0.9375 h -1.10157 v -2.94726 h -3.27539 v 2.94726 h -1.10156 v -6.54492 h 1.10156 v 2.64844 h 3.27539 v -2.64844 h 1.10157 z m 7.64648,-3.1582 h -4.82226 q 0,0.60352 0.18164,1.05469 0.18164,0.44531 0.49804,0.73242 0.30469,0.28125 0.72071,0.42187 0.42187,0.14063 0.92578,0.14063 0.66797,0 1.34179,-0.26367 0.67969,-0.26953 0.9668,-0.52735 h 0.0586 v 1.20118 q -0.55664,0.23437 -1.13671,0.39257 -0.58008,0.15821 -1.21875,0.15821 -1.62891,0 -2.54297,-0.87891 -0.91407,-0.88476 -0.91407,-2.50781 0,-1.60547 0.87305,-2.54883 0.87891,-0.94336 2.3086,-0.94336 1.32421,0 2.03906,0.77344 0.7207,0.77344 0.7207,2.19726 z m -1.07226,-0.84375 q -0.006,-0.86719 -0.43946,-1.3418 -0.42773,-0.47461 -1.30664,-0.47461 -0.88476,0 -1.41211,0.52149 -0.52148,0.52148 -0.59179,1.29492 z m 8.14453,2.02148 q 0,0.47461 -0.19336,0.84375 -0.1875,0.36915 -0.52149,0.61524 -0.375,0.27539 -0.82031,0.39844 -0.43945,0.12304 -1.16016,0.12304 h -2.70703 v -6.54492 h 2.53125 q 0.73242,0 1.10157,0.0527 0.375,0.0469 0.70312,0.21679 0.36914,0.19336 0.53906,0.50391 0.17578,0.31055 0.17578,0.73242 0,0.48633 -0.27539,0.84375 -0.27539,0.35742 -0.70898,0.55664 v 0.0586 q 0.58008,0.14062 0.95508,0.54492 0.38086,0.39843 0.38086,1.05468 z m -1.48243,-2.88867 q 0,-0.21093 -0.0937,-0.38086 -0.0879,-0.16992 -0.27539,-0.26367 -0.24609,-0.12305 -0.55664,-0.13476 -0.30468,-0.0176 -0.75586,-0.0176 h -1.14843 v 1.79297 h 1.37695 q 0.43359,0 0.63867,-0.0293 0.21094,-0.0352 0.42188,-0.16406 0.22265,-0.14063 0.30468,-0.32813 0.0879,-0.19336 0.0879,-0.47461 z m 0.34571,2.89453 q 0,-0.32226 -0.10547,-0.52148 -0.10547,-0.20508 -0.46289,-0.375 -0.22266,-0.10547 -0.48047,-0.12305 -0.25781,-0.0234 -0.71484,-0.0234 h -1.41211 v 2.13867 h 1.04297 q 0.65625,0 1.00781,-0.041 0.35742,-0.0469 0.61523,-0.19336 0.25781,-0.14648 0.38086,-0.35742 0.12891,-0.21094 0.12891,-0.50391 z m 8.34961,1.97461 h -1.10157 v -2.94726 h -3.27539 v 2.94726 h -1.10156 v -6.54492 h 1.10156 v 2.64844 h 3.27539 v -2.64844 h 1.10157 z m 7.74609,-3.26953 q 0,1.59961 -0.82031,2.52539 -0.82031,0.92578 -2.19727,0.92578 -1.38867,0 -2.20898,-0.92578 -0.81445,-0.92578 -0.81445,-2.52539 0,-1.59961 0.81445,-2.52539 0.82031,-0.93164 2.20898,-0.93164 1.37696,0 2.19727,0.93164 0.82031,0.92578 0.82031,2.52539 z m -1.13672,0 q 0,-1.27148 -0.49804,-1.88672 -0.49805,-0.62109 -1.38282,-0.62109 -0.89648,0 -1.39453,0.62109 -0.49219,0.61524 -0.49219,1.88672 0,1.23047 0.49805,1.86914 0.49805,0.63282 1.38867,0.63282 0.87891,0 1.37696,-0.62696 0.5039,-0.63281 0.5039,-1.875 z m 11.95899,2.85938 q -0.67383,0.3164 -1.16016,0.43359 -0.48047,0.12305 -0.96094,0.12305 -0.71484,0 -1.3125,-0.20508 -0.59765,-0.21094 -1.02539,-0.63281 -0.42773,-0.42188 -0.66797,-1.06641 -0.23437,-0.64453 -0.23437,-1.50586 0,-1.56445 0.86719,-2.49609 0.86718,-0.9375 2.37304,-0.9375 0.56836,0 1.11328,0.1582 0.55079,0.1582 1.00782,0.38672 v 1.22461 h -0.0645 q -0.54492,-0.41602 -1.07812,-0.61524 -0.52735,-0.19921 -1.02539,-0.19921 -0.97852,0 -1.51758,0.65625 -0.5332,0.65625 -0.5332,1.82226 0,1.16602 0.5332,1.81055 0.5332,0.64453 1.51758,0.64453 0.3457,0 0.68554,-0.0879 0.34571,-0.0879 0.62696,-0.22852 0.22265,-0.11132 0.45703,-0.26367 0.24023,-0.1582 0.33398,-0.23437 h 0.0645 z m 8.31445,-3.43946 q -0.38672,0.45704 -0.86719,0.69141 -0.47461,0.22852 -1.05469,0.22852 -0.55078,0 -1.03125,-0.21094 -0.4746,-0.2168 -0.82617,-0.59766 -0.3457,-0.38672 -0.5332,-0.89648 -0.1875,-0.51563 -0.1875,-1.07813 0,-0.60351 0.21094,-1.14258 0.21093,-0.54492 0.60351,-0.94335 0.39258,-0.39844 0.93164,-0.6211 0.54493,-0.22265 1.20118,-0.22265 0.75585,0 1.34765,0.27539 0.5918,0.27539 0.9961,0.80273 0.40429,0.52148 0.62109,1.31836 0.2168,0.79687 0.2168,1.80469 0,1.125 -0.22852,1.98633 -0.22852,0.85546 -0.66797,1.4414 -0.43359,0.58008 -1.04297,0.86719 -0.60937,0.28125 -1.38281,0.28125 -0.76172,0 -1.32422,-0.28711 -0.5625,-0.29297 -0.85547,-0.7207 -0.29297,-0.4336 -0.29297,-0.83203 0,-0.2461 0.18164,-0.43946 0.18165,-0.19336 0.4629,-0.19336 0.25781,0 0.46289,0.14649 0.20507,0.14062 0.31054,0.42773 0.12891,0.35156 0.42774,0.56836 0.29883,0.21094 0.67383,0.21094 0.33398,0 0.63281,-0.16992 0.29883,-0.16993 0.50976,-0.48047 0.42188,-0.62696 0.50391,-2.21485 z m -0.13477,-1.79296 q 0,-0.39844 -0.11132,-0.73243 -0.10547,-0.33984 -0.30469,-0.58593 -0.19336,-0.2461 -0.46875,-0.38672 -0.26953,-0.14063 -0.5918,-0.14063 -0.55664,0 -0.94336,0.48047 -0.38672,0.47461 -0.38672,1.25977 0,0.77929 0.38672,1.24218 0.38672,0.46289 0.97852,0.46289 0.36328,0 0.6914,-0.1875 0.33399,-0.19335 0.53907,-0.55664 0.21093,-0.36328 0.21093,-0.85546 z m 12.4043,7.21289 h -1.02539 v -1.58789 h -4.92187 v 1.58789 h -1.0254 V 292.16 h 0.70899 q 0.68555,-1.13086 1.01953,-2.60742 0.33984,-1.48242 0.33984,-3 h 4.11329 V 292.16 h 0.79101 z M 851.34155,292.16 v -4.68164 h -1.97461 q -0.0762,1.47071 -0.45117,2.6836 -0.375,1.21289 -0.86133,1.99804 z m 8.98828,-2.33203 q 0,1.59961 -0.82031,2.52539 -0.82031,0.92578 -2.19726,0.92578 -1.38868,0 -2.20899,-0.92578 -0.81445,-0.92578 -0.81445,-2.52539 0,-1.59961 0.81445,-2.52539 0.82031,-0.93164 2.20899,-0.93164 1.37695,0 2.19726,0.93164 0.82031,0.92578 0.82031,2.52539 z m -1.13671,0 q 0,-1.27148 -0.49805,-1.88672 -0.49805,-0.62109 -1.38281,-0.62109 -0.89649,0 -1.39454,0.62109 -0.49218,0.61524 -0.49218,1.88672 0,1.23047 0.49804,1.86914 0.49805,0.63282 1.38868,0.63282 0.8789,0 1.37695,-0.62696 0.50391,-0.63281 0.50391,-1.875 z m 8.14453,2.4668 v -5.33203 q -1.48828,1.14258 -2.00391,1.14258 -0.24609,0 -0.43945,-0.19336 -0.1875,-0.19922 -0.1875,-0.45703 0,-0.29883 0.1875,-0.43946 0.1875,-0.14062 0.66211,-0.36328 0.70898,-0.33398 1.13086,-0.70312 0.42773,-0.36914 0.75586,-0.82618 0.32812,-0.45703 0.42773,-0.5625 0.0996,-0.10546 0.375,-0.10546 0.31055,0 0.49805,0.24023 0.1875,0.24023 0.1875,0.66211 v 6.70898 q 0,1.17774 -0.80274,1.17774 -0.35742,0 -0.57422,-0.24024 -0.21679,-0.24023 -0.21679,-0.70898 z m 4.54687,-5.60742 q 0,-0.58594 0.31641,-1.10157 0.32226,-0.52148 0.9375,-0.83203 0.62109,-0.31054 1.44726,-0.31054 0.69727,0 1.22461,0.18164 0.52735,0.18164 0.87891,0.5039 0.35156,0.31641 0.52148,0.72071 0.16993,0.39843 0.16993,0.84961 0,0.57421 -0.29883,1.02539 -0.29297,0.45117 -0.87891,0.73828 0.49805,0.19336 0.82617,0.50976 0.32813,0.31055 0.49219,0.72657 0.16992,0.41015 0.16992,0.91406 0,0.73828 -0.35742,1.3418 -0.35742,0.59765 -1.04883,0.9375 -0.6914,0.33984 -1.6289,0.33984 -0.97266,0 -1.66407,-0.33984 -0.6914,-0.33985 -1.04297,-0.93165 -0.35156,-0.59765 -0.35156,-1.33593 0,-1.57617 1.48828,-2.16211 -1.20117,-0.5625 -1.20117,-1.77539 z m 4.20117,3.8789 q 0,-0.45703 -0.1875,-0.79687 -0.1875,-0.33985 -0.52734,-0.52149 -0.33984,-0.18164 -0.76172,-0.18164 -0.59766,0 -1.00195,0.39844 -0.4043,0.39844 -0.4043,1.11328 0,0.45703 0.1875,0.8086 0.19336,0.3457 0.52149,0.53906 0.32812,0.1875 0.73242,0.1875 0.41015,0 0.73828,-0.19336 0.32812,-0.19336 0.51562,-0.54492 0.1875,-0.35157 0.1875,-0.8086 z m -1.46484,-5.0039 q -0.55078,0 -0.89063,0.3457 -0.33398,0.33984 -0.33398,0.87891 0,0.49804 0.3457,0.83203 0.34571,0.32812 0.89063,0.32812 0.27539,0 0.49805,-0.0879 0.22851,-0.0879 0.38671,-0.24023 0.16407,-0.15821 0.25196,-0.36914 0.0879,-0.2168 0.0879,-0.47461 0,-0.34571 -0.15821,-0.6211 -0.15234,-0.27539 -0.43359,-0.43359 -0.28125,-0.1582 -0.64453,-0.1582 z m 12.77344,7.53515 h -1.10157 v -2.51367 q -0.5332,0.16406 -1.01953,0.26367 -0.48632,0.0996 -1.06054,0.0996 -1.05469,0 -1.61133,-0.51562 -0.55664,-0.52149 -0.55664,-1.5 v -2.37891 h 1.10156 v 1.81641 q 0,0.375 0.0469,0.67383 0.0469,0.29296 0.19921,0.50976 0.15235,0.21094 0.42774,0.32227 0.27539,0.11133 0.76758,0.11133 0.40429,0 0.8789,-0.0762 0.47461,-0.082 0.82617,-0.1875 v -3.16992 h 1.10157 z m 7.2539,0 h -1.0957 v -0.69726 q -0.14648,0.0996 -0.39844,0.28125 -0.24609,0.17578 -0.48047,0.28125 -0.27539,0.13476 -0.63281,0.22265 -0.35742,0.0937 -0.83789,0.0937 -0.88476,0 -1.5,-0.58593 -0.61523,-0.58594 -0.61523,-1.49414 0,-0.74414 0.3164,-1.20118 0.32227,-0.46289 0.91407,-0.72656 0.59765,-0.26367 1.43554,-0.35742 0.83789,-0.0937 1.79883,-0.14063 v -0.16992 q 0,-0.375 -0.13477,-0.62109 -0.1289,-0.24609 -0.375,-0.38672 -0.23437,-0.13477 -0.5625,-0.18164 -0.32812,-0.0469 -0.68554,-0.0469 -0.4336,0 -0.9668,0.11719 -0.5332,0.11133 -1.10156,0.32813 h -0.0586 v -1.11914 q 0.32227,-0.0879 0.93165,-0.19336 0.60937,-0.10547 1.20117,-0.10547 0.6914,0 1.20117,0.11719 0.51562,0.11132 0.89062,0.38671 0.36914,0.26954 0.5625,0.69727 0.19336,0.42773 0.19336,1.06055 z m -1.0957,-1.61132 v -1.82227 q -0.50391,0.0293 -1.18945,0.0879 -0.67969,0.0586 -1.07813,0.16992 -0.47461,0.13477 -0.76758,0.42188 -0.29296,0.28125 -0.29296,0.77929 0,0.5625 0.33984,0.84961 0.33984,0.28125 1.03711,0.28125 0.58008,0 1.06055,-0.22265 0.48046,-0.22852 0.89062,-0.54492 z m 8.11523,1.20117 q -0.67382,0.3164 -1.16015,0.43359 -0.48047,0.12305 -0.96094,0.12305 -0.71484,0 -1.3125,-0.20508 -0.59766,-0.21094 -1.02539,-0.63281 -0.42773,-0.42188 -0.66797,-1.06641 -0.23437,-0.64453 -0.23437,-1.50586 0,-1.56445 0.86718,-2.49609 0.86719,-0.9375 2.37305,-0.9375 0.56836,0 1.11328,0.1582 0.55078,0.1582 1.00781,0.38672 v 1.22461 h -0.0645 q -0.54492,-0.41602 -1.07812,-0.61524 -0.52735,-0.19921 -1.02539,-0.19921 -0.97852,0 -1.51758,0.65625 -0.53321,0.65625 -0.53321,1.82226 0,1.16602 0.53321,1.81055 0.5332,0.64453 1.51758,0.64453 0.3457,0 0.68554,-0.0879 0.34571,-0.0879 0.62696,-0.22852 0.22265,-0.11132 0.45703,-0.26367 0.24023,-0.1582 0.33398,-0.23437 h 0.0645 z m 7.08985,-2.85938 q 0,1.59961 -0.82031,2.52539 -0.82032,0.92578 -2.19727,0.92578 -1.38867,0 -2.20898,-0.92578 -0.81446,-0.92578 -0.81446,-2.52539 0,-1.59961 0.81446,-2.52539 0.82031,-0.93164 2.20898,-0.93164 1.37695,0 2.19727,0.93164 0.82031,0.92578 0.82031,2.52539 z m -1.13672,0 q 0,-1.27148 -0.49805,-1.88672 -0.49804,-0.62109 -1.38281,-0.62109 -0.89648,0 -1.39453,0.62109 -0.49219,0.61524 -0.49219,1.88672 0,1.23047 0.49805,1.86914 0.49805,0.63282 1.38867,0.63282 0.87891,0 1.37695,-0.62696 0.50391,-0.63281 0.50391,-1.875 z m 8.24414,1.28906 q 0,0.47461 -0.19336,0.84375 -0.1875,0.36915 -0.52148,0.61524 -0.375,0.27539 -0.82032,0.39844 -0.43945,0.12304 -1.16015,0.12304 h -2.70703 v -6.54492 h 2.53125 q 0.73242,0 1.10156,0.0527 0.375,0.0469 0.70312,0.21679 0.36914,0.19336 0.53907,0.50391 0.17578,0.31055 0.17578,0.73242 0,0.48633 -0.27539,0.84375 -0.27539,0.35742 -0.70899,0.55664 v 0.0586 q 0.58008,0.14062 0.95508,0.54492 0.38086,0.39843 0.38086,1.05468 z m -1.48242,-2.88867 q 0,-0.21093 -0.0937,-0.38086 -0.0879,-0.16992 -0.27539,-0.26367 -0.2461,-0.12305 -0.55664,-0.13476 -0.30469,-0.0176 -0.75586,-0.0176 h -1.14844 v 1.79297 h 1.37695 q 0.4336,0 0.63868,-0.0293 0.21093,-0.0352 0.42187,-0.16406 0.22266,-0.14063 0.30469,-0.32813 0.0879,-0.19336 0.0879,-0.47461 z m 0.3457,2.89453 q 0,-0.32226 -0.10547,-0.52148 -0.10547,-0.20508 -0.46289,-0.375 -0.22265,-0.10547 -0.48047,-0.12305 -0.25781,-0.0234 -0.71484,-0.0234 h -1.41211 v 2.13867 h 1.04297 q 0.65625,0 1.00781,-0.041 0.35742,-0.0469 0.61524,-0.19336 0.25781,-0.14648 0.38086,-0.35742 0.1289,-0.21094 0.1289,-0.50391 z"
         id="text8"
         style="font-size:12px;font-family:'Arial Rounded MT Bold';-inkscape-font-specification:'Arial Rounded MT Bold, '"
         aria-label="Ежедневно с 9 до 18 часов" />
      <text
         xml:space="preserve"
         style="font-size:12px;font-family:'Arial Rounded MT Bold';-inkscape-font-specification:'Arial Rounded MT Bold, ';fill:#000000;fill-opacity:1"
         x="526.78522"
         y="259.61008"
         id="text9"><tspan
           sodipodi:role="line"
           id="tspan8"
           x="526.78522"
           y="259.61008">Телефон: +7 911 277-56-07</tspan></text>
    </g>
  </g>
</svg>
