<?xml version="1.0" encoding="UTF-8" standalone="no"?>
<!-- Created with Inkscape (http://www.inkscape.org/) -->

<svg
   width="107.86533mm"
   height="51.143959mm"
   viewBox="0 0 107.86533 51.143959"
   version="1.1"
   id="svg1"
   inkscape:version="1.3.2 (091e20e, 2023-11-25, custom)"
   sodipodi:docname="logo-foot-3+.svg"
   xmlns:inkscape="http://www.inkscape.org/namespaces/inkscape"
   xmlns:sodipodi="http://sodipodi.sourceforge.net/DTD/sodipodi-0.dtd"
   xmlns="http://www.w3.org/2000/svg"
   xmlns:svg="http://www.w3.org/2000/svg">
  <sodipodi:namedview
     id="namedview1"
     pagecolor="#ffffff"
     bordercolor="#000000"
     borderopacity="0.25"
     inkscape:showpageshadow="2"
     inkscape:pageopacity="0.0"
     inkscape:pagecheckerboard="0"
     inkscape:deskcolor="#d1d1d1"
     inkscape:document-units="mm"
     inkscape:zoom="2.955623"
     inkscape:cx="257.98283"
     inkscape:cy="100.31726"
     inkscape:window-width="3440"
     inkscape:window-height="1369"
     inkscape:window-x="-8"
     inkscape:window-y="-8"
     inkscape:window-maximized="1"
     inkscape:current-layer="g61" />
  <defs
     id="defs1" />
  <g
     inkscape:label="Слой 1"
     inkscape:groupmode="layer"
     id="layer1"
     transform="translate(-51.064585,-123.03125)">
    <g
       id="g61"
       transform="matrix(0.26458333,0,0,0.26458333,-85.343997,93.538146)">
      <path
         class="cls-2"
         d="m 877.77,159.02 h 41.54 c 1.89,0 3.41,-1.53 3.41,-3.41 v -40.23 c 0,-1.89 -1.53,-3.41 -3.41,-3.41 h -62.53 c -14.1,0 -27.22,4.08 -38.33,11.07 -2.28,1.44 -5.24,-0.16 -5.24,-2.85 v -4.14 c 0,-2.56 -1.53,-4.08 -3.41,-4.08 h -45.21 c -3.45,0 -6.75,1.42 -9.12,3.93 l -52.85,55.86 c -2.12,2.24 -5.89,0.74 -5.89,-2.35 v -54.03 c 0,-1.89 -1.53,-3.41 -3.41,-3.41 h -47.2 c -1.89,0 -3.41,1.53 -3.41,3.41 v 62.02 c 0,3.12 -3.76,4.53 -5.94,2.29 -8.22,-8.44 -19.69,-13.7 -32.41,-13.7 H 573.5 c -1.89,0 -3.41,-1.53 -3.41,-3.41 v -12.93 c 0,-1.89 1.53,-3.41 3.41,-3.41 h 57.66 c 1.89,0 3.41,-1.53 3.41,-3.41 v -27.45 c 0,-1.89 -1.53,-3.41 -3.41,-3.41 H 519.47 c -1.89,0 -3.41,1.53 -3.41,3.41 v 105.18 0 80.3 c 0,1.89 1.53,3.41 3.41,3.41 h 399.86 c 1.89,0 3.41,-1.53 3.41,-3.41 v -87.87 c 0,-1.89 -1.53,-3.41 -3.41,-3.41 h -41.54 c -43.28,0 -42.38,-50.55 0,-50.55 z m -122.01,61.53 h -17.01 c -3,0 -4.54,-3.58 -2.48,-5.76 l 17.01,-17.98 c 2.12,-2.24 5.89,-0.74 5.89,2.35 v 17.98 c 0,1.89 -1.53,3.41 -3.41,3.41 z"
         id="path31"
         style="fill:none;stroke:#ea5b0c;stroke-miterlimit:10" />
      <text
         xml:space="preserve"
         style="font-size:10.6667px;font-family:'Arial Rounded MT Bold';-inkscape-font-specification:'Arial Rounded MT Bold, ';fill:#9276b8"
         x="539.00562"
         y="273.19705"
         id="text1"><tspan
           sodipodi:role="line"
           id="tspan1"
           x="539.00562"
           y="273.19705" /></text>
      <text
         xml:space="preserve"
         style="font-size:12px;font-family:'Arial Rounded MT Bold';-inkscape-font-specification:'Arial Rounded MT Bold, ';fill:#000000;fill-opacity:1"
         x="527.52197"
         y="259.85031"
         id="text3"><tspan
           sodipodi:role="line"
           id="tspan3"
           x="527.52197"
           y="259.85031">Телефон: + 7 911 277-56-077</tspan></text>
      <text
         xml:space="preserve"
         style="font-size:12px;font-family:'Arial Rounded MT Bold';-inkscape-font-specification:'Arial Rounded MT Bold, ';fill:#000000;fill-opacity:1"
         x="527.74017"
         y="276.46692"
         id="text4"><tspan
           sodipodi:role="line"
           id="tspan4"
           x="527.74017"
           y="276.46692">Email: kaceruk2023@gmail.com</tspan></text>
      <text
         xml:space="preserve"
         style="font-size:12px;font-family:'Arial Rounded MT Bold';-inkscape-font-specification:'Arial Rounded MT Bold, ';fill:#000000;fill-opacity:1"
         x="527.18359"
         y="292.75919"
         id="text7"><tspan
           sodipodi:role="line"
           id="tspan7"
           x="527.18359"
           y="292.75919">Адрес: г. Санкт-Петербург</tspan></text>
      <text
         xml:space="preserve"
         style="font-size:12px;font-family:'Arial Rounded MT Bold';-inkscape-font-specification:'Arial Rounded MT Bold, ';fill:#000000;fill-opacity:1"
         x="749.81812"
         y="293.0975"
         id="text8"><tspan
           sodipodi:role="line"
           id="tspan8"
           x="749.81812"
           y="293.0975">Ежедневно с 9 до 18 часов</tspan></text>
    </g>
  </g>
</svg>
