<?xml version="1.0" encoding="UTF-8" standalone="no"?>
<svg
   width="224.96449"
   height="35.460075"
   viewBox="0 0 224.96449 35.460075"
   fill="none"
   version="1.1"
   id="svg10"
   xmlns="http://www.w3.org/2000/svg"
   xmlns:svg="http://www.w3.org/2000/svg">
  <defs
     id="defs10" />
  <path
     d="M 0,11.101413 C 0,6.9592729 3.35787,3.6013929 7.50002,3.6013929 H 23.9094 V 18.601393 H 7.50001 C 3.35787,18.601393 0,15.243593 0,11.101413 Z"
     fill="#ffb306"
     id="path1"
     style="fill:#ffee36;fill-opacity:1" />
  <path
     d="m 30,26.101393 c 0,4.1421 -3.3579,7.5 -7.5,7.5 H 6.40414 v -15 H 22.5 c 4.1421,0 7.5,3.3578 7.5,7.5 z"
     fill="#0DB25A"
     id="path2"
     style="fill:#10e472;fill-opacity:1" />
  <path
     d="m 15,26.101393 c 0,4.1421 -3.3579,7.5 -7.50002,7.5 H 6e-5 l 10e-7,-7.8614 c 0,-3.9426 3.196089,-7.1386 7.138659,-7.1386 h 0.36126 c 4.14212,0 7.50002,3.3578 7.50002,7.5 z"
     fill="#0067A0"
     id="path3"
     style="fill:#2c59e1;fill-opacity:1" />
  <path
     d="m 15,11.101413 c 0,-4.1421401 3.3579,-7.5000201 7.5,-7.5000201 h 7.4999 v 7.8613801 c 0,3.94262 -3.196,7.13862 -7.1386,7.13862 H 22.5 c -4.1421,0 -7.5,-3.3578 -7.5,-7.49998 z"
     fill="#FF6701"
     id="path4"
     style="fill:#9276b8;fill-opacity:1" />
  <path
     d="M 50.482885,0.30650333 H 60.77937 q 4.017491,0 6.890928,0.66016098 2.873438,0.66016099 5.214757,2.47560369 6.092753,4.621127 6.092753,14.051998 0,3.112188 -0.611936,5.6821 -0.611936,2.569913 -1.889019,4.644704 -1.277084,2.051215 -3.272526,3.67804 -1.569748,1.24959 -3.432162,2.00406 -1.862413,0.75447 -4.017491,1.060973 -2.128472,0.306504 -4.815669,0.306504 H 50.64252 q -2.155078,0 -3.24592,-0.565853 Q 46.305758,33.715365 45.959881,32.677969 45.64061,31.616996 45.64061,29.943016 V 4.5975498 q 0,-2.2634091 1.144054,-3.2772278 1.144054,-1.01381867 3.698221,-1.01381867 z M 53.542564,5.8471402 V 29.306432 h 5.986328 q 1.968837,0 3.086285,-0.09431 1.117448,-0.09431 2.314714,-0.471544 1.197265,-0.377235 2.07526,-1.060973 3.96428,-2.970724 3.96428,-10.232495 0,-5.116248 -1.75599,-7.662583 -1.729383,-2.5463353 -4.28355,-3.2300734 -2.554167,-0.7073154 -6.17257,-0.7073154 z m 39.137283,7.0967308 v 18.602394 q 0,1.933328 -1.03763,2.92357 -1.037631,0.990242 -2.633985,0.990242 -1.596354,0 -2.607378,-1.01382 -0.984419,-1.013818 -0.984419,-2.899992 V 13.132488 q 0,-1.909751 0.984419,-2.876415 1.011024,-0.9666647 2.607378,-0.9666647 1.596354,0 2.633985,0.9666647 1.03763,0.966664 1.03763,2.687798 z M 89.08805,6.2951066 q -1.516537,0 -2.607379,-0.8252013 -1.064236,-0.8252012 -1.064236,-2.3341406 0,-1.3674763 1.090842,-2.23983192 Q 87.624725,0 89.08805,0 q 1.410112,0 2.500955,0.80162407 1.090842,0.80162403 1.090842,2.33414063 0,1.4853623 -1.064236,2.3341406 -1.064236,0.8252013 -2.527561,0.8252013 z m 15.61766,7.0024224 4.73586,14.382078 4.31015,-13.36826 q 0.69176,-2.098368 1.01103,-2.852838 0.34587,-0.778047 1.25047,-1.4617854 0.93121,-0.7073153 2.52756,-0.7073153 1.62297,0 2.52756,0.7073153 0.93122,0.6837384 1.3037,1.5089394 0.37248,0.801624 1.03762,2.805684 l 4.31016,13.36826 4.78907,-14.382078 q 0.4789,-1.556094 0.77156,-2.239832 0.29267,-0.707315 0.98442,-1.2260136 0.69176,-0.5422751 1.99544,-0.5422751 1.3037,0 2.26151,0.8016237 0.95781,0.801624 0.95781,1.886175 0,0.990241 -0.82478,2.994302 l -5.93312,15.419474 q -0.77158,1.956906 -1.19727,2.829261 -0.42569,0.872356 -1.35689,1.556094 -0.90461,0.683739 -2.50096,0.683739 -1.64957,0 -2.60738,-0.730893 -0.93121,-0.730893 -1.38351,-1.791866 -0.4523,-1.060973 -0.98441,-2.75853 l -4.15053,-12.543059 -4.01748,12.543059 q -0.79819,2.617067 -1.72939,3.960966 -0.9312,1.320323 -3.27253,1.320323 -1.19727,0 -2.04865,-0.42439 -0.82478,-0.400812 -1.38351,-1.155282 -0.55872,-0.778047 -0.98442,-1.815443 -0.42569,-1.060973 -0.66515,-1.673979 l -5.8799,-15.419474 q -0.877996,-2.169101 -0.877996,-2.994302 0,-1.037396 0.931207,-1.862598 0.931206,-0.8252007 2.288109,-0.8252007 1.8092,0 2.44774,0.9195097 0.63854,0.895933 1.3569,3.088611 z m 59.33117,10.656884 h -14.20755 q 0.0266,2.192678 0.98442,3.866657 0.98441,1.67398 2.58077,2.522759 1.62296,0.848778 3.56519,0.848778 1.30369,0 2.36793,-0.259349 1.09083,-0.282926 2.10186,-0.848778 1.01103,-0.58943 1.86242,-1.249591 0.85139,-0.660161 2.20828,-1.791865 0.55873,-0.42439 1.59636,-0.42439 1.11744,0 1.8092,0.542276 0.69176,0.542274 0.69176,1.532516 0,0.872355 -0.77157,2.051214 -0.77158,1.155283 -2.34132,2.239832 -1.54315,1.060973 -3.91108,1.768289 -2.34132,0.707316 -5.40099,0.707316 -6.99736,0 -10.88182,-3.536578 -3.88446,-3.536577 -3.88446,-9.595912 0,-2.852838 0.95782,-5.281287 0.9578,-2.452026 2.79362,-4.196738 1.83581,-1.744711 4.523,-2.664221 2.6872,-0.9430871 5.95972,-0.9430871 4.25695,0 7.29002,1.6032481 3.05968,1.579671 4.57622,4.102429 1.51653,2.522758 1.51653,5.139825 0,2.428449 -1.56974,3.159342 -1.56976,0.707315 -4.41659,0.707315 z m -14.20755,-3.654462 h 13.16992 q -0.26606,-3.300806 -2.02204,-4.927631 -1.72939,-1.650402 -4.57622,-1.650402 -2.7138,0 -4.4698,1.67398 -1.72938,1.650402 -2.10186,4.904053 z m 33.52343,5.870717 v 5.375597 q 0,1.956905 -1.03763,2.947147 -1.03763,0.966665 -2.63398,0.966665 -1.56975,0 -2.58077,-0.990242 -1.01103,-0.990242 -1.01103,-2.92357 V 13.627609 q 0,-4.3382007 3.53859,-4.3382007 1.80919,0 2.60738,1.0138187 0.79817,1.013818 0.87799,2.994302 1.30369,-1.980484 2.66059,-2.994302 1.38351,-1.0138187 3.67162,-1.0138187 2.28811,0 4.44318,1.0138187 2.15508,1.013818 2.15508,2.687798 0,1.178859 -0.93121,1.956906 -0.9046,0.754469 -1.96883,0.754469 -0.39909,0 -1.94224,-0.424388 -1.51653,-0.447967 -2.68719,-0.447967 -1.59635,0 -2.60738,0.75447 -1.01102,0.730892 -1.56974,2.192678 -0.55874,1.461784 -0.77158,3.489421 -0.21285,2.004061 -0.21285,4.904054 z m 33.65647,5.658523 q -2.63398,1.815443 -5.10833,2.734952 -2.44774,0.895934 -5.50742,0.895934 -2.79362,0 -4.9221,-0.966665 -2.10186,-0.990242 -3.24591,-2.664221 -1.14405,-1.67398 -1.14405,-3.630886 0,-2.640644 1.88901,-4.503241 1.88902,-1.862597 5.18815,-2.499181 0.69176,-0.141463 3.43217,-0.636584 2.74041,-0.49512 4.68263,-0.895932 1.96884,-0.42439 4.25695,-1.013819 -0.13303,-2.546335 -1.17066,-3.725194 -1.01103,-1.202436 -4.23034,-1.202436 -2.76701,0 -4.17713,0.683738 -1.3835,0.683739 -2.39453,2.051214 -0.98442,1.367476 -1.41011,1.815444 -0.39909,0.424388 -1.75599,0.424388 -1.22387,0 -2.12848,-0.683738 -0.87799,-0.707315 -0.87799,-1.791865 0,-1.697557 1.35691,-3.300805 1.35689,-1.603249 4.23033,-2.640644 2.87344,-1.0373961 7.15699,-1.0373961 4.78906,0 7.52947,1.0138191 2.74041,0.990241 3.85785,3.159342 1.14406,2.1691 1.14406,5.752831 0,2.263409 -0.0266,3.84308 0,1.579671 -0.0266,3.513 0,1.815443 0.66516,3.795925 0.69175,1.956906 0.69175,2.522759 0,0.990241 -1.06423,1.815442 -1.03764,0.801625 -2.36793,0.801625 -1.11745,0 -2.20829,-0.919511 -1.09085,-0.943087 -2.31472,-2.711375 z m -0.4789,-9.312986 q -1.59636,0.518698 -4.65604,1.108127 -3.03307,0.565853 -4.20372,0.848779 -1.17067,0.259349 -2.2349,1.060973 -1.06424,0.778047 -1.06424,2.192678 0,1.461784 1.25048,2.499181 1.25047,1.013818 3.27252,1.013818 2.15508,0 3.96429,-0.825201 1.8358,-0.848779 2.68719,-2.169101 0.98442,-1.461784 0.98442,-4.809744 z"
     id="text10"
     style="font-size:51.2938px;font-family:'Arial Rounded MT Bold';-inkscape-font-specification:'Arial Rounded MT Bold, ';fill:#102938;stroke-width:4.27449"
     aria-label="Diwera" />
  <text
     xml:space="preserve"
     style="font-style:normal;font-variant:normal;font-weight:normal;font-stretch:normal;font-size:38.9099px;font-family:'Arial Rounded MT Bold';-inkscape-font-specification:'Arial Rounded MT Bold, ';fill:#102938;fill-opacity:1;stroke-width:3.24249"
     x="57.04282"
     y="38.527946"
     id="text11"
     transform="scale(1.2806789,0.78083586)"><tspan
       id="tspan11"
       x="57.04282"
       y="38.527946"
       style="font-style:normal;font-variant:normal;font-weight:normal;font-stretch:normal;font-family:'Arial Rounded MT Bold';-inkscape-font-specification:'Arial Rounded MT Bold, ';stroke-width:3.24249" /></text>
</svg>
