<?xml version="1.0" encoding="UTF-8"?>
<svg id="Layer_1" data-name="Layer 1" xmlns="http://www.w3.org/2000/svg" viewBox="0 0 500 500">
  <defs>
    <style>
      .cls-1, .cls-2 {
        stroke-width: 0px;
      }

      .cls-2 {
        fill: #1d1d1b;
      }
    </style>
  </defs>
  <path class="cls-1" d="m381.28,398.37H126.8v-22c12.15,0,29.79-30.73,29.79-78.89s-17.64-78.89-29.79-78.89v-22h254.48c29.53,0,51.8,43.37,51.8,100.89s-22.27,100.89-51.8,100.89Zm-221.44-22h221.44c12.15,0,29.8-30.73,29.8-78.89s-17.65-78.89-29.8-78.89h-221.44c11.59,18.19,18.75,46.26,18.75,78.89s-7.16,60.7-18.75,78.89Z"/>
  <path class="cls-2" d="m126.8,196.59c-29.53,0-51.8,43.37-51.8,100.89s22.27,100.89,51.8,100.89,51.79-43.37,51.79-100.89-22.26-100.89-51.79-100.89Zm0,133.21c-8.11,0-14.67-14.47-14.67-32.32s6.56-32.32,14.67-32.32,14.66,14.47,14.66,32.32-6.56,32.32-14.66,32.32Z"/>
  <path class="cls-1" d="m351.49,218.58h-194.67v-73.99h194.67v73.99Zm-172.67-22h150.67v-29.99h-150.67v29.99Z"/>
  <g>
    <path class="cls-2" d="m247.63,103.61h13.06c27.65,0,50.09,22.44,50.09,50.09v1.9h-113.24v-1.9c0-27.65,22.44-50.09,50.09-50.09Z"/>
    <path class="cls-2" d="m321.78,166.6h-135.24v-12.9c0-33.69,27.41-61.09,61.09-61.09h13.06c33.69,0,61.09,27.41,61.09,61.09v12.9Zm-112.17-22h89.1c-4.11-17.18-19.6-29.99-38.02-29.99h-13.06c-18.42,0-33.91,12.81-38.02,29.99Z"/>
  </g>
  <rect class="cls-2" x="242.05" y="155.6" width="22" height="48.11"/>
  <rect class="cls-2" x="191.61" y="155.6" width="22" height="48.11"/>
  <rect class="cls-2" x="292.5" y="155.6" width="22" height="48.11"/>
</svg>